<?xml version="1.0" encoding="utf-8"?>
<!-- Generator: Adobe Illustrator 16.0.4, SVG Export Plug-In . SVG Version: 6.00 Build 0)  -->
<!DOCTYPE svg PUBLIC "-//W3C//DTD SVG 1.1//EN" "http://www.w3.org/Graphics/SVG/1.1/DTD/svg11.dtd">
<svg version="1.1" id="Camada_1" xmlns="http://www.w3.org/2000/svg" xmlns:xlink="http://www.w3.org/1999/xlink" x="0px" y="0px"
	 width="425.197px" height="283.465px" viewBox="0 0 425.197 283.465" enable-background="new 0 0 425.197 283.465"
	 xml:space="preserve">
<g>
	<defs>
		<rect id="SVGID_1_" width="425.197" height="283.465"/>
	</defs>
	<clipPath id="SVGID_2_">
		<use xlink:href="#SVGID_1_"  overflow="visible"/>
	</clipPath>
	<path clip-path="url(#SVGID_2_)" d="M29.976,216.072h15.915v2.209c0,10.365-5.608,16.935-15.009,16.935
		c-10.252,0-16.708-7.759-16.708-17.728c0-10.081,6.626-17.784,16.878-17.784c8.213,0,11.95,4.531,11.95,4.531l-1.869,2.436
		c0,0-3.511-3.909-10.081-3.909c-8.496,0-13.536,6.685-13.536,14.727c0,7.986,4.927,14.669,13.366,14.669
		c6.966,0,11.723-4.87,11.781-12.46v-0.623H29.976V216.072z"/>
	<path clip-path="url(#SVGID_2_)" d="M71.321,200.44c8.1,0,12.857,4.022,12.857,11.214c0,5.722-3.229,9.347-8.099,10.648v0.114
		l8.722,11.214v0.792h-3.285l-9.118-11.553H61.579v11.553h-3.227V200.44H71.321z M71.321,203.441h-9.742v16.426h10.252
		c5.21,0,9.062-2.661,9.062-8.1C80.893,206.217,77.098,203.441,71.321,203.441"/>
	<path clip-path="url(#SVGID_2_)" d="M96.185,217.488c0-10.081,6.57-17.784,16.708-17.784c10.194,0,16.652,7.703,16.652,17.784
		c0,9.969-6.458,17.728-16.652,17.728C102.755,235.216,96.185,227.457,96.185,217.488 M126.316,217.488
		c0-8.042-5.097-14.727-13.423-14.727c-8.326,0-13.367,6.685-13.367,14.727c0,7.986,5.041,14.669,13.367,14.669
		C121.219,232.157,126.316,225.475,126.316,217.488"/>
	<path clip-path="url(#SVGID_2_)" d="M141.49,217.488c0-10.081,6.57-17.784,16.708-17.784c10.195,0,16.651,7.703,16.651,17.784
		c0,9.969-6.456,17.728-16.651,17.728C148.06,235.216,141.49,227.457,141.49,217.488 M171.621,217.488
		c0-8.042-5.097-14.727-13.423-14.727c-8.326,0-13.366,6.685-13.366,14.727c0,7.986,5.04,14.669,13.366,14.669
		C166.524,232.157,171.621,225.475,171.621,217.488"/>
	<polygon clip-path="url(#SVGID_2_)" points="183.459,200.44 186.744,200.44 199.261,230.401 211.834,200.44 215.177,200.44 
		200.79,234.423 197.789,234.423 	"/>
	<polygon clip-path="url(#SVGID_2_)" points="248.06,218.734 230.615,218.734 230.615,231.423 250.892,231.423 250.892,234.423 
		227.388,234.423 227.388,200.44 250.892,200.44 250.892,203.441 230.615,203.441 230.615,215.731 248.06,215.731 	"/>
	<polygon clip-path="url(#SVGID_2_)" points="262.156,200.44 289.512,200.44 289.512,207.52 279.941,207.52 279.941,234.423 
		271.728,234.423 271.728,207.52 262.156,207.52 	"/>
	<polygon clip-path="url(#SVGID_2_)" points="324.152,220.433 310.333,220.433 310.333,227.344 326.814,227.344 326.814,234.423 
		302.119,234.423 302.119,200.44 326.814,200.44 326.814,207.52 310.333,207.52 310.333,213.978 324.152,213.978 	"/>
	<path clip-path="url(#SVGID_2_)" d="M368.127,231.024c0,0-3.625,4.19-11.61,4.19c-10.988,0-17.502-8.042-17.502-17.783
		s6.514-17.727,17.502-17.727c7.985,0,11.61,4.134,11.61,4.134l-4.701,6.288c0,0-2.266-2.551-6.797-2.551
		c-5.324,0-9.118,3.966-9.118,9.855c0,5.891,3.794,9.856,9.118,9.856c4.531,0,6.797-2.551,6.797-2.551L368.127,231.024z"/>
	<polygon clip-path="url(#SVGID_2_)" points="411.023,234.479 402.811,234.479 402.811,220.66 388.877,220.66 388.877,234.479 
		380.666,234.479 380.666,200.44 388.877,200.44 388.877,214.205 402.811,214.205 402.811,200.44 411.023,200.44 	"/>
	<path clip-path="url(#SVGID_2_)" d="M144.445,130.96V74.921c-4.294,8.149-6.608,17.692-6.608,27.948
		C137.837,113.15,140.133,122.761,144.445,130.96"/>
	<path clip-path="url(#SVGID_2_)" d="M264.134,95.911h-15.623h-7.041h-21.184v14.612h21.184h3.965v0.521
		c0,17.569-11.307,29.745-29.57,29.745c-20.874,0-34.268-16.525-34.268-37.92c0-21.57,13.742-38.268,34.79-38.268
		c17.395,0,27.136,10.263,27.136,10.263l3.148-4.128c3.508,2.191,5.356,4.128,5.356,4.128l10.089-13.22
		c0,0-6.413-7.593-20.646-11.345v3.018c-5.968-2.725-14.245-5.067-25.084-5.067c-15.276,0-27.884,5.451-36.918,14.433v-5.761
		c-9.191,6.2-15.885,15.355-19.512,26.238V67.833c-7.163,9.446-11.111,21.633-11.111,35.036c0,13.418,3.911,25.692,11.111,35.178
		v-15.359c3.609,10.877,10.272,20.051,19.512,26.216v-5.722c8.869,8.779,21.236,14.132,36.397,14.132
		c9.933,0,18.535-2.232,25.605-6.336v3.784c9.744-3.165,17.42-9.177,22.664-17.453v7.113c8.869-8.948,13.724-22.137,13.724-38.249
		V95.911h-5.653H264.134z M178.93,83.392v38.979c-2.812-5.654-4.338-12.299-4.338-19.502
		C174.592,95.689,176.123,89.055,178.93,83.392 M253.94,111.044c0,7.212-1.918,13.504-5.43,18.428v-18.949h5.43V111.044z"/>
	<path clip-path="url(#SVGID_2_)" d="M280.955,95.912v38.537c4.182-7.816,6.404-17.376,6.404-28.274V95.912H280.955z"/>
	<path clip-path="url(#SVGID_2_)" d="M263.334,55.378v16.929l8.138-10.663C271.472,61.644,268.875,58.577,263.334,55.378"/>
</g>
</svg>
