<svg id="Layer_1" data-name="Layer 1" xmlns="http://www.w3.org/2000/svg" viewBox="0 0 37.5 37.5"><defs><style>.cls-1{fill-rule:evenodd;fill:#fff;}</style></defs><title>linksArtboard 6a</title><path class="cls-1" d="M31,8.74a2.25,2.25,0,1,1-2.25-2.25A2.25,2.25,0,0,1,31,8.74ZM18.75,25a6.25,6.25,0,1,0-6.25-6.25A6.25,6.25,0,0,0,18.75,25ZM9.12,18.75a9.63,9.63,0,1,1,9.63,9.63A9.63,9.63,0,0,1,9.12,18.75ZM18.75,3.38c-5,0-5.6,0-7.58.11a10.37,10.37,0,0,0-3.48.65,5.81,5.81,0,0,0-2.16,1.4,5.81,5.81,0,0,0-1.4,2.16,10.37,10.37,0,0,0-.65,3.48c-.09,2-.11,2.57-.11,7.58s0,5.6.11,7.58a10.37,10.37,0,0,0,.65,3.48A5.81,5.81,0,0,0,5.54,32a5.81,5.81,0,0,0,2.16,1.4,10.37,10.37,0,0,0,3.48.65c2,.09,2.57.11,7.58.11s5.6,0,7.58-.11a10.37,10.37,0,0,0,3.48-.65,6.21,6.21,0,0,0,3.56-3.56A10.37,10.37,0,0,0,34,26.33c.09-2,.11-2.57.11-7.58s0-5.6-.11-7.58a10.37,10.37,0,0,0-.65-3.48A5.81,5.81,0,0,0,32,5.54a5.81,5.81,0,0,0-2.16-1.4,10.37,10.37,0,0,0-3.48-.65C24.35,3.4,23.76,3.38,18.75,3.38Zm0-3.38c5.09,0,5.73,0,7.73.11A13.76,13.76,0,0,1,31,1a9.19,9.19,0,0,1,3.32,2.16,9.19,9.19,0,0,1,2.16,3.32A13.76,13.76,0,0,1,37.39,11c.09,2,.11,2.64.11,7.73s0,5.73-.11,7.73A13.76,13.76,0,0,1,36.52,31,9.59,9.59,0,0,1,31,36.52a13.76,13.76,0,0,1-4.55.87c-2,.09-2.64.11-7.73.11s-5.73,0-7.73-.11a13.76,13.76,0,0,1-4.55-.87,9.19,9.19,0,0,1-3.32-2.16A9.19,9.19,0,0,1,1,31a13.76,13.76,0,0,1-.87-4.55C0,24.48,0,23.84,0,18.75S0,13,.11,11A13.76,13.76,0,0,1,1,6.47,9.19,9.19,0,0,1,3.15,3.15,9.19,9.19,0,0,1,6.47,1,13.76,13.76,0,0,1,11,.11C13,0,13.66,0,18.75,0Z"/></svg>