<?xml version="1.0" encoding="UTF-8"?>
<svg width="48px" height="48px" viewBox="0 0 48 48" version="1.1" xmlns="http://www.w3.org/2000/svg" xmlns:xlink="http://www.w3.org/1999/xlink">
    <!-- Generator: Sketch 53 (72520) - https://sketchapp.com -->
    <title>Whatsapp-black</title>
    <desc>Created with Sketch.</desc>
    <g id="Icons" stroke="none" stroke-width="1" fill="none" fill-rule="evenodd">
        <path d="M23.9930335,-3.55271368e-15 L23.9930335,0.000398198153 L24.0069665,0.000398198153 C37.2377485,0.000398198153 48,10.7656853 48,24.0001991 C48,37.2343147 37.2377485,48 24.0069665,48 C19.1264337,48 14.598605,46.5469749 10.8044486,44.0355392 L1.57960473,46.9837983 L4.57002579,38.0669471 C1.69266112,34.116025 0,29.2484508 0,23.9998009 C0,10.7652871 10.7622515,-3.55271368e-15 23.9930335,-3.55271368e-15 Z M17.2928502,12.1908365 C16.8274878,11.0762798 16.4747837,11.0340708 15.7697737,11.0054006 C15.5297279,10.9914636 15.2622142,10.9775267 14.9656402,10.9775267 C14.0484504,10.9775267 13.0894615,11.245514 12.5110427,11.8380329 C11.8060327,12.557577 10.0568433,14.2363804 10.0568433,17.6792016 C10.0568433,21.1220228 12.5675709,24.4517558 12.9059439,24.9176476 C13.258648,25.3827431 17.8008078,32.5503098 24.8532971,35.4714915 C30.3683787,37.7571489 32.0049097,37.5453075 33.2600745,37.2773201 C35.093658,36.8823076 37.393002,35.5272392 37.9714208,33.891043 C38.5498395,32.2540504 38.5498395,30.8571713 38.3802549,30.5609119 C38.2110684,30.2646524 37.745308,30.0958164 37.0402979,29.7426147 C36.3352878,29.3898111 32.9073704,27.6966726 32.2584904,27.4708942 C31.6235435,27.2311789 31.0172587,27.3159951 30.5379633,27.9933302 C29.8608192,28.9386526 29.1980063,29.8983101 28.6617846,30.4764939 C28.2386193,30.9280506 27.5471441,30.9845947 26.9691235,30.7444812 C26.1932541,30.4203479 24.0212976,29.6577985 21.3409854,27.2733879 C19.2673561,25.4253503 17.8569379,23.125756 17.4481037,22.434484 C17.0388714,21.729275 17.4059066,21.3195291 17.7299485,20.9388517 C18.0826526,20.5012319 18.4210256,20.1910356 18.7737296,19.7816879 C19.1264337,19.3727384 19.3238843,19.1608969 19.549599,18.6810682 C19.7896448,18.2155745 19.6200602,17.7357458 19.4508737,17.3829422 C19.2816872,17.0301386 17.871269,13.5873174 17.2928502,12.1908365 Z" id="Whatsapp" fill="#fff"></path>
    </g>
</svg>