<?xml version="1.0" encoding="UTF-8" standalone="no"?><!DOCTYPE svg PUBLIC "-//W3C//DTD SVG 1.1//EN" "http://www.w3.org/Graphics/SVG/1.1/DTD/svg11.dtd"><svg width="100%" height="100%" viewBox="0 0 690 690" version="1.1" xmlns="http://www.w3.org/2000/svg" xmlns:xlink="http://www.w3.org/1999/xlink" xml:space="preserve" style="fill-rule:evenodd;clip-rule:evenodd;stroke-linejoin:round;stroke-miterlimit:1.41421;"><g id="logo"><rect id="background" x="0" y="-1.736" width="690" height="691.736" style="fill:#f7df1e;"/><g><path id="j" d="M163.597,619.55l26.335,-15.938c5.081,9.008 9.702,16.629 20.788,16.629c10.626,0 17.326,-4.156 17.326,-20.325l0,-109.957l32.339,0l0,110.414c0,33.495 -19.634,48.741 -48.279,48.741c-25.87,0 -40.887,-13.398 -48.509,-29.567" style="fill-rule:nonzero;"/><path id="s" d="M277.95,616.084l26.332,-15.246c6.932,11.32 15.941,19.636 31.879,19.636c13.4,0 21.944,-6.699 21.944,-15.94c0,-11.088 -8.777,-15.015 -23.561,-21.481l-8.083,-3.467c-23.333,-9.931 -38.81,-22.405 -38.81,-48.739c0,-24.255 18.48,-42.736 47.355,-42.736c20.559,0 35.343,7.162 45.968,25.873l-25.179,16.169c-5.545,-9.932 -11.549,-13.858 -20.789,-13.858c-9.47,0 -15.477,6.005 -15.477,13.858c0,9.703 6.007,13.63 19.865,19.637l8.084,3.464c27.489,11.782 42.967,23.793 42.967,50.818c0,29.107 -22.869,45.045 -53.591,45.045c-30.03,0 -49.434,-14.321 -58.904,-33.033" style="fill-rule:nonzero;"/></g><g><path id="s1" d="M408.678,616.781l26.332,-15.246c6.932,11.32 15.941,19.635 31.879,19.635c13.4,0 21.944,-6.699 21.944,-15.939c0,-11.088 -8.777,-15.016 -23.561,-21.482l-8.083,-3.467c-23.333,-9.931 -38.81,-22.405 -38.81,-48.739c0,-24.255 18.48,-42.736 47.355,-42.736c20.559,0 35.343,7.162 45.968,25.873l-25.179,16.169c-5.545,-9.931 -11.549,-13.858 -20.789,-13.858c-9.471,0 -15.477,6.006 -15.477,13.858c0,9.703 6.006,13.63 19.865,19.637l8.084,3.464c27.489,11.782 42.967,23.793 42.967,50.818c0,29.108 -22.869,45.045 -53.591,45.045c-30.03,0 -49.434,-14.32 -58.904,-33.032" style="fill-rule:nonzero;"/><path d="M591.219,487.001l-55.8,0l0,162.983l35.573,0l0,-57.893l13.485,0c47.662,0 63.705,-26.272 63.705,-56.73c0,-36.038 -23.948,-48.36 -56.963,-48.36Zm-5.812,29.993c18.135,0 26.04,7.207 26.04,23.25c0,12.555 -5.115,22.785 -28.83,22.785l-11.625,0l0,-46.035l14.415,0Z" style="fill-rule:nonzero;"/></g></g></svg>