<?xml version="1.0" encoding="utf-8"?>
<!-- Generator: Adobe Illustrator 16.0.4, SVG Export Plug-In . SVG Version: 6.00 Build 0)  -->
<!DOCTYPE svg PUBLIC "-//W3C//DTD SVG 1.1//EN" "http://www.w3.org/Graphics/SVG/1.1/DTD/svg11.dtd">
<svg version="1.1" id="Camada_1" xmlns="http://www.w3.org/2000/svg" xmlns:xlink="http://www.w3.org/1999/xlink" x="0px" y="0px"
	 width="1920px" height="1920px" viewBox="0 0 1920 1920" enable-background="new 0 0 1920 1920" xml:space="preserve">
<text transform="matrix(1 0 0 1 392.7559 1605.3359)"><tspan x="0" y="0" fill="#FF6687" font-family="'Nunito-Black'" font-size="287.417">Ne</tspan><tspan x="371.336" y="0" fill="#FF6687" font-family="'Nunito-Black'" font-size="287.417" letter-spacing="-2">r</tspan><tspan x="489.174" y="0" fill="#FF6687" font-family="'Nunito-Black'" font-size="287.417">d</tspan><tspan x="668.811" y="0" fill="#FF6687" font-family="'Nunito-Black'" font-size="287.417" letter-spacing="-2">Z</tspan><tspan x="843.557" y="0" fill="#FF6687" font-family="'Nunito-Black'" font-size="287.417">ão</tspan></text>
<polygon fill="#FF6687" points="427.652,1088.402 349.782,957.686 252.569,777.039 335.671,680.888 382.71,557.059 515.986,402.635 
	632.016,386.61 820.172,207.42 953.448,272.978 1091.429,207.42 1339.167,393.895 1530.99,459.513 1594.745,664.863 
	1702.935,759.558 1635.512,931.463 1564.055,993.334 1480.04,1132.62 1223.576,1174.627 1059.97,1172.417 973.744,1149.323 
	801.294,1152.519 708.436,1161.362 558.095,1148.097 "/>
<g>
	<defs>
		<rect id="SVGID_1_" width="1920" height="1920"/>
	</defs>
	<clipPath id="SVGID_2_">
		<use xlink:href="#SVGID_1_"  overflow="visible"/>
	</clipPath>
	<path clip-path="url(#SVGID_2_)" fill="#C44167" d="M584.626,957.959c0,0,57.492,29.704,26.531,37.585
		c-121.6,30.952-254.98,20.011-353.922-86.112c-20.704-22.206-111.773-216.108,72.685-277.265
		c0-37.509,42.12-270.719,273.056-269.088c18.881-47.295,192.446-307.413,373.273-132.098
		c180.827-175.315,354.392,84.803,373.272,132.098c230.937-1.631,273.057,231.579,273.057,269.088
		c184.458,61.157,88.572,251.394,72.685,277.265c-133.687,217.694-332.4,64.003-332.4,64.003s156.297,12.13,221.857-42.575
		c36.518-30.471,68.856-69.828,72.022-121.672c8.679-142.138-181.875-81.656-257.111-70.201
		c36.311-52.187,135.802-99.481,135.802-99.481s12.346-117.421-89.325-184.285c-101.67-66.864-254.174,61.972-283.222,84.804
		c11.619-63.603,76.979-125.575,106.026-153.299c-42.245-51.621-78.381-79.304-106.753-97.85
		c-14.162-9.258-54.341-23.048-70.727-23.364c-72.837-1.405-95.011,93.489-95.011,93.489l-18.256,79.396l-22.09-79.396
		c0,0-22.175-94.894-95.012-93.489c-16.385,0.316-56.563,14.106-70.726,23.364c-28.372,18.546-64.507,46.229-106.753,97.85
		c29.049,27.724,77.913,69.358,104.444,126.842c-6.496-5.106-17.583,10.944-34.478-1.39
		c-58.654-42.821-168.228-108.868-247.162-56.957c-101.669,66.864-89.324,184.285-89.324,184.285s99.491,47.294,135.802,99.481
		c-75.237-11.455-265.79-71.937-257.112,70.201c3.166,51.844,31.017,97.579,72.023,121.672
		C367.778,930.86,467.448,1013.231,584.626,957.959"/>
	<path clip-path="url(#SVGID_2_)" fill="#C44167" d="M350.271,955.749c0,0,48.64,15.476,88.436,26.531
		c-31.661,64.119,77.381,173.677,247.621,127.248c33.163,39.796,178.49,42.489,289.627,15.477c0,0,179.083,95.068,305.104-6.633
		c0,0,274.151,60.678,240.988-138.303c-8.459-50.753,51.389,10.427,75.17-30.953c0,0,84.015,273.168-307.314,224.528
		c0,0-81.804,88.436-322.792,0c0,0-174.661,30.952-289.628-15.478C505.034,1178.065,354.734,1131.595,350.271,955.749"/>
	<path clip-path="url(#SVGID_2_)" fill="#C44167" d="M965.027,1172.135c0,0,74.55-38.057,103.638-101.055
		c0,0-57.323,49.813-128.676,63.416L965.027,1172.135z"/>
	<path clip-path="url(#SVGID_2_)" fill="#C44167" d="M676.114,1154.979c0,0,74.013-39.09,102.221-102.486
		c0,0-56.623,50.606-127.78,65.2L676.114,1154.979z"/>
	<path clip-path="url(#SVGID_2_)" fill="#C44167" d="M1209.021,720.043c0,0,136.245,55.303,176.144,130.663
		c0,0-106.492-58.126-162.127-69.223L1209.021,720.043z"/>
	<path clip-path="url(#SVGID_2_)" fill="none" stroke="#C44167" stroke-width="5" stroke-miterlimit="10" d="M1209.021,720.043
		c0,0,136.245,55.303,176.144,130.663c0,0-106.492-58.126-162.127-69.223L1209.021,720.043z"/>
	<path clip-path="url(#SVGID_2_)" fill="#C44167" d="M1265.583,1179.049c0,0,70.7-57.899,81.793-126.396
		c0,0-66.919,72.587-106.907,95.655L1265.583,1179.049z"/>
	<path clip-path="url(#SVGID_2_)" fill="#C44167" d="M894.152,535.677c0,0-190.138-132.654-258.675,57.483
		C635.477,593.16,728.335,482.615,894.152,535.677"/>
	<path clip-path="url(#SVGID_2_)" fill="none" stroke="#C44167" stroke-width="5" stroke-miterlimit="10" d="M894.152,535.677
		c0,0-190.138-132.654-258.675,57.483C635.477,593.16,728.335,482.615,894.152,535.677z"/>
	<path clip-path="url(#SVGID_2_)" fill="#C44167" d="M531.202,851.233c0,0,20.066,230.969,209.936,161.691
		C741.138,1012.925,596.768,1012.516,531.202,851.233"/>
	<path clip-path="url(#SVGID_2_)" fill="none" stroke="#C44167" stroke-width="5" stroke-miterlimit="10" d="M531.202,851.233
		c0,0,20.066,230.969,209.936,161.691C741.138,1012.925,596.768,1012.516,531.202,851.233z"/>
	<path clip-path="url(#SVGID_2_)" fill="#C44167" d="M1077.322,936.891c0,0,262.938-109.694,110.965-306.145
		C1188.287,630.746,1241.688,799.932,1077.322,936.891"/>
	<path clip-path="url(#SVGID_2_)" fill="none" stroke="#C44167" stroke-width="5" stroke-miterlimit="10" d="M1077.322,936.891
		c0,0,262.938-109.694,110.965-306.145C1188.287,630.746,1241.688,799.932,1077.322,936.891z"/>
	<path clip-path="url(#SVGID_2_)" fill="#C44167" d="M766.521,687.618c0,0-72.75,172.26,88.752,194.428
		C855.273,882.046,752.482,827.337,766.521,687.618"/>
	<path clip-path="url(#SVGID_2_)" fill="none" stroke="#C44167" stroke-width="5" stroke-miterlimit="10" d="M766.521,687.618
		c0,0-72.75,172.26,88.752,194.428C855.273,882.046,752.482,827.337,766.521,687.618z"/>
	<path clip-path="url(#SVGID_2_)" fill="#C44167" d="M1139.864,428.431c0,0-184.16,32.421-115.101,180.087
		C1024.764,608.518,1014.905,492.492,1139.864,428.431"/>
	<path clip-path="url(#SVGID_2_)" fill="none" stroke="#C44167" stroke-width="5" stroke-miterlimit="10" d="M1139.864,428.431
		c0,0-184.16,32.421-115.101,180.087C1024.764,608.518,1014.905,492.492,1139.864,428.431z"/>
	<path clip-path="url(#SVGID_2_)" d="M1569.611,646.053c0,0-107.024-15.855-276.483-6.936
		c-170.214,8.96-277.97,64.414-318.601,64.414c-40.631,0-148.387-55.454-318.601-64.414c-169.459-8.919-276.486,6.936-276.486,6.936
		s-17.341,47.074,0,64.415c13.873,13.872,41.109,45.586,67.864,158.56c26.023,109.883,95.648,148.647,245.289,143.691
		c148.568-4.92,204.141-122.884,221.98-180.359c17.838-57.477,43.597-59.956,59.954-59.956c16.354,0,42.114,2.479,59.953,59.956
		c17.838,57.475,73.412,175.439,221.98,180.359c149.641,4.956,219.265-33.808,245.288-143.691
		c26.756-112.974,53.991-144.688,67.862-158.56C1586.955,693.127,1569.611,646.053,1569.611,646.053 M815.953,920.595
		c-81.239,81.239-247.434,60.69-289.313,18.809c-61.749-61.748-74.858-191.279-33.236-232.9
		c45.599-45.602,332.971-18.829,365.674,27.75C878.735,762.25,876.896,859.651,815.953,920.595 M1422.414,939.404
		c-41.88,41.881-208.074,62.43-289.312-18.809c-60.944-60.944-62.783-158.345-43.125-186.341
		c32.7-46.579,320.072-73.352,365.675-27.75C1497.271,748.125,1484.161,877.656,1422.414,939.404"/>
	<path clip-path="url(#SVGID_2_)" fill="#FFFFFF" d="M1291.312,975.672c-38.253,0-109.628-7.201-157.857-55.43
		c-26.796-26.797-45.139-64.176-51.647-105.25c-5.276-33.298-1.828-65.628,8.579-80.45c9.614-13.693,42.438-26.684,92.429-36.582
		c46.605-9.227,101.795-14.52,151.415-14.52c62.971,0,105.967,8.317,121.068,23.419c19.62,19.619,28.051,61.189,22.002,108.485
		c-6.286,49.159-26.937,95.405-55.239,123.707C1400.5,960.613,1346.733,975.672,1291.312,975.672"/>
	<path clip-path="url(#SVGID_2_)" d="M1334.257,682.939v1c29.197,0,55.305,1.923,75.5,5.561c22.239,4.007,37.442,9.965,45.188,17.71
		c9.84,9.841,17.023,25.314,20.773,44.749c3.613,18.724,3.989,40.62,1.086,63.32c-2.962,23.166-9.261,46.383-18.212,67.141
		c-9.758,22.623-22.166,41.558-36.885,56.276c-21.476,21.476-75.096,36.476-130.395,36.476c-29.968,0-59.326-4.362-84.9-12.614
		c-29.324-9.461-53.752-23.818-72.604-42.67c-26.723-26.722-45.016-64.003-51.508-104.975c-5.258-33.178-1.844-65.361,8.494-80.084
		c9.539-13.587,42.252-26.506,92.116-36.378c46.573-9.22,101.727-14.51,151.318-14.511L1334.257,682.939 M1334.229,682.939
		c-99.194,0.004-223.42,21.64-244.253,51.314c-19.658,27.996-17.819,125.398,43.124,186.342
		c40.337,40.336,101.603,55.576,158.212,55.576c57.402,0,110.016-15.682,131.102-36.769c61.747-61.747,74.858-191.278,33.237-232.9
		C1439.102,689.955,1390.736,682.938,1334.229,682.939"/>
	<path clip-path="url(#SVGID_2_)" fill="#F0F1F1" d="M1499.371,698.281c-5.475,0-9.91-4.435-9.91-9.908
		c0-5.474,4.436-9.91,9.91-9.91h30.602c5.473,0,9.91,4.436,9.91,9.91c0,5.473-4.438,9.908-9.91,9.908H1499.371z"/>
	<path clip-path="url(#SVGID_2_)" fill="#FFFFFF" d="M657.742,975.672c-55.424-0.003-109.19-15.062-130.749-36.622
		c-28.303-28.302-48.954-74.548-55.24-123.707c-6.048-47.296,2.384-88.865,22.005-108.485c15.1-15.102,58.095-23.419,121.066-23.419
		c49.619,0,104.808,5.293,151.414,14.52c49.991,9.898,82.817,22.889,92.43,36.582c10.408,14.822,13.855,47.152,8.579,80.45
		c-6.509,41.075-24.851,78.454-51.648,105.25c-48.224,48.225-119.586,55.43-157.842,55.43H657.742z"/>
	<path clip-path="url(#SVGID_2_)" d="M614.823,683.939c49.589,0,104.742,5.289,151.318,14.51
		c49.864,9.872,82.579,22.792,92.118,36.379c10.338,14.723,13.751,46.906,8.494,80.084c-6.493,40.972-24.785,78.253-51.507,104.975
		c-18.852,18.852-43.28,33.209-72.604,42.67c-25.575,8.252-54.933,12.614-84.901,12.614c-55.299,0-108.919-15-130.394-36.476
		c-14.719-14.718-27.129-33.653-36.886-56.276c-8.952-20.758-15.249-43.975-18.212-67.141c-2.903-22.7-2.527-44.596,1.087-63.32
		c3.751-19.435,10.934-34.908,20.775-44.749c7.746-7.746,22.952-13.705,45.196-17.711
		C559.504,685.861,585.617,683.939,614.823,683.939 M614.823,682.939c-56.506,0-104.871,7.015-121.419,23.564
		c-41.623,41.622-28.514,171.153,33.236,232.9c21.085,21.087,73.699,36.769,131.101,36.769c56.609,0,117.875-15.24,158.212-55.576
		c60.943-60.944,62.782-158.346,43.124-186.342C838.243,704.58,714.017,682.939,614.823,682.939"/>
	<path clip-path="url(#SVGID_2_)" fill="#F0F1F1" d="M449.681,698.281c5.475,0,9.912-4.435,9.912-9.908
		c0-5.474-4.437-9.91-9.912-9.91h-30.602c-5.473,0-9.91,4.436-9.91,9.91c0,5.473,4.438,9.908,9.91,9.908H449.681z"/>
	<path clip-path="url(#SVGID_2_)" fill="#282828" d="M716.334,892.859h-79.913c-6.6,0-12-5.4-12-12v-79.913c0-6.599,5.4-12,12-12
		h79.913c6.6,0,12,5.401,12,12v79.913C728.334,887.459,722.935,892.859,716.334,892.859"/>
	<path clip-path="url(#SVGID_2_)" fill="#FFFFFF" d="M674.327,828.743h-79.912c-6.6,0-12-5.4-12-12v-79.912c0-6.6,5.4-12,12-12
		h79.912c6.6,0,12,5.4,12,12v79.912C686.327,823.343,680.927,828.743,674.327,828.743"/>
	<path clip-path="url(#SVGID_2_)" fill="#282828" d="M1328.754,889.421h-79.913c-6.6,0-12-5.4-12-12v-79.912c0-6.6,5.4-12,12-12
		h79.913c6.6,0,12,5.4,12,12v79.912C1340.754,884.021,1335.354,889.421,1328.754,889.421"/>
	<path clip-path="url(#SVGID_2_)" fill="#FFFFFF" d="M1286.746,825.305h-79.912c-6.6,0-12-5.4-12-12v-79.912c0-6.6,5.4-12,12-12
		h79.912c6.601,0,12,5.4,12,12v79.912C1298.746,819.905,1293.347,825.305,1286.746,825.305"/>
</g>
</svg>
