<svg id="svg" xmlns="http://www.w3.org/2000/svg" xmlns:xlink="http://www.w3.org/1999/xlink" width="400" height="400" viewBox="0, 0, 400,400"><g id="svgg"><path id="path0" d="M190.192 10.674 C 189.730 11.224,189.481 11.328,188.421 11.415 C 187.663 11.476,186.996 11.665,186.691 11.903 C 186.417 12.117,186.036 12.292,185.843 12.292 C 185.650 12.292,185.302 12.510,185.070 12.777 C 184.789 13.100,184.209 13.356,183.336 13.541 C 182.270 13.767,181.962 13.928,181.692 14.399 C 181.308 15.067,180.656 15.417,179.792 15.417 C 179.460 15.417,179.108 15.558,179.012 15.730 C 178.790 16.126,176.675 17.500,176.287 17.500 C 176.023 17.500,175.543 17.837,174.201 18.966 C 173.934 19.191,173.448 19.375,173.121 19.375 C 172.721 19.375,172.105 19.714,171.230 20.417 C 170.516 20.990,169.750 21.458,169.527 21.458 C 169.305 21.458,168.938 21.693,168.713 21.979 C 168.487 22.266,168.192 22.500,168.056 22.500 C 167.920 22.500,167.691 22.687,167.548 22.917 C 167.392 23.167,167.060 23.335,166.717 23.337 C 166.134 23.341,164.845 24.107,164.008 24.948 C 163.725 25.233,163.288 25.417,162.897 25.417 C 162.455 25.417,161.867 25.710,161.026 26.349 C 160.352 26.862,159.541 27.343,159.223 27.419 C 158.906 27.494,158.493 27.688,158.307 27.849 C 157.758 28.325,156.491 28.453,156.336 28.049 C 156.265 27.863,156.122 27.763,156.020 27.826 C 155.718 28.013,155.806 28.333,156.160 28.333 C 156.758 28.333,156.430 29.262,155.807 29.334 C 155.506 29.369,155.044 29.627,154.781 29.907 C 154.518 30.187,154.215 30.417,154.108 30.417 C 154.002 30.417,153.636 30.651,153.295 30.938 C 152.955 31.224,152.493 31.458,152.268 31.458 C 152.044 31.458,151.630 31.609,151.348 31.794 C 151.067 31.978,150.695 32.075,150.522 32.009 C 150.000 31.808,149.530 32.080,149.812 32.420 C 150.134 32.809,149.699 33.333,149.055 33.333 C 148.792 33.333,148.358 33.521,148.091 33.750 C 147.065 34.627,145.708 35.409,145.203 35.413 C 144.523 35.418,143.828 35.911,143.438 36.666 C 143.185 37.156,142.946 37.292,142.137 37.410 C 140.934 37.585,140.000 38.031,140.000 38.431 C 140.000 38.891,139.150 39.375,138.339 39.377 C 137.746 39.378,137.390 39.579,136.494 40.418 C 135.746 41.119,135.202 41.461,134.827 41.465 C 134.452 41.470,133.966 41.775,133.336 42.403 C 132.694 43.042,132.226 43.333,131.842 43.333 C 131.534 43.333,131.003 43.568,130.663 43.854 C 130.323 44.141,129.957 44.375,129.850 44.375 C 129.743 44.375,129.436 44.609,129.167 44.896 C 128.898 45.182,128.470 45.417,128.217 45.417 C 127.955 45.417,127.609 45.642,127.415 45.938 C 127.227 46.224,126.911 46.458,126.712 46.458 C 126.513 46.458,126.242 46.632,126.109 46.844 C 125.959 47.084,125.515 47.279,124.934 47.358 C 124.046 47.480,122.453 48.366,121.880 49.057 C 121.734 49.232,121.382 49.375,121.097 49.375 C 120.773 49.375,120.125 49.767,119.375 50.417 C 118.710 50.993,117.966 51.458,117.710 51.458 C 117.456 51.458,116.978 51.669,116.648 51.927 C 115.140 53.106,114.850 53.276,114.149 53.386 C 113.643 53.466,113.080 53.813,112.404 54.460 C 111.787 55.052,111.216 55.417,110.908 55.417 C 110.634 55.417,109.837 55.834,109.136 56.344 C 108.436 56.853,107.570 57.334,107.212 57.412 C 106.601 57.546,105.854 58.036,104.896 58.935 C 104.656 59.159,104.044 59.371,103.455 59.433 C 102.566 59.526,102.316 59.666,101.551 60.499 C 101.028 61.069,100.488 61.458,100.222 61.458 C 99.975 61.458,99.323 61.880,98.772 62.396 C 97.970 63.145,97.620 63.333,97.025 63.333 C 96.321 63.333,95.625 63.755,95.625 64.182 C 95.625 64.288,95.521 64.375,95.395 64.375 C 95.268 64.375,94.886 64.609,94.545 64.896 C 94.205 65.182,93.689 65.417,93.400 65.417 C 93.110 65.417,92.603 65.628,92.273 65.885 C 90.712 67.106,90.445 67.276,89.878 67.416 C 89.544 67.498,88.792 67.973,88.207 68.470 C 87.444 69.119,86.958 69.375,86.490 69.375 C 86.000 69.375,85.553 69.633,84.688 70.417 C 84.055 70.990,83.363 71.458,83.149 71.458 C 82.657 71.458,81.018 72.368,80.521 72.916 C 80.314 73.146,79.989 73.333,79.800 73.333 C 79.611 73.333,79.138 73.568,78.750 73.854 C 78.362 74.141,77.921 74.375,77.771 74.375 C 77.620 74.375,77.293 74.609,77.044 74.896 C 76.795 75.182,76.365 75.417,76.089 75.417 C 75.813 75.417,75.348 75.604,75.057 75.833 C 74.411 76.342,74.007 76.359,73.501 75.901 C 73.196 75.624,73.062 75.605,72.860 75.808 C 72.658 76.010,72.707 76.142,73.094 76.434 C 73.627 76.837,73.300 77.500,72.567 77.500 C 72.391 77.500,71.969 77.734,71.629 78.021 C 71.288 78.307,70.891 78.542,70.745 78.542 C 70.600 78.542,70.312 78.729,70.104 78.958 C 69.897 79.188,69.484 79.376,69.186 79.378 C 68.831 79.380,68.256 79.738,67.511 80.420 C 66.657 81.201,66.215 81.458,65.725 81.458 C 65.291 81.458,64.925 81.632,64.622 81.979 C 64.373 82.266,64.028 82.500,63.856 82.500 C 63.683 82.500,63.354 82.688,63.125 82.917 C 62.896 83.146,62.539 83.333,62.332 83.333 C 62.125 83.333,61.638 83.568,61.250 83.854 C 60.862 84.141,60.372 84.375,60.163 84.375 C 59.948 84.375,59.695 84.602,59.583 84.896 C 59.424 85.314,59.242 85.417,58.658 85.417 C 57.980 85.417,56.846 86.147,56.145 87.036 C 56.030 87.182,55.572 87.360,55.128 87.432 C 54.538 87.528,54.089 87.809,53.467 88.469 C 52.810 89.167,52.463 89.375,51.956 89.375 C 51.484 89.375,51.201 89.522,50.957 89.896 C 50.747 90.216,50.419 90.417,50.107 90.417 C 49.818 90.417,49.505 90.590,49.384 90.816 C 49.266 91.036,48.865 91.283,48.491 91.364 C 48.118 91.446,47.589 91.688,47.316 91.902 C 47.042 92.116,46.697 92.292,46.548 92.292 C 46.400 92.292,46.219 92.477,46.147 92.704 C 46.064 92.965,45.700 93.201,45.153 93.348 C 44.566 93.506,44.036 93.868,43.501 94.476 C 43.068 94.968,42.482 95.428,42.199 95.499 C 41.912 95.571,41.400 96.042,41.040 96.564 C 40.686 97.079,40.267 97.500,40.107 97.500 C 39.948 97.500,39.610 97.871,39.355 98.325 C 39.079 98.815,38.652 99.233,38.300 99.355 C 37.975 99.469,37.708 99.662,37.708 99.784 C 37.708 99.906,37.300 100.507,36.801 101.120 C 36.301 101.733,35.831 102.481,35.756 102.781 C 35.669 103.128,35.430 103.374,35.101 103.457 C 34.672 103.565,34.583 103.713,34.583 104.322 C 34.583 104.838,34.428 105.200,34.063 105.539 C 33.756 105.823,33.542 106.252,33.542 106.581 C 33.542 106.909,33.327 107.339,33.021 107.622 C 32.728 107.894,32.500 108.337,32.500 108.636 C 32.500 108.928,32.313 109.354,32.083 109.583 C 31.854 109.812,31.667 110.187,31.667 110.417 C 31.667 110.648,31.528 110.833,31.354 110.833 C 31.077 110.833,31.042 120.891,31.042 200.104 C 31.042 258.323,31.113 289.375,31.246 289.375 C 31.358 289.375,31.508 289.606,31.579 289.888 C 31.650 290.171,31.886 290.458,32.104 290.527 C 32.383 290.616,32.501 290.849,32.503 291.316 C 32.507 292.080,32.665 292.372,33.177 292.561 C 33.429 292.654,33.542 292.920,33.542 293.426 C 33.542 293.980,33.671 294.242,34.073 294.505 C 34.395 294.716,34.592 295.027,34.571 295.291 C 34.501 296.191,34.597 296.417,35.101 296.543 C 35.437 296.627,35.669 296.873,35.762 297.243 C 35.923 297.885,37.616 300.016,38.660 300.890 C 39.040 301.208,39.408 301.651,39.479 301.874 C 39.550 302.098,39.857 302.400,40.162 302.547 C 40.467 302.693,40.822 303.023,40.950 303.280 C 41.315 304.011,41.906 304.583,42.297 304.583 C 42.494 304.583,43.033 304.993,43.494 305.493 C 43.955 305.993,44.590 306.467,44.906 306.546 C 45.222 306.626,45.738 306.966,46.053 307.304 C 46.368 307.641,46.764 307.917,46.933 307.917 C 47.102 307.917,47.357 308.057,47.500 308.229 C 47.643 308.401,48.022 308.542,48.343 308.542 C 48.664 308.542,49.205 308.776,49.545 309.062 C 49.886 309.349,50.269 309.583,50.396 309.583 C 50.523 309.583,50.832 309.818,51.081 310.104 C 51.360 310.425,51.755 310.625,52.109 310.625 C 52.523 310.625,52.933 310.889,53.564 311.563 C 54.057 312.088,54.634 312.501,54.878 312.503 C 56.060 312.511,56.798 313.287,55.938 313.617 C 55.512 313.780,55.540 314.375,55.973 314.375 C 56.165 314.375,56.490 314.222,56.697 314.035 C 57.045 313.720,57.115 313.724,57.651 314.087 C 57.969 314.303,58.509 314.526,58.852 314.583 C 59.662 314.719,59.797 315.318,59.059 315.503 C 58.693 315.595,58.536 315.757,58.582 315.997 C 58.671 316.465,59.545 316.592,59.711 316.160 C 59.889 315.697,60.971 315.748,61.610 316.250 C 61.901 316.479,62.300 316.667,62.496 316.667 C 62.692 316.667,63.022 316.854,63.229 317.083 C 63.437 317.312,63.716 317.500,63.850 317.500 C 63.984 317.500,64.314 317.734,64.583 318.021 C 64.906 318.364,65.298 318.542,65.735 318.542 C 66.161 318.542,66.627 318.746,67.044 319.115 C 68.471 320.379,68.835 320.625,69.276 320.625 C 69.529 320.625,69.974 320.813,70.265 321.042 C 70.557 321.271,70.865 321.458,70.951 321.458 C 71.036 321.458,71.397 321.672,71.751 321.934 C 72.106 322.196,72.654 322.522,72.969 322.659 C 73.681 322.968,73.700 323.284,73.021 323.542 C 72.395 323.780,72.355 324.074,72.908 324.370 C 73.237 324.547,73.359 324.508,73.540 324.169 C 73.834 323.620,74.816 323.618,75.312 324.167 C 75.520 324.396,75.891 324.583,76.138 324.583 C 76.384 324.583,76.903 324.818,77.292 325.104 C 77.680 325.391,78.083 325.625,78.187 325.625 C 78.292 325.625,78.656 325.859,78.996 326.146 C 79.337 326.432,79.837 326.667,80.108 326.667 C 80.380 326.667,80.731 326.852,80.890 327.079 C 81.285 327.642,82.644 328.542,83.100 328.542 C 83.305 328.542,84.057 329.010,84.771 329.583 C 85.485 330.156,86.269 330.625,86.513 330.625 C 86.925 330.625,88.080 331.288,89.063 332.090 C 89.292 332.276,89.878 332.543,90.365 332.681 C 90.852 332.820,91.250 333.022,91.250 333.131 C 91.250 333.239,91.555 333.455,91.927 333.611 C 92.299 333.766,92.733 334.049,92.890 334.239 C 93.047 334.428,93.392 334.583,93.655 334.583 C 94.084 334.583,95.410 335.478,95.592 335.889 C 95.804 336.371,96.371 336.667,97.081 336.667 C 97.572 336.667,98.069 336.825,98.368 337.076 C 99.666 338.168,100.184 338.542,100.399 338.542 C 100.529 338.542,101.036 338.912,101.528 339.365 C 102.468 340.232,103.253 340.625,104.046 340.625 C 104.308 340.625,104.775 340.859,105.084 341.146 C 105.394 341.432,105.777 341.667,105.936 341.667 C 106.096 341.667,106.355 341.850,106.512 342.075 C 106.678 342.312,107.160 342.541,107.663 342.621 C 108.244 342.714,108.633 342.921,108.852 343.255 C 109.030 343.527,109.300 343.750,109.452 343.750 C 109.603 343.750,109.897 343.937,110.104 344.167 C 110.312 344.396,110.681 344.583,110.926 344.583 C 111.171 344.583,111.789 344.967,112.300 345.435 C 113.276 346.329,113.911 346.667,114.619 346.667 C 114.853 346.667,115.314 346.878,115.644 347.135 C 115.973 347.393,116.517 347.815,116.852 348.073 C 117.188 348.331,117.658 348.542,117.899 348.542 C 118.139 348.542,118.540 348.776,118.789 349.063 C 119.038 349.349,119.329 349.583,119.435 349.583 C 119.541 349.583,119.906 349.818,120.246 350.104 C 120.587 350.391,121.029 350.625,121.230 350.625 C 121.430 350.625,122.131 351.042,122.787 351.551 C 123.609 352.189,124.264 352.520,124.894 352.615 C 125.397 352.690,125.969 352.930,126.166 353.147 C 126.362 353.364,126.694 353.542,126.902 353.542 C 127.111 353.542,127.436 353.776,127.623 354.063 C 127.811 354.349,128.134 354.583,128.341 354.583 C 128.549 354.583,128.997 354.818,129.337 355.104 C 129.677 355.391,130.023 355.625,130.104 355.625 C 130.186 355.625,130.531 355.859,130.871 356.146 C 131.212 356.432,131.730 356.667,132.023 356.667 C 132.317 356.667,132.771 356.878,133.033 357.135 C 133.902 357.990,134.748 358.542,135.189 358.542 C 135.429 358.542,135.808 358.724,136.031 358.947 C 136.254 359.170,136.706 359.492,137.035 359.663 C 137.365 359.833,137.756 360.119,137.905 360.299 C 138.054 360.478,138.446 360.625,138.776 360.625 C 139.324 360.625,140.208 361.237,140.208 361.617 C 140.208 361.903,141.126 362.355,142.183 362.590 C 142.950 362.760,143.288 362.955,143.477 363.337 C 143.878 364.144,144.558 364.583,145.407 364.583 C 145.888 364.583,146.375 364.746,146.686 365.010 C 148.008 366.134,148.851 366.667,149.306 366.667 C 149.869 366.667,150.176 367.199,149.819 367.556 C 149.379 367.996,149.581 368.162,150.388 368.026 C 150.980 367.926,151.280 367.976,151.519 368.216 C 151.699 368.395,152.140 368.542,152.501 368.542 C 152.952 368.542,153.352 368.737,153.782 369.167 C 154.126 369.510,154.482 369.792,154.574 369.792 C 154.666 369.792,154.857 369.932,154.999 370.103 C 155.141 370.275,155.628 370.526,156.081 370.661 C 156.533 370.797,157.014 371.059,157.150 371.243 C 157.518 371.745,158.777 372.420,159.652 372.584 C 160.078 372.664,160.540 372.912,160.680 373.135 C 160.819 373.359,161.082 373.542,161.264 373.542 C 161.445 373.542,161.814 373.776,162.083 374.063 C 162.367 374.364,162.805 374.583,163.125 374.583 C 163.445 374.583,163.883 374.803,164.167 375.104 C 164.436 375.391,164.743 375.625,164.850 375.625 C 164.957 375.625,165.323 375.859,165.663 376.146 C 166.003 376.432,166.517 376.667,166.803 376.667 C 167.143 376.667,167.651 376.993,168.262 377.604 C 168.901 378.243,169.377 378.543,169.756 378.545 C 170.512 378.549,170.893 378.826,170.936 379.403 C 170.962 379.756,171.134 379.919,171.579 380.011 C 171.914 380.080,172.392 380.246,172.643 380.380 C 172.893 380.515,173.324 380.625,173.600 380.625 C 173.876 380.625,174.270 380.810,174.474 381.036 C 174.679 381.263,175.017 381.502,175.225 381.568 C 175.433 381.634,175.662 381.871,175.733 382.094 C 175.803 382.317,176.019 382.500,176.212 382.501 C 176.405 382.501,176.844 382.688,177.188 382.916 C 177.531 383.144,178.234 383.610,178.750 383.953 C 179.266 384.295,179.951 384.577,180.274 384.579 C 181.088 384.585,181.667 384.938,181.667 385.428 C 181.667 385.886,182.018 386.074,183.802 386.571 C 184.461 386.754,185.000 386.990,185.000 387.095 C 185.000 387.200,185.348 387.432,185.774 387.609 C 186.199 387.787,186.691 388.059,186.867 388.212 C 187.043 388.366,187.710 388.533,188.348 388.583 C 189.517 388.675,190.606 389.229,190.618 389.740 C 190.628 390.127,209.375 390.120,209.375 389.732 C 209.375 389.302,210.529 388.742,211.703 388.603 C 212.316 388.530,213.103 388.262,213.507 387.987 C 213.902 387.719,214.305 387.500,214.404 387.500 C 214.503 387.500,214.771 387.313,215.000 387.083 C 215.229 386.854,215.556 386.667,215.727 386.667 C 216.348 386.667,218.096 385.760,218.193 385.387 C 218.304 384.962,219.122 384.583,219.929 384.583 C 220.218 384.583,220.704 384.390,221.009 384.155 C 222.140 383.279,223.449 382.507,223.809 382.504 C 224.013 382.502,224.229 382.372,224.289 382.215 C 224.463 381.763,226.278 380.693,227.132 380.539 C 227.659 380.444,228.214 380.100,228.852 379.470 C 229.370 378.960,229.990 378.542,230.228 378.542 C 230.467 378.542,231.146 378.133,231.738 377.634 C 232.401 377.073,233.096 376.682,233.554 376.612 C 234.284 376.499,235.936 375.525,236.454 374.901 C 236.607 374.717,237.055 374.583,237.523 374.583 C 238.198 374.583,238.516 374.414,239.479 373.542 C 240.112 372.969,240.825 372.500,241.063 372.500 C 241.302 372.500,241.735 372.313,242.026 372.083 C 242.591 371.639,243.433 371.531,243.646 371.875 C 243.717 371.990,243.863 372.083,243.971 372.083 C 244.078 372.083,244.167 371.990,244.167 371.875 C 244.167 371.760,244.026 371.667,243.854 371.667 C 243.518 371.667,243.468 371.476,243.668 370.955 C 243.741 370.764,244.038 370.625,244.371 370.625 C 244.749 370.625,245.393 370.268,246.250 369.583 C 247.186 368.835,247.736 368.541,248.204 368.541 C 248.949 368.540,250.102 367.900,250.678 367.168 C 250.895 366.892,251.292 366.667,251.562 366.667 C 251.831 366.667,252.330 366.432,252.670 366.146 C 253.011 365.859,253.356 365.625,253.438 365.625 C 253.519 365.625,253.864 365.391,254.205 365.104 C 254.545 364.818,255.062 364.583,255.353 364.583 C 255.644 364.583,256.189 364.326,256.564 364.010 C 257.827 362.950,258.183 362.729,258.832 362.601 C 259.860 362.398,260.722 361.874,261.095 361.225 C 261.348 360.783,261.597 360.625,262.037 360.625 C 262.406 360.625,262.823 360.425,263.125 360.104 C 263.394 359.818,263.748 359.583,263.912 359.583 C 264.076 359.583,264.489 359.349,264.830 359.062 C 265.170 358.776,265.706 358.542,266.021 358.542 C 266.363 358.542,266.792 358.331,267.083 358.021 C 267.352 357.734,267.694 357.500,267.841 357.500 C 267.989 357.500,268.211 357.312,268.333 357.083 C 268.484 356.801,268.772 356.665,269.226 356.663 C 269.862 356.659,271.133 355.962,272.257 355.000 C 272.525 354.771,272.907 354.583,273.106 354.583 C 273.306 354.583,273.689 354.349,273.958 354.063 C 274.227 353.776,274.604 353.542,274.796 353.542 C 274.987 353.542,275.305 353.363,275.502 353.146 C 275.699 352.928,276.202 352.686,276.619 352.607 C 277.337 352.473,278.117 351.974,279.070 351.040 C 279.307 350.808,279.775 350.625,280.131 350.625 C 280.501 350.625,280.925 350.452,281.141 350.214 C 281.346 349.987,281.712 349.740,281.955 349.664 C 282.197 349.588,282.661 349.305,282.985 349.034 C 283.309 348.763,283.717 348.542,283.892 348.542 C 284.067 348.542,284.489 348.307,284.830 348.021 C 285.170 347.734,285.568 347.500,285.713 347.500 C 285.858 347.500,286.147 347.312,286.354 347.083 C 286.562 346.854,286.991 346.667,287.309 346.667 C 287.873 346.667,288.542 346.206,288.542 345.818 C 288.542 345.712,288.715 345.625,288.928 345.625 C 289.140 345.625,289.567 345.391,289.876 345.104 C 290.215 344.790,290.685 344.583,291.061 344.583 C 291.662 344.583,292.454 344.143,293.542 343.205 C 293.828 342.957,294.297 342.685,294.583 342.599 C 294.870 342.513,295.328 342.268,295.601 342.055 C 295.874 341.841,296.189 341.667,296.300 341.667 C 296.411 341.667,296.781 341.432,297.121 341.146 C 297.462 340.859,297.949 340.625,298.204 340.625 C 298.616 340.625,300.042 339.739,300.796 339.015 C 300.947 338.870,301.322 338.698,301.629 338.633 C 302.630 338.422,303.789 337.763,304.038 337.264 C 304.229 336.879,304.523 336.741,305.422 336.613 C 306.413 336.473,306.676 336.329,307.425 335.518 C 307.945 334.955,308.471 334.583,308.747 334.583 C 309.202 334.583,310.034 334.050,310.901 333.204 C 311.150 332.961,311.776 332.691,312.292 332.605 C 312.807 332.518,313.414 332.319,313.640 332.161 C 313.866 332.004,314.218 331.875,314.421 331.875 C 314.639 331.875,314.792 331.720,314.792 331.500 C 314.792 330.996,315.193 330.625,315.738 330.625 C 316.166 330.625,316.534 330.375,317.956 329.115 C 318.367 328.751,318.840 328.542,319.252 328.542 C 319.658 328.542,319.990 328.397,320.142 328.154 C 320.282 327.930,320.745 327.709,321.243 327.630 L 322.101 327.492 322.040 325.986 L 321.979 324.479 321.208 324.415 C 320.663 324.370,320.400 324.233,320.309 323.947 C 320.238 323.725,319.967 323.489,319.706 323.423 C 319.444 323.358,318.889 322.895,318.471 322.396 C 318.054 321.896,317.522 321.427,317.290 321.354 C 317.058 321.280,316.682 320.855,316.454 320.408 C 316.227 319.962,315.856 319.499,315.631 319.378 C 315.406 319.258,315.128 318.810,315.013 318.382 C 314.883 317.899,314.624 317.525,314.329 317.396 C 314.064 317.279,313.752 316.870,313.621 316.468 C 313.493 316.072,313.189 315.615,312.944 315.453 C 312.680 315.277,312.499 314.935,312.497 314.610 C 312.493 313.957,312.316 313.663,311.816 313.478 C 311.547 313.379,311.458 313.151,311.491 312.652 C 311.550 311.780,311.350 311.458,310.750 311.458 C 310.148 311.458,307.783 312.629,307.642 312.997 C 307.584 313.149,307.131 313.328,306.637 313.394 C 306.143 313.461,305.704 313.617,305.662 313.742 C 305.621 313.867,305.237 314.148,304.811 314.365 C 304.384 314.583,303.912 314.909,303.763 315.089 C 303.613 315.269,303.291 315.417,303.047 315.418 C 302.804 315.419,302.323 315.606,301.979 315.833 C 301.269 316.303,300.616 316.366,300.250 316.000 C 300.111 315.861,300.000 315.843,300.000 315.958 C 300.000 316.073,300.106 316.273,300.236 316.403 C 300.611 316.778,300.295 317.239,299.550 317.403 C 299.173 317.486,298.361 317.964,297.746 318.464 C 297.104 318.987,296.411 319.375,296.118 319.375 C 295.424 319.375,293.985 320.136,293.307 320.861 C 293.000 321.190,292.576 321.460,292.364 321.462 C 292.152 321.464,291.758 321.698,291.489 321.983 C 291.219 322.267,290.882 322.500,290.740 322.500 C 290.597 322.500,290.312 322.688,290.104 322.917 C 289.897 323.146,289.468 323.333,289.150 323.333 C 288.833 323.333,288.295 323.568,287.955 323.854 C 287.614 324.141,287.250 324.375,287.146 324.375 C 287.041 324.375,286.638 324.609,286.250 324.896 C 285.862 325.182,285.348 325.417,285.109 325.417 C 284.671 325.417,283.825 325.978,283.032 326.796 C 282.797 327.038,282.276 327.309,281.875 327.397 C 281.474 327.484,281.023 327.731,280.874 327.945 C 280.724 328.158,280.465 328.333,280.299 328.333 C 280.133 328.333,279.793 328.568,279.544 328.854 C 279.241 329.203,278.876 329.375,278.436 329.375 C 278.007 329.375,277.612 329.554,277.292 329.896 C 277.023 330.182,276.642 330.417,276.446 330.417 C 276.250 330.417,275.936 330.651,275.748 330.938 C 275.506 331.307,275.220 331.458,274.765 331.458 C 274.384 331.458,273.871 331.670,273.504 331.979 C 273.163 332.266,272.727 332.500,272.534 332.500 C 272.341 332.500,272.072 332.679,271.935 332.898 C 271.798 333.117,271.377 333.362,271.000 333.444 C 270.622 333.525,270.172 333.723,270.000 333.884 C 268.947 334.869,268.009 335.417,267.375 335.417 C 266.896 335.417,266.613 335.545,266.460 335.831 C 266.338 336.059,266.004 336.304,265.718 336.376 C 265.431 336.447,265.105 336.679,264.992 336.890 C 264.874 337.110,264.453 337.328,264.008 337.401 C 262.747 337.607,261.667 338.144,261.667 338.566 C 261.667 339.007,261.073 339.375,260.363 339.375 C 260.088 339.375,259.644 339.609,259.375 339.896 C 259.106 340.182,258.726 340.417,258.531 340.417 C 258.336 340.417,258.047 340.610,257.890 340.846 C 257.708 341.120,257.291 341.318,256.741 341.392 C 256.097 341.478,255.821 341.633,255.652 342.004 C 255.527 342.277,255.251 342.500,255.037 342.500 C 254.823 342.500,254.478 342.687,254.271 342.917 C 254.040 343.172,253.629 343.333,253.211 343.333 C 252.703 343.333,252.194 343.601,251.230 344.375 C 250.516 344.948,249.750 345.417,249.527 345.417 C 249.305 345.417,248.844 345.651,248.504 345.938 C 248.163 346.224,247.766 346.458,247.620 346.458 C 247.475 346.458,247.188 346.644,246.983 346.871 C 246.777 347.098,246.271 347.345,245.857 347.419 C 245.443 347.494,244.936 347.730,244.731 347.944 C 244.526 348.158,244.282 348.333,244.189 348.333 C 244.096 348.333,243.766 348.568,243.457 348.854 C 243.148 349.141,242.665 349.375,242.384 349.375 C 242.103 349.375,241.524 349.563,241.096 349.792 C 240.669 350.021,240.195 350.208,240.043 350.208 C 239.891 350.208,239.816 350.287,239.875 350.383 C 240.103 350.753,239.351 351.458,238.728 351.458 C 238.385 351.458,237.834 351.598,237.503 351.769 C 237.172 351.940,236.755 352.024,236.576 351.955 C 236.021 351.743,235.532 352.033,235.833 352.396 C 236.229 352.873,235.925 353.333,235.213 353.333 C 234.798 353.333,234.425 353.512,234.128 353.854 C 233.879 354.141,233.565 354.375,233.430 354.375 C 233.296 354.375,232.933 354.609,232.624 354.896 C 232.315 355.182,231.809 355.419,231.500 355.421 C 230.850 355.427,229.042 356.195,229.232 356.385 C 229.520 356.673,228.919 357.253,228.192 357.389 C 227.764 357.469,227.145 357.761,226.816 358.038 C 226.487 358.315,226.128 358.542,226.017 358.542 C 225.906 358.542,225.615 358.729,225.369 358.958 C 225.123 359.188,224.707 359.375,224.445 359.375 C 224.166 359.375,223.826 359.591,223.627 359.896 C 223.439 360.182,223.146 360.417,222.975 360.417 C 222.804 360.417,222.386 360.651,222.045 360.937 C 221.705 361.224,221.203 361.458,220.931 361.458 C 220.659 361.458,220.204 361.669,219.921 361.927 C 218.871 362.885,218.207 363.272,217.397 363.400 C 216.939 363.473,216.470 363.657,216.355 363.810 C 216.240 363.963,215.410 364.455,214.511 364.904 C 213.008 365.654,212.409 366.092,211.725 366.944 C 211.586 367.118,210.963 367.324,210.342 367.401 C 209.368 367.523,209.087 367.669,208.313 368.459 C 207.583 369.202,207.273 369.375,206.670 369.375 C 206.261 369.375,205.710 369.526,205.447 369.711 C 205.183 369.895,204.497 370.170,203.921 370.322 C 203.346 370.474,202.687 370.768,202.458 370.975 C 201.741 371.624,198.382 371.593,197.402 370.928 C 196.987 370.647,196.389 370.417,196.073 370.417 C 195.756 370.417,195.180 370.182,194.792 369.896 C 194.349 369.569,193.808 369.375,193.341 369.375 C 192.746 369.375,192.406 369.193,191.648 368.466 C 190.841 367.693,190.529 367.536,189.553 367.414 C 188.616 367.297,188.283 367.141,187.738 366.563 C 187.371 366.174,186.347 365.459,185.462 364.975 C 184.578 364.492,183.631 363.924,183.357 363.714 C 183.084 363.505,182.630 363.333,182.349 363.333 C 181.839 363.333,181.025 362.820,180.116 361.927 C 179.854 361.669,179.400 361.458,179.107 361.458 C 178.814 361.458,178.295 361.224,177.955 360.937 C 177.614 360.651,177.239 360.417,177.120 360.417 C 177.002 360.417,176.721 360.182,176.496 359.896 C 176.270 359.609,175.903 359.375,175.679 359.375 C 175.456 359.375,175.108 359.193,174.907 358.970 C 174.705 358.747,174.268 358.505,173.935 358.432 C 173.602 358.359,173.234 358.120,173.117 357.901 C 172.990 357.665,172.585 357.452,172.122 357.378 C 171.574 357.290,171.065 356.978,170.420 356.335 C 169.825 355.740,169.317 355.417,168.980 355.417 C 168.491 355.417,167.292 354.739,166.354 353.934 C 166.125 353.737,165.609 353.492,165.208 353.390 C 164.351 353.172,164.006 352.292,164.777 352.292 C 165.243 352.292,165.353 351.989,164.973 351.754 C 164.843 351.674,164.651 351.762,164.546 351.950 C 164.285 352.415,163.502 352.380,162.860 351.875 C 162.528 351.614,162.015 351.458,161.485 351.458 C 160.683 351.458,159.930 350.834,160.293 350.471 C 160.518 350.246,159.083 349.375,158.485 349.375 C 158.096 349.375,157.665 349.155,157.260 348.750 C 156.916 348.406,156.560 348.125,156.468 348.125 C 156.376 348.125,156.184 347.984,156.042 347.813 C 155.899 347.641,155.553 347.500,155.273 347.500 C 154.399 347.500,153.905 347.115,154.048 346.545 C 154.163 346.088,154.111 346.042,153.481 346.042 C 153.100 346.042,152.606 345.904,152.384 345.736 C 152.161 345.568,151.775 345.427,151.526 345.423 C 151.277 345.420,150.809 345.203,150.485 344.942 C 149.219 343.922,148.183 343.333,147.652 343.333 C 147.110 343.333,146.645 342.823,146.797 342.396 C 146.838 342.281,146.146 341.965,145.259 341.694 C 144.372 341.422,143.411 340.998,143.125 340.752 C 142.073 339.847,141.254 339.375,140.736 339.375 C 140.443 339.375,140.041 339.176,139.842 338.933 C 139.081 338.006,138.425 337.500,137.984 337.500 C 137.259 337.500,136.458 337.122,136.458 336.780 C 136.458 336.607,136.231 336.409,135.953 336.339 C 135.675 336.270,135.285 336.033,135.087 335.815 C 134.889 335.596,134.463 335.417,134.140 335.417 C 133.733 335.417,133.249 335.132,132.558 334.486 C 132.011 333.974,131.281 333.495,130.938 333.422 C 130.594 333.348,130.125 333.119,129.896 332.912 C 129.239 332.320,127.487 331.458,126.939 331.458 C 126.664 331.458,126.205 331.224,125.919 330.937 C 125.632 330.651,125.325 330.417,125.235 330.417 C 125.146 330.417,124.852 330.182,124.583 329.896 C 124.285 329.579,123.864 329.375,123.505 329.375 C 123.182 329.375,122.750 329.211,122.545 329.010 C 121.742 328.222,120.693 327.548,120.050 327.407 C 119.679 327.325,119.258 327.093,119.115 326.892 C 118.971 326.690,118.622 326.401,118.338 326.250 C 118.054 326.099,117.695 325.850,117.542 325.696 C 117.388 325.542,116.999 325.417,116.677 325.417 C 115.808 325.417,115.389 324.826,115.979 324.434 C 116.233 324.265,116.382 324.003,116.319 323.837 C 116.170 323.448,115.701 323.459,115.550 323.854 C 115.385 324.284,114.807 324.243,114.063 323.750 C 113.719 323.522,113.203 323.335,112.917 323.333 C 112.563 323.331,112.130 323.029,111.569 322.394 C 110.957 321.701,110.590 321.458,110.154 321.458 C 109.753 321.458,109.165 321.126,108.313 320.417 C 107.230 319.515,106.939 319.375,106.147 319.375 C 105.471 319.375,105.156 319.267,104.943 318.963 C 104.622 318.505,103.534 317.736,102.656 317.346 C 101.922 317.021,101.913 316.506,102.640 316.420 C 102.946 316.384,103.235 316.237,103.283 316.094 C 103.426 315.656,102.696 315.542,102.080 315.906 C 101.305 316.364,100.698 316.340,100.264 315.833 C 100.068 315.604,99.654 315.417,99.345 315.417 C 99.035 315.417,98.503 315.182,98.163 314.896 C 97.823 314.609,97.404 314.375,97.233 314.375 C 97.063 314.375,96.769 314.141,96.582 313.854 C 96.394 313.568,96.054 313.333,95.826 313.333 C 95.599 313.333,95.252 313.146,95.056 312.917 C 94.860 312.688,94.586 312.500,94.449 312.500 C 94.311 312.500,93.920 312.266,93.580 311.979 C 93.239 311.693,92.764 311.458,92.523 311.458 C 92.283 311.458,91.662 311.040,91.144 310.530 C 90.506 309.901,89.950 309.556,89.424 309.461 C 88.332 309.263,87.917 309.008,87.917 308.534 C 87.917 308.208,87.774 308.125,87.213 308.125 C 86.826 308.125,86.400 307.994,86.267 307.833 C 86.134 307.672,85.779 307.479,85.478 307.404 C 84.967 307.276,84.696 307.099,83.144 305.885 C 82.814 305.628,82.276 305.416,81.949 305.414 C 81.529 305.412,81.068 305.136,80.380 304.473 C 79.665 303.785,79.160 303.489,78.486 303.363 C 77.980 303.268,77.374 303.025,77.140 302.822 C 76.906 302.619,76.465 302.229,76.160 301.955 C 75.855 301.682,75.394 301.458,75.135 301.458 C 74.369 301.458,73.811 300.950,74.140 300.553 C 74.514 300.102,74.227 299.731,73.621 299.883 C 73.340 299.954,72.854 299.871,72.509 299.692 C 72.171 299.518,71.717 299.375,71.499 299.375 C 71.281 299.375,70.850 299.141,70.541 298.854 C 70.231 298.568,69.846 298.333,69.685 298.333 C 69.523 298.333,69.224 298.154,69.019 297.935 C 68.814 297.716,68.318 297.454,67.917 297.352 C 67.508 297.249,67.103 296.980,66.996 296.741 C 66.798 296.302,65.160 295.412,64.555 295.415 C 64.368 295.416,63.703 294.995,63.077 294.480 C 62.452 293.966,61.621 293.485,61.231 293.412 C 60.840 293.339,60.333 293.102,60.104 292.885 C 59.449 292.264,58.254 291.536,57.636 291.381 C 57.314 291.300,56.828 290.889,56.505 290.423 C 56.193 289.974,55.681 289.497,55.367 289.362 C 55.053 289.228,54.467 288.754,54.065 288.309 C 53.663 287.864,53.205 287.500,53.047 287.500 C 52.579 287.500,52.264 286.955,52.405 286.391 C 52.509 285.977,52.424 285.793,51.998 285.514 C 51.667 285.297,51.458 284.968,51.458 284.664 C 51.458 284.390,51.271 283.979,51.042 283.750 C 50.787 283.495,50.625 283.056,50.625 282.619 C 50.625 282.226,50.468 281.748,50.276 281.556 C 49.622 280.902,49.608 279.203,49.596 200.081 C 49.584 122.232,49.609 118.912,50.227 118.530 C 50.348 118.455,50.501 117.997,50.566 117.512 C 50.631 117.027,50.812 116.582,50.969 116.522 C 51.125 116.462,51.310 116.052,51.380 115.612 C 51.451 115.171,51.685 114.651,51.900 114.456 C 52.115 114.262,52.292 113.854,52.292 113.551 C 52.292 112.913,52.633 112.500,53.162 112.500 C 53.377 112.500,53.694 112.184,53.920 111.743 C 54.178 111.241,54.615 110.837,55.218 110.545 C 55.735 110.294,56.272 109.834,56.464 109.479 C 56.649 109.135,57.075 108.755,57.411 108.635 C 58.299 108.315,59.387 107.669,59.882 107.166 C 60.119 106.925,60.655 106.665,61.073 106.588 C 62.189 106.382,63.127 105.854,63.331 105.319 C 63.511 104.845,63.933 104.583,64.519 104.583 C 65.124 104.583,66.807 103.678,66.997 103.251 C 67.104 103.011,67.523 102.728,67.948 102.609 C 68.366 102.492,68.889 102.232,69.110 102.031 C 69.331 101.831,69.608 101.667,69.726 101.667 C 69.843 101.667,70.192 101.432,70.501 101.146 C 70.810 100.859,71.250 100.625,71.479 100.625 C 71.708 100.625,72.181 100.478,72.529 100.297 C 72.878 100.117,73.307 100.025,73.483 100.093 C 73.912 100.258,74.381 99.841,74.225 99.434 C 74.078 99.051,74.679 98.542,75.278 98.542 C 75.502 98.542,75.883 98.350,76.124 98.117 C 77.187 97.087,77.802 96.667,78.246 96.667 C 79.043 96.667,79.651 96.340,80.522 95.441 C 81.112 94.833,81.526 94.584,81.946 94.584 C 82.272 94.583,82.787 94.391,83.092 94.155 C 84.847 92.800,85.295 92.500,85.569 92.500 C 85.735 92.500,86.110 92.313,86.401 92.083 C 86.693 91.854,87.106 91.667,87.320 91.667 C 87.533 91.667,87.708 91.580,87.708 91.473 C 87.708 91.103,88.367 90.625,88.877 90.625 C 89.645 90.625,91.033 89.842,91.242 89.291 C 91.441 88.768,91.847 88.542,92.585 88.542 C 92.842 88.542,93.273 88.307,93.542 88.021 C 93.811 87.734,94.181 87.500,94.365 87.500 C 94.549 87.500,94.860 87.313,95.056 87.083 C 95.252 86.854,95.558 86.667,95.736 86.667 C 95.914 86.667,96.623 86.198,97.312 85.625 C 98.175 84.906,98.749 84.583,99.163 84.583 C 99.492 84.583,99.924 84.421,100.122 84.223 C 100.335 84.010,100.801 83.864,101.263 83.864 C 101.964 83.864,102.041 83.811,102.012 83.349 C 101.987 82.951,102.121 82.784,102.601 82.615 C 102.943 82.494,103.388 82.232,103.590 82.031 C 103.793 81.831,104.088 81.667,104.247 81.667 C 104.406 81.667,104.689 81.432,104.877 81.146 C 105.147 80.733,105.392 80.625,106.055 80.625 C 106.842 80.625,108.826 79.470,109.268 78.755 C 109.340 78.637,109.685 78.542,110.033 78.542 C 110.504 78.542,110.911 78.301,111.618 77.604 C 112.272 76.959,112.744 76.667,113.131 76.667 C 113.441 76.667,113.917 76.492,114.191 76.279 C 114.464 76.065,114.876 75.832,115.106 75.760 C 115.336 75.688,115.617 75.417,115.731 75.158 C 115.874 74.832,116.149 74.667,116.626 74.621 C 117.366 74.550,118.647 73.781,119.098 73.137 C 119.251 72.919,119.679 72.675,120.050 72.593 C 120.693 72.452,121.742 71.778,122.545 70.990 C 122.750 70.789,123.182 70.625,123.505 70.625 C 123.864 70.625,124.285 70.421,124.583 70.104 C 124.852 69.818,125.146 69.583,125.235 69.583 C 125.325 69.583,125.632 69.349,125.919 69.063 C 126.205 68.776,126.664 68.542,126.939 68.542 C 127.487 68.542,129.239 67.680,129.896 67.088 C 130.125 66.881,130.594 66.652,130.938 66.578 C 131.281 66.505,132.011 66.026,132.558 65.514 C 133.211 64.904,133.741 64.583,134.098 64.583 C 134.443 64.583,135.050 64.235,135.754 63.633 C 136.415 63.069,137.152 62.637,137.570 62.569 C 138.000 62.500,138.665 62.100,139.284 61.540 C 139.840 61.037,140.458 60.625,140.657 60.625 C 141.177 60.625,142.933 59.653,143.263 59.182 C 143.416 58.963,143.830 58.720,144.181 58.643 C 144.532 58.566,145.071 58.371,145.379 58.211 C 145.686 58.050,146.158 57.919,146.429 57.918 C 146.796 57.917,146.887 57.832,146.790 57.578 C 146.608 57.105,147.033 56.667,147.671 56.667 C 147.965 56.667,148.563 56.432,148.999 56.146 C 149.435 55.859,150.148 55.391,150.584 55.104 C 151.020 54.818,151.524 54.583,151.704 54.583 C 151.885 54.583,152.149 54.443,152.292 54.271 C 152.587 53.915,153.245 53.855,153.438 54.167 C 153.608 54.442,154.314 54.434,154.487 54.154 C 154.563 54.032,154.465 53.756,154.271 53.542 C 153.820 53.043,154.002 52.758,154.875 52.594 C 155.263 52.522,156.033 52.058,156.620 51.545 C 157.355 50.902,157.857 50.625,158.287 50.625 C 159.010 50.625,159.877 50.002,160.256 49.209 C 160.480 48.740,160.698 48.626,161.564 48.527 C 163.322 48.325,164.442 47.936,164.178 47.618 C 163.794 47.155,164.149 46.667,164.872 46.667 C 165.333 46.667,165.970 46.352,166.979 45.625 C 167.775 45.052,168.637 44.583,168.895 44.583 C 169.171 44.583,169.738 44.209,170.272 43.676 C 170.883 43.065,171.435 42.720,171.963 42.621 C 172.424 42.535,173.213 42.093,173.881 41.550 C 174.505 41.041,175.231 40.625,175.493 40.625 C 175.755 40.625,176.189 40.391,176.458 40.104 C 176.727 39.818,177.056 39.583,177.188 39.583 C 177.319 39.583,177.648 39.349,177.917 39.063 C 178.225 38.734,178.634 38.542,179.023 38.542 C 179.382 38.542,179.839 38.346,180.116 38.073 C 181.028 37.176,181.776 36.731,182.585 36.603 C 183.032 36.532,183.642 36.252,183.939 35.981 C 184.236 35.710,185.025 35.215,185.693 34.880 C 186.360 34.545,187.243 33.928,187.655 33.508 C 188.213 32.939,188.642 32.709,189.348 32.604 C 190.270 32.465,191.001 32.044,191.967 31.094 C 192.275 30.791,192.697 30.625,193.160 30.625 C 193.598 30.625,194.152 30.422,194.583 30.104 C 194.972 29.818,195.515 29.583,195.792 29.583 C 196.068 29.583,196.573 29.349,196.913 29.063 C 197.832 28.289,202.137 28.267,203.057 29.030 C 203.381 29.299,203.958 29.579,204.340 29.653 C 204.722 29.727,205.273 29.976,205.566 30.207 C 205.874 30.449,206.412 30.625,206.844 30.625 C 207.308 30.625,207.749 30.782,208.014 31.040 C 209.011 32.018,209.745 32.457,210.625 32.601 C 211.286 32.709,211.778 32.967,212.295 33.475 C 212.698 33.871,213.710 34.560,214.545 35.008 C 215.380 35.455,216.306 36.011,216.602 36.244 C 216.897 36.476,217.325 36.667,217.551 36.667 C 218.042 36.667,219.930 37.851,220.086 38.257 C 220.146 38.413,220.472 38.542,220.811 38.542 C 221.163 38.542,221.691 38.764,222.045 39.062 C 222.386 39.349,222.813 39.583,222.994 39.583 C 223.175 39.583,223.477 39.818,223.665 40.104 C 223.853 40.391,224.197 40.625,224.429 40.625 C 224.887 40.625,227.083 41.994,227.083 42.280 C 227.083 42.375,227.434 42.519,227.863 42.600 C 228.368 42.695,228.989 43.070,229.625 43.665 C 230.336 44.329,230.780 44.583,231.234 44.583 C 231.618 44.583,232.126 44.809,232.545 45.165 C 233.620 46.080,234.420 46.529,235.199 46.657 C 235.720 46.742,235.951 46.904,236.033 47.241 C 236.180 47.849,237.494 48.542,238.499 48.542 C 239.364 48.542,239.792 48.832,239.792 49.420 C 239.792 49.896,240.960 50.623,241.728 50.624 C 242.129 50.625,242.620 50.915,243.312 51.563 C 243.875 52.089,244.516 52.500,244.775 52.500 C 245.599 52.500,246.092 52.896,245.953 53.448 C 245.839 53.905,245.888 53.944,246.559 53.918 C 246.981 53.903,247.450 54.037,247.671 54.237 C 247.881 54.428,248.234 54.583,248.454 54.584 C 248.674 54.584,249.127 54.818,249.459 55.104 C 249.792 55.391,250.186 55.625,250.333 55.625 C 250.481 55.625,250.735 55.816,250.899 56.050 C 251.073 56.299,251.534 56.528,252.005 56.600 C 253.016 56.756,253.378 57.032,253.220 57.529 C 253.130 57.812,253.202 57.917,253.484 57.917 C 253.905 57.917,255.758 58.538,256.233 58.839 C 256.470 58.989,256.416 59.115,255.956 59.482 C 255.410 59.917,255.401 59.954,255.751 60.304 C 256.101 60.654,256.135 60.646,256.514 60.127 C 257.011 59.444,257.530 59.438,258.249 60.104 C 258.558 60.391,259.032 60.625,259.301 60.625 C 259.571 60.625,259.959 60.789,260.163 60.990 C 260.965 61.777,262.015 62.452,262.656 62.593 C 263.026 62.674,263.496 62.944,263.701 63.193 C 264.299 63.920,265.358 64.583,265.918 64.583 C 266.204 64.583,266.700 64.820,267.021 65.108 C 267.342 65.397,267.792 65.804,268.021 66.013 C 268.250 66.221,268.719 66.461,269.063 66.545 C 269.406 66.629,269.876 66.874,270.107 67.089 C 270.338 67.304,270.870 67.624,271.291 67.799 C 271.711 67.975,272.114 68.214,272.186 68.330 C 272.257 68.446,272.596 68.542,272.939 68.542 C 273.335 68.542,273.737 68.731,274.044 69.063 C 274.310 69.349,274.664 69.583,274.831 69.583 C 274.999 69.583,275.356 69.818,275.625 70.104 C 275.894 70.391,276.291 70.625,276.506 70.625 C 276.722 70.625,277.151 70.893,277.460 71.220 C 278.086 71.884,279.029 72.391,280.050 72.614 C 280.424 72.696,280.933 72.962,281.182 73.204 C 282.093 74.093,282.891 74.583,283.425 74.583 C 284.094 74.583,284.332 75.097,283.890 75.585 C 283.394 76.134,283.787 76.678,284.327 76.190 C 284.835 75.729,285.170 75.742,285.938 76.250 C 286.281 76.478,286.797 76.667,287.083 76.671 C 287.405 76.676,287.987 77.035,288.607 77.610 C 289.316 78.269,289.786 78.542,290.214 78.542 C 290.592 78.542,291.076 78.774,291.503 79.159 C 292.940 80.456,293.207 80.625,293.812 80.625 C 294.426 80.625,296.667 81.924,296.667 82.280 C 296.667 82.375,297.000 82.516,297.407 82.592 C 298.240 82.749,298.585 83.280,298.049 83.580 C 297.554 83.857,297.840 84.222,298.342 83.954 C 298.811 83.703,299.672 83.876,300.017 84.291 C 300.150 84.452,300.574 84.583,300.958 84.583 C 301.474 84.583,301.747 84.720,301.998 85.104 C 302.186 85.391,302.511 85.625,302.720 85.625 C 302.930 85.625,303.233 85.812,303.393 86.041 C 303.553 86.270,303.980 86.560,304.342 86.686 C 304.704 86.813,305.000 86.999,305.000 87.101 C 305.000 87.203,305.305 87.413,305.677 87.569 C 306.049 87.725,306.483 88.007,306.640 88.197 C 306.797 88.387,307.155 88.542,307.435 88.542 C 308.150 88.542,308.750 88.907,308.750 89.341 C 308.750 89.792,310.373 90.625,311.251 90.625 C 311.676 90.625,311.970 90.785,312.207 91.146 C 312.394 91.432,312.721 91.667,312.933 91.667 C 313.144 91.667,313.485 91.841,313.690 92.054 C 313.895 92.267,314.304 92.499,314.600 92.570 C 314.895 92.640,315.392 92.935,315.704 93.224 C 316.016 93.513,316.346 93.750,316.437 93.750 C 316.528 93.750,316.819 93.938,317.083 94.167 C 317.348 94.396,317.825 94.583,318.145 94.583 C 318.464 94.583,318.786 94.681,318.860 94.801 C 319.297 95.508,321.131 96.667,321.813 96.667 C 322.406 96.667,322.722 96.846,323.470 97.604 C 324.005 98.146,324.588 98.543,324.853 98.545 C 325.648 98.550,325.893 98.839,325.730 99.579 L 325.582 100.252 326.385 100.117 C 326.951 100.021,327.310 100.074,327.604 100.297 C 327.833 100.470,328.227 100.615,328.479 100.618 C 328.731 100.622,329.190 100.859,329.499 101.146 C 329.808 101.432,330.173 101.667,330.311 101.667 C 330.448 101.667,330.722 101.845,330.919 102.063 C 331.116 102.281,331.601 102.520,331.997 102.594 C 332.394 102.668,332.832 102.912,332.972 103.136 C 333.246 103.574,334.948 104.473,335.893 104.677 C 336.224 104.749,336.570 105.017,336.701 105.304 C 336.918 105.780,338.560 106.667,339.225 106.667 C 339.387 106.667,339.688 106.854,339.896 107.083 C 340.103 107.312,340.386 107.500,340.525 107.500 C 340.664 107.500,341.044 107.711,341.370 107.969 C 341.696 108.227,342.241 108.531,342.581 108.646 C 342.921 108.760,343.351 109.135,343.537 109.479 C 343.723 109.823,344.227 110.278,344.657 110.492 C 345.088 110.705,345.670 111.244,345.952 111.689 C 346.248 112.159,346.627 112.500,346.852 112.500 C 347.388 112.500,347.770 113.019,347.608 113.529 C 347.513 113.830,347.629 114.098,348.008 114.449 C 348.301 114.721,348.542 115.144,348.542 115.388 C 348.542 115.633,348.729 116.021,348.958 116.250 C 349.228 116.520,349.375 116.944,349.375 117.454 C 349.375 117.971,349.512 118.358,349.773 118.582 C 350.467 119.176,350.484 120.721,350.292 164.583 C 350.076 213.818,350.064 226.780,350.208 258.438 L 350.313 281.354 349.844 282.332 C 349.553 282.940,349.375 283.701,349.375 284.341 C 349.375 285.065,349.282 285.408,349.063 285.492 C 348.870 285.566,348.750 285.882,348.750 286.315 C 348.750 286.765,348.562 287.237,348.229 287.624 C 347.943 287.957,347.709 288.388,347.709 288.583 C 347.708 288.778,347.466 289.198,347.170 289.517 C 346.875 289.837,346.479 290.357,346.292 290.674 C 346.105 290.991,345.761 291.306,345.528 291.374 C 345.295 291.441,344.705 291.684,344.217 291.914 C 343.192 292.395,339.636 292.283,338.860 291.744 C 338.634 291.587,338.189 291.458,337.870 291.458 C 337.251 291.458,336.361 290.742,336.567 290.409 C 336.635 290.299,336.601 290.208,336.491 290.208 C 336.305 290.208,335.652 289.568,333.558 287.332 C 333.096 286.838,332.621 286.076,332.503 285.637 C 332.385 285.199,332.149 284.724,331.978 284.582 C 331.807 284.440,331.667 284.218,331.666 284.089 C 331.666 283.960,331.429 283.579,331.140 283.242 C 330.850 282.905,330.556 282.390,330.487 282.096 C 330.418 281.803,330.236 281.418,330.084 281.242 C 329.932 281.066,329.662 280.574,329.484 280.149 C 329.307 279.723,329.022 279.375,328.851 279.375 C 328.524 279.375,328.474 279.204,328.535 278.282 C 328.564 277.845,328.450 277.663,328.050 277.511 C 327.638 277.354,327.512 277.143,327.461 276.521 C 327.413 275.936,327.273 275.675,326.927 275.524 C 326.494 275.334,326.365 275.052,326.437 274.452 C 326.452 274.323,326.231 273.995,325.944 273.723 C 325.601 273.398,325.423 273.000,325.420 272.557 C 325.418 272.072,325.271 271.789,324.896 271.543 C 324.531 271.304,324.375 271.014,324.375 270.573 C 324.375 270.167,324.187 269.770,323.846 269.453 C 323.417 269.056,323.358 268.886,323.533 268.557 C 323.845 267.975,323.819 267.919,323.116 267.674 C 322.648 267.511,322.327 267.146,321.887 266.279 C 321.560 265.633,321.103 264.888,320.872 264.624 C 320.640 264.358,320.388 263.670,320.306 263.081 C 320.193 262.258,320.006 261.872,319.480 261.374 C 319.105 261.019,318.738 260.467,318.664 260.147 C 318.590 259.827,318.368 259.506,318.171 259.433 C 317.677 259.251,317.507 258.954,317.503 258.267 C 317.501 257.945,317.266 257.373,316.979 256.998 C 316.693 256.622,316.458 256.157,316.458 255.965 C 316.458 255.772,316.224 255.526,315.938 255.417 C 315.505 255.252,315.417 255.081,315.417 254.404 C 315.417 253.765,315.327 253.567,315.000 253.481 C 314.700 253.403,314.583 253.197,314.583 252.745 C 314.583 251.854,314.389 251.458,313.950 251.458 C 313.561 251.458,313.212 250.781,313.425 250.437 C 313.627 250.110,313.299 249.560,312.784 249.364 C 312.452 249.238,312.292 249.011,312.292 248.668 C 312.292 247.959,312.087 247.500,311.771 247.500 C 311.624 247.500,311.442 247.253,311.366 246.952 C 311.290 246.651,310.811 245.692,310.302 244.821 C 309.792 243.950,309.375 243.130,309.375 242.999 C 309.375 242.867,309.235 242.643,309.063 242.501 C 308.892 242.359,308.641 241.873,308.506 241.421 C 308.371 240.970,308.101 240.516,307.908 240.412 C 307.521 240.205,307.244 239.324,307.114 237.889 C 307.097 237.702,306.913 237.504,306.705 237.450 C 306.464 237.387,305.802 236.284,304.882 234.410 C 303.852 232.313,303.333 231.467,303.073 231.464 C 302.700 231.458,302.670 231.381,302.628 230.338 C 302.614 229.972,302.441 229.647,302.188 229.504 C 301.590 229.170,301.465 228.941,301.462 228.177 C 301.459 227.640,301.372 227.500,301.042 227.500 C 300.579 227.500,300.585 227.513,300.521 226.379 C 300.493 225.882,300.343 225.496,300.133 225.379 C 299.866 225.229,299.819 225.005,299.922 224.364 C 300.039 223.632,300.007 223.542,299.627 223.542 C 298.769 223.542,298.542 223.317,298.542 222.473 C 298.542 221.794,298.454 221.623,298.021 221.458 C 297.628 221.309,297.500 221.110,297.500 220.645 C 297.500 220.076,297.053 219.375,296.690 219.375 C 296.605 219.375,296.260 218.789,295.924 218.073 C 295.588 217.357,295.175 216.664,295.008 216.533 C 294.658 216.259,295.027 215.625,295.536 215.625 C 295.688 215.625,295.888 215.498,295.979 215.343 C 296.268 214.853,297.021 214.583,298.096 214.583 C 298.689 214.583,299.257 214.463,299.417 214.304 C 299.835 213.885,300.547 213.542,300.996 213.542 C 301.215 213.542,301.556 213.362,301.755 213.142 C 301.967 212.908,302.540 212.685,303.142 212.602 C 303.705 212.524,304.167 212.378,304.167 212.276 C 304.167 212.175,304.525 211.909,304.962 211.686 C 305.399 211.463,305.879 211.133,306.029 210.953 C 306.179 210.772,306.489 210.625,306.720 210.625 C 307.239 210.625,308.351 209.950,309.153 209.148 C 309.527 208.774,309.978 208.542,310.329 208.542 C 310.758 208.542,311.259 208.180,312.349 207.083 C 313.146 206.281,313.922 205.625,314.073 205.625 C 314.224 205.625,314.399 205.461,314.463 205.260 C 314.711 204.485,316.027 203.672,316.436 204.043 C 316.638 204.225,316.913 204.375,317.048 204.375 C 317.419 204.375,317.339 203.728,316.927 203.408 C 316.531 203.100,317.005 202.500,317.644 202.500 C 317.794 202.500,317.917 202.413,317.917 202.307 C 317.917 202.200,318.242 201.769,318.639 201.347 C 319.036 200.926,319.601 200.171,319.895 199.670 C 320.189 199.168,320.613 198.659,320.837 198.539 C 321.062 198.419,321.301 198.099,321.369 197.826 C 321.438 197.554,321.728 197.111,322.015 196.843 C 322.302 196.574,322.672 196.030,322.838 195.633 C 323.004 195.237,323.324 194.741,323.549 194.532 C 323.774 194.322,323.960 193.943,323.963 193.690 C 323.966 193.436,324.151 192.995,324.375 192.708 C 324.599 192.422,324.784 192.023,324.787 191.823 C 324.790 191.622,324.932 191.458,325.104 191.458 C 325.276 191.458,325.423 191.341,325.430 191.198 C 325.502 189.795,325.886 188.542,326.245 188.542 C 326.362 188.542,326.458 188.120,326.458 187.604 C 326.458 187.089,326.545 186.667,326.652 186.667 C 327.193 186.667,327.500 185.963,327.500 184.722 C 327.500 183.793,327.626 183.199,327.951 182.601 C 328.332 181.900,328.427 181.268,328.561 178.542 C 328.648 176.766,328.865 174.703,329.044 173.958 C 329.506 172.033,329.469 168.174,328.958 165.104 C 328.720 163.667,328.543 161.629,328.543 160.313 C 328.544 158.163,328.292 156.779,327.683 155.576 C 327.582 155.377,327.500 154.838,327.500 154.378 C 327.500 153.918,327.410 153.542,327.299 153.542 C 326.960 153.542,326.638 152.727,326.450 151.398 C 326.350 150.694,326.081 149.874,325.844 149.553 C 325.609 149.235,325.417 148.779,325.417 148.540 C 325.417 148.301,325.182 147.888,324.896 147.622 C 324.609 147.357,324.375 146.958,324.375 146.735 C 324.375 146.513,324.141 146.013,323.854 145.625 C 323.568 145.237,323.330 144.773,323.327 144.595 C 323.317 144.113,322.850 143.585,322.223 143.347 C 321.842 143.202,321.667 142.984,321.667 142.656 C 321.667 142.384,321.396 141.939,321.042 141.628 C 320.566 141.211,320.417 140.901,320.417 140.335 C 320.417 139.696,320.336 139.572,319.844 139.455 C 319.115 139.282,318.642 138.871,318.345 138.153 C 318.216 137.841,317.840 137.484,317.511 137.360 C 317.181 137.235,316.676 136.760,316.388 136.304 C 316.021 135.722,315.672 135.437,315.219 135.346 C 314.569 135.216,314.507 135.136,314.291 134.143 C 314.190 133.678,314.032 133.580,313.203 133.466 C 312.463 133.365,311.972 133.111,311.135 132.396 C 310.505 131.858,309.828 131.458,309.544 131.458 C 308.954 131.458,308.069 130.884,308.238 130.611 C 308.304 130.504,308.571 130.417,308.832 130.417 C 309.412 130.417,309.590 130.259,309.443 129.875 C 309.278 129.446,308.585 129.520,308.285 130.000 C 307.929 130.570,307.106 130.525,306.374 129.896 C 305.987 129.563,305.515 129.375,305.065 129.375 C 304.289 129.375,303.961 128.936,304.370 128.444 C 304.782 127.947,304.464 127.776,302.871 127.637 C 299.322 127.328,298.627 127.212,298.125 126.843 C 297.839 126.633,297.046 126.358,296.363 126.233 C 295.680 126.107,294.933 125.872,294.702 125.711 C 294.447 125.532,293.759 125.417,292.946 125.417 C 290.996 125.417,288.974 125.001,288.733 124.551 C 288.556 124.221,288.242 124.185,285.882 124.225 C 283.672 124.263,283.038 124.201,282.083 123.854 C 280.627 123.324,221.525 123.183,221.000 123.708 C 220.728 123.980,220.584 279.118,220.852 282.838 C 220.922 283.807,221.076 284.439,221.294 284.657 C 221.479 284.842,221.661 285.082,221.700 285.192 C 221.744 285.315,225.782 285.409,232.217 285.435 L 242.664 285.478 243.467 284.990 C 243.909 284.721,244.340 284.402,244.425 284.282 C 244.510 284.161,244.578 269.409,244.576 251.499 C 244.575 233.589,244.628 218.847,244.695 218.738 C 244.769 218.618,249.850 218.542,257.721 218.542 C 272.326 218.542,271.458 218.439,271.458 220.171 C 271.458 220.760,271.594 221.084,271.979 221.419 C 272.318 221.714,272.500 222.090,272.500 222.497 C 272.500 222.900,272.650 223.214,272.923 223.384 C 273.156 223.528,273.642 224.255,274.002 225.000 C 274.362 225.745,274.750 226.417,274.864 226.493 C 274.978 226.569,275.126 227.034,275.192 227.525 C 275.291 228.260,275.405 228.441,275.832 228.542 C 276.133 228.612,276.378 228.836,276.413 229.072 C 276.571 230.117,276.695 230.398,277.054 230.512 C 277.464 230.642,278.195 232.217,277.996 232.541 C 277.857 232.765,278.705 234.103,279.469 234.867 C 279.761 235.159,280.000 235.542,280.000 235.719 C 280.000 235.896,280.321 236.396,280.714 236.831 C 281.107 237.266,281.496 237.899,281.577 238.238 C 281.809 239.198,282.678 240.569,283.132 240.687 C 283.443 240.768,283.542 240.973,283.542 241.536 C 283.542 242.073,283.661 242.341,283.974 242.508 C 284.341 242.705,284.386 242.863,284.268 243.557 C 284.140 244.319,284.164 244.375,284.628 244.375 C 285.255 244.375,285.625 244.738,285.625 245.354 C 285.625 245.618,285.789 246.005,285.990 246.215 C 287.230 247.514,287.367 247.751,287.518 248.860 C 287.651 249.839,287.805 250.142,288.525 250.841 C 288.992 251.295,289.375 251.796,289.375 251.955 C 289.375 252.114,289.609 252.397,289.896 252.585 C 290.248 252.816,290.417 253.117,290.417 253.516 C 290.417 253.856,290.637 254.344,290.938 254.668 C 291.224 254.977,291.458 255.461,291.458 255.744 C 291.458 256.091,291.628 256.336,291.979 256.496 C 292.345 256.663,292.500 256.899,292.500 257.289 C 292.500 257.612,292.718 258.049,293.021 258.333 C 293.332 258.626,293.542 259.054,293.542 259.396 C 293.542 259.927,293.900 260.489,294.345 260.658 C 294.448 260.697,294.828 261.319,295.190 262.041 C 295.552 262.762,295.986 263.405,296.154 263.469 C 296.321 263.534,296.458 263.698,296.458 263.834 C 296.458 264.052,297.117 265.398,298.200 267.396 C 298.387 267.740,298.540 268.138,298.540 268.281 C 298.541 268.424,298.719 268.542,298.936 268.542 C 299.372 268.542,299.633 269.004,299.457 269.463 C 299.306 269.856,299.730 270.625,300.097 270.625 C 300.398 270.625,300.753 271.400,300.547 271.606 C 300.355 271.797,300.826 272.500,301.146 272.500 C 301.515 272.500,301.912 273.203,301.763 273.592 C 301.702 273.751,301.887 274.156,302.175 274.493 C 302.462 274.829,302.820 275.247,302.969 275.422 C 303.117 275.596,303.358 276.135,303.503 276.620 C 303.648 277.104,303.853 277.500,303.959 277.500 C 304.064 277.500,304.251 277.872,304.373 278.326 C 304.495 278.780,304.766 279.272,304.975 279.419 C 305.345 279.681,306.458 281.583,306.458 281.954 C 306.458 282.056,306.693 282.357,306.979 282.622 C 307.317 282.935,307.500 283.330,307.500 283.745 C 307.500 284.236,307.621 284.431,308.021 284.583 C 308.444 284.744,308.542 284.923,308.542 285.535 C 308.542 286.075,308.645 286.319,308.906 286.393 C 309.429 286.542,311.042 289.095,311.042 289.774 C 311.042 290.109,311.252 290.541,311.551 290.823 C 311.832 291.086,312.090 291.500,312.124 291.743 C 312.159 291.985,312.445 292.307,312.760 292.457 C 313.147 292.642,313.333 292.892,313.333 293.223 C 313.333 293.989,313.555 294.390,314.091 294.594 C 314.409 294.715,314.583 294.949,314.584 295.255 C 314.584 295.516,314.827 296.010,315.125 296.354 C 315.422 296.698,315.889 297.417,316.162 297.953 C 316.845 299.294,317.638 300.432,318.129 300.777 C 318.386 300.956,318.542 301.304,318.542 301.698 C 318.542 302.155,318.657 302.361,318.958 302.440 C 319.398 302.555,319.414 302.596,319.454 303.750 C 319.474 304.343,319.569 304.492,319.959 304.547 C 320.223 304.585,320.518 304.823,320.615 305.077 C 320.711 305.330,320.940 305.663,321.124 305.815 C 321.308 305.968,321.458 306.365,321.458 306.697 C 321.458 307.145,321.589 307.352,321.961 307.493 C 322.238 307.598,322.526 307.877,322.600 308.113 C 322.675 308.349,322.869 308.542,323.032 308.542 C 323.195 308.542,323.456 308.846,323.612 309.219 C 324.091 310.362,326.065 312.485,326.772 312.618 C 327.126 312.685,327.800 313.136,328.324 313.659 C 329.083 314.417,329.387 314.583,330.016 314.583 C 331.076 314.583,331.513 315.113,330.859 315.606 C 330.185 316.114,330.691 316.561,331.459 316.136 C 331.839 315.925,332.881 315.846,335.336 315.841 L 338.693 315.833 339.479 315.208 C 339.960 314.827,340.510 314.583,340.892 314.583 C 341.276 314.583,341.961 314.280,342.656 313.802 C 344.255 312.704,344.628 312.507,345.115 312.503 C 345.350 312.501,345.959 312.080,346.469 311.567 C 347.088 310.943,347.576 310.632,347.938 310.629 C 348.237 310.627,348.734 310.391,349.043 310.104 C 349.352 309.818,349.726 309.583,349.874 309.583 C 350.022 309.583,350.309 309.401,350.510 309.178 C 350.712 308.956,351.136 308.717,351.454 308.647 C 351.771 308.577,352.247 308.291,352.510 308.010 C 352.774 307.730,353.083 307.500,353.197 307.500 C 353.311 307.500,353.584 307.338,353.804 307.139 C 354.023 306.941,354.593 306.582,355.070 306.341 C 355.552 306.099,355.968 305.727,356.007 305.504 C 356.096 304.995,356.621 304.583,357.182 304.583 C 357.426 304.583,358.047 304.148,358.593 303.594 C 359.129 303.049,359.736 302.436,359.940 302.230 C 363.424 298.724,364.197 297.882,364.268 297.515 C 364.386 296.902,364.563 296.667,364.905 296.667 C 365.069 296.667,365.330 296.362,365.486 295.990 C 365.641 295.617,365.924 295.184,366.114 295.027 C 366.303 294.869,366.458 294.503,366.458 294.213 C 366.458 293.923,366.693 293.378,366.979 293.002 C 367.266 292.627,367.500 292.079,367.500 291.785 C 367.500 291.197,368.154 290.417,368.646 290.417 C 368.923 290.417,368.958 280.301,368.958 200.625 C 368.958 120.949,368.923 110.833,368.646 110.833 C 368.439 110.833,368.333 110.627,368.333 110.222 C 368.333 109.794,368.209 109.572,367.917 109.479 C 367.584 109.374,367.500 109.164,367.500 108.438 C 367.500 107.654,367.436 107.520,367.031 107.462 C 366.648 107.408,366.551 107.244,366.499 106.563 C 366.457 106.020,366.284 105.613,366.003 105.395 C 365.765 105.212,365.548 104.837,365.520 104.562 C 365.493 104.287,365.458 103.947,365.443 103.806 C 365.429 103.665,365.186 103.492,364.903 103.421 C 364.621 103.350,364.327 103.090,364.250 102.844 C 364.038 102.166,363.033 100.774,362.023 99.760 C 361.527 99.262,360.942 98.549,360.724 98.177 C 360.506 97.805,360.178 97.500,359.997 97.500 C 359.570 97.500,359.167 97.092,359.167 96.661 C 359.167 96.192,358.294 95.417,357.765 95.417 C 357.510 95.417,356.993 95.039,356.528 94.511 C 356.081 94.005,355.396 93.497,354.973 93.358 C 354.557 93.221,354.051 92.925,353.847 92.700 C 353.644 92.476,353.364 92.292,353.225 92.292 C 353.086 92.292,352.734 92.104,352.443 91.875 C 352.152 91.646,351.724 91.458,351.494 91.458 C 351.263 91.458,350.795 91.224,350.455 90.938 C 350.114 90.651,349.731 90.417,349.604 90.417 C 349.477 90.417,349.168 90.182,348.919 89.896 C 348.656 89.593,348.242 89.375,347.931 89.375 C 347.582 89.375,347.070 89.060,346.458 88.468 C 345.869 87.898,345.250 87.510,344.792 87.425 C 344.315 87.336,343.747 86.968,343.154 86.363 C 342.374 85.569,342.108 85.429,341.280 85.375 C 340.092 85.298,339.796 84.718,340.839 84.509 C 341.313 84.414,341.471 84.280,341.420 84.012 C 341.324 83.508,340.470 83.429,339.972 83.879 C 339.588 84.227,339.521 84.229,338.896 83.907 C 338.529 83.717,337.901 83.414,337.500 83.232 C 336.178 82.633,335.525 82.229,335.249 81.841 C 335.080 81.605,334.719 81.458,334.302 81.458 C 333.794 81.458,333.374 81.227,332.595 80.516 C 332.027 79.998,331.328 79.523,331.042 79.460 C 330.349 79.309,329.872 79.074,328.750 78.332 C 328.234 77.991,327.555 77.608,327.240 77.481 C 326.563 77.209,326.491 76.750,327.095 76.559 C 327.386 76.466,327.504 76.278,327.460 75.974 C 327.373 75.366,326.719 75.282,326.223 75.814 C 325.712 76.363,325.172 76.369,324.688 75.833 C 324.480 75.604,324.124 75.417,323.896 75.417 C 323.667 75.417,322.969 75.065,322.344 74.635 C 320.727 73.524,320.372 73.340,319.849 73.336 C 319.586 73.335,319.237 73.107,319.043 72.812 C 318.856 72.526,318.587 72.292,318.446 72.292 C 318.305 72.292,318.020 72.104,317.813 71.875 C 317.605 71.646,317.228 71.458,316.973 71.458 C 316.719 71.458,315.925 70.990,315.208 70.417 C 314.369 69.746,313.705 69.375,313.343 69.375 C 313.013 69.375,312.579 69.160,312.292 68.854 C 312.023 68.568,311.683 68.333,311.538 68.333 C 311.393 68.333,311.148 68.154,310.994 67.935 C 310.841 67.715,310.364 67.470,309.936 67.390 C 309.507 67.309,309.037 67.073,308.892 66.866 C 308.746 66.658,308.380 66.426,308.079 66.350 C 307.777 66.274,307.369 66.033,307.171 65.815 C 306.972 65.596,306.598 65.417,306.338 65.417 C 305.915 65.417,304.589 64.519,304.408 64.111 C 304.203 63.645,303.641 63.333,303.008 63.333 C 302.486 63.333,301.968 63.084,301.064 62.396 C 300.386 61.880,299.741 61.458,299.632 61.458 C 299.523 61.458,299.022 61.098,298.519 60.657 C 297.367 59.649,296.850 59.375,296.093 59.375 C 295.737 59.375,295.314 59.183,295.057 58.906 C 294.390 58.189,293.520 57.626,292.711 57.391 C 292.290 57.269,291.892 56.982,291.774 56.714 C 291.654 56.444,291.383 56.250,291.125 56.250 C 290.881 56.250,290.443 56.063,290.151 55.833 C 289.860 55.604,289.371 55.417,289.065 55.417 C 288.683 55.417,288.214 55.122,287.571 54.479 C 286.887 53.795,286.409 53.505,285.806 53.409 C 285.267 53.323,284.595 52.960,283.875 52.368 C 283.267 51.867,282.576 51.458,282.339 51.458 C 282.101 51.458,281.628 51.224,281.288 50.938 C 280.948 50.651,280.602 50.417,280.521 50.417 C 280.439 50.417,280.094 50.182,279.754 49.896 C 279.413 49.609,278.946 49.375,278.715 49.375 C 278.484 49.375,277.812 48.964,277.221 48.462 C 276.469 47.823,275.873 47.503,275.238 47.398 C 274.739 47.315,274.153 47.070,273.936 46.853 C 273.719 46.636,273.403 46.458,273.234 46.458 C 273.065 46.458,272.773 46.224,272.585 45.938 C 272.397 45.651,272.058 45.417,271.832 45.417 C 271.605 45.417,271.171 45.224,270.866 44.989 C 269.037 43.576,268.640 43.333,268.148 43.327 C 267.798 43.324,267.248 42.991,266.601 42.390 C 265.992 41.823,265.403 41.458,265.098 41.458 C 264.823 41.458,264.321 41.201,263.984 40.885 C 262.575 39.570,262.252 39.375,261.482 39.375 C 260.648 39.375,260.208 39.082,260.208 38.526 C 260.208 37.981,259.737 37.715,258.341 37.469 C 257.633 37.344,256.968 37.136,256.863 37.006 C 256.759 36.877,256.429 36.466,256.130 36.094 C 255.688 35.542,255.440 35.417,254.789 35.417 C 254.241 35.417,253.796 35.253,253.371 34.896 C 253.031 34.609,252.654 34.375,252.534 34.375 C 252.414 34.375,252.174 34.174,252.002 33.927 C 251.819 33.666,251.358 33.424,250.896 33.346 C 250.153 33.220,250.108 33.170,250.158 32.534 C 250.211 31.871,250.197 31.858,249.520 31.985 C 249.022 32.079,248.751 32.023,248.555 31.787 C 248.405 31.606,248.072 31.458,247.816 31.458 C 247.559 31.458,247.011 31.201,246.598 30.885 C 245.067 29.717,244.681 29.477,244.170 29.374 C 243.567 29.252,243.275 28.333,243.840 28.333 C 244.194 28.333,244.282 28.013,243.980 27.826 C 243.878 27.763,243.740 27.851,243.674 28.022 C 243.507 28.458,242.449 28.413,241.851 27.944 C 241.578 27.730,241.056 27.489,240.691 27.410 C 240.327 27.330,239.915 27.128,239.776 26.960 C 239.246 26.321,237.662 25.417,237.073 25.417 C 236.713 25.417,236.265 25.223,235.992 24.948 C 235.197 24.149,233.878 23.341,233.362 23.337 C 233.092 23.335,232.396 22.936,231.816 22.451 C 231.236 21.965,230.403 21.407,229.964 21.211 C 229.526 21.014,229.167 20.719,229.167 20.555 C 229.167 20.108,228.248 19.592,227.197 19.448 C 226.684 19.378,226.107 19.145,225.913 18.931 C 225.719 18.717,225.451 18.542,225.317 18.542 C 225.182 18.542,224.861 18.316,224.602 18.041 C 224.343 17.765,223.824 17.482,223.448 17.412 C 223.073 17.341,222.598 17.098,222.392 16.871 C 222.187 16.644,221.903 16.458,221.763 16.458 C 221.622 16.458,221.353 16.224,221.165 15.938 C 220.896 15.526,220.649 15.417,219.995 15.417 C 219.462 15.417,219.057 15.287,218.859 15.052 C 217.721 13.704,217.548 13.587,216.471 13.439 C 215.699 13.333,215.247 13.141,214.942 12.790 C 214.703 12.516,214.350 12.292,214.157 12.292 C 213.964 12.292,213.568 12.104,213.276 11.875 C 212.968 11.632,212.431 11.458,211.992 11.458 C 211.021 11.458,209.889 10.983,209.545 10.432 C 209.278 10.005,209.168 10.000,200.002 10.017 L 190.729 10.033 190.192 10.674 M75.875 73.792 C 75.469 74.198,75.585 74.375,76.257 74.375 C 76.825 74.375,76.867 74.332,76.667 73.958 C 76.410 73.479,76.227 73.440,75.875 73.792 M323.251 73.871 C 323.063 74.363,323.074 74.375,323.750 74.375 C 324.416 74.375,324.530 74.197,324.125 73.792 C 323.778 73.445,323.402 73.479,323.251 73.871 M58.971 83.839 C 58.749 84.107,58.762 84.184,59.048 84.294 C 59.503 84.469,59.668 84.280,59.431 83.857 C 59.258 83.549,59.213 83.547,58.971 83.839 M79.529 123.457 C 79.444 123.542,79.375 159.922,79.375 204.302 L 79.375 284.992 79.948 285.152 C 80.821 285.396,126.847 285.279,130.729 285.023 C 132.563 284.902,136.828 284.741,140.208 284.666 C 144.899 284.562,146.493 284.459,146.939 284.233 C 147.260 284.069,148.385 283.839,149.439 283.721 C 150.628 283.588,151.551 283.368,151.875 283.141 C 152.226 282.895,152.984 282.735,154.198 282.649 C 155.423 282.564,156.255 282.386,156.799 282.095 C 157.797 281.560,158.240 281.558,159.271 282.084 C 160.312 282.614,161.127 282.162,160.244 281.543 C 159.539 281.049,159.992 280.691,161.456 280.585 C 162.190 280.532,162.844 280.359,163.065 280.160 C 163.270 279.975,163.686 279.762,163.991 279.686 C 164.295 279.610,164.757 279.322,165.017 279.045 C 165.354 278.685,165.714 278.542,166.274 278.542 C 167.068 278.542,168.155 278.030,169.235 277.148 C 169.559 276.883,170.050 276.667,170.326 276.667 C 170.637 276.667,171.268 276.269,171.979 275.625 C 172.612 275.052,173.316 274.583,173.545 274.583 C 174.227 274.583,175.512 273.783,175.634 273.282 C 175.700 273.010,175.999 272.729,176.353 272.606 C 176.686 272.490,177.327 271.997,177.777 271.510 C 178.227 271.023,178.704 270.625,178.838 270.625 C 178.972 270.625,179.434 270.162,179.866 269.596 C 180.300 269.027,180.853 268.538,181.103 268.502 C 181.384 268.462,181.739 268.105,182.038 267.563 C 182.302 267.082,182.706 266.629,182.935 266.557 C 183.176 266.480,183.401 266.172,183.471 265.822 C 183.540 265.477,183.890 264.992,184.292 264.686 C 184.690 264.382,185.066 263.862,185.164 263.482 C 185.272 263.063,185.546 262.711,185.897 262.541 C 186.346 262.323,186.458 262.125,186.458 261.546 C 186.458 260.978,186.564 260.783,186.950 260.636 C 187.303 260.502,187.509 260.183,187.679 259.510 C 187.862 258.783,188.021 258.556,188.385 258.504 C 188.768 258.450,188.867 258.285,188.922 257.604 C 188.959 257.146,189.123 256.696,189.286 256.604 C 189.454 256.510,189.583 256.124,189.583 255.717 C 189.583 255.260,189.732 254.869,189.990 254.648 C 190.262 254.414,190.437 253.918,190.521 253.140 C 190.707 251.422,190.781 251.166,191.244 250.632 C 191.518 250.316,191.668 249.844,191.672 249.291 C 191.679 248.154,192.046 246.610,192.355 246.419 C 193.079 245.972,192.583 227.500,191.848 227.500 C 191.748 227.500,191.667 227.186,191.667 226.801 C 191.667 224.927,191.400 223.551,191.012 223.428 C 190.721 223.336,190.625 223.102,190.625 222.479 C 190.625 221.883,190.524 221.616,190.260 221.519 C 189.759 221.334,189.590 221.040,189.587 220.343 C 189.585 220.015,189.349 219.469,189.062 219.129 C 188.776 218.788,188.542 218.337,188.542 218.125 C 188.542 217.913,188.307 217.462,188.021 217.121 C 187.734 216.781,187.500 216.303,187.500 216.059 C 187.500 215.777,187.310 215.542,186.979 215.417 C 186.543 215.251,186.458 215.083,186.458 214.384 C 186.458 213.660,186.387 213.532,185.918 213.414 C 185.538 213.319,185.265 213.014,184.995 212.384 C 184.689 211.671,184.491 211.475,184.024 211.421 C 183.546 211.367,183.424 211.239,183.367 210.729 C 183.277 209.932,183.031 209.641,182.311 209.483 C 181.954 209.405,181.498 209.023,181.116 208.480 C 180.630 207.792,180.290 207.549,179.529 207.347 C 178.966 207.198,178.467 206.917,178.339 206.676 C 178.217 206.449,177.694 206.015,177.178 205.712 C 176.309 205.203,176.242 205.104,176.296 204.404 L 176.354 203.646 175.417 203.623 C 173.616 203.580,172.266 203.287,172.016 202.886 C 171.883 202.674,171.604 202.500,171.395 202.500 C 170.910 202.500,170.153 202.106,169.938 201.740 C 169.843 201.580,169.422 201.458,168.964 201.458 C 168.407 201.458,167.965 201.297,167.538 200.938 C 167.198 200.651,166.736 200.417,166.511 200.417 C 166.287 200.417,165.663 200.182,165.124 199.896 C 164.305 199.460,163.860 199.375,162.410 199.375 C 160.076 199.375,159.664 198.897,161.019 197.760 C 161.190 197.617,161.508 197.500,161.726 197.500 C 161.944 197.500,162.360 197.313,162.651 197.083 C 162.943 196.854,163.450 196.667,163.779 196.667 C 164.158 196.667,164.544 196.475,164.831 196.146 C 165.080 195.859,165.440 195.625,165.632 195.625 C 165.824 195.625,166.234 195.391,166.543 195.104 C 166.852 194.818,167.342 194.583,167.631 194.583 C 167.978 194.583,168.479 194.262,169.096 193.646 C 169.611 193.130,170.248 192.654,170.511 192.588 C 170.773 192.522,171.299 192.054,171.679 191.547 C 172.058 191.040,172.469 190.625,172.591 190.625 C 172.713 190.625,173.216 190.156,173.709 189.583 C 174.203 189.010,174.741 188.542,174.905 188.542 C 175.069 188.542,175.428 188.190,175.702 187.760 C 175.976 187.331,176.399 186.754,176.642 186.479 C 176.885 186.203,177.083 185.808,177.083 185.599 C 177.083 185.391,177.364 185.014,177.706 184.760 C 178.049 184.507,178.386 184.120,178.456 183.899 C 178.526 183.679,178.802 183.177,179.068 182.784 C 179.335 182.391,179.615 181.787,179.691 181.441 C 179.767 181.096,180.008 180.702,180.227 180.565 C 180.518 180.384,180.625 180.077,180.625 179.429 C 180.625 178.809,180.713 178.542,180.915 178.542 C 181.249 178.542,181.458 178.099,181.458 177.391 C 181.458 177.120,181.661 176.757,181.909 176.583 C 182.290 176.316,182.404 175.906,182.644 173.930 C 182.800 172.644,183.042 171.454,183.182 171.285 C 183.626 170.751,183.660 157.671,183.220 156.814 C 183.024 156.432,182.780 155.147,182.652 153.817 C 182.470 151.930,182.361 151.470,182.077 151.396 C 181.820 151.329,181.689 150.974,181.587 150.069 C 181.491 149.221,181.318 148.722,181.036 148.481 C 180.810 148.287,180.625 147.946,180.625 147.721 C 180.625 146.976,178.685 143.507,178.155 143.305 C 177.760 143.155,177.690 143.017,177.796 142.595 C 177.905 142.162,177.818 142.008,177.299 141.712 C 176.833 141.447,176.669 141.202,176.668 140.768 C 176.666 139.972,176.316 139.375,175.852 139.375 C 175.448 139.375,175.061 139.003,174.692 138.263 C 174.570 138.020,174.241 137.706,173.960 137.566 C 173.420 137.297,172.292 136.108,172.292 135.808 C 172.292 135.710,171.985 135.503,171.611 135.346 C 171.236 135.190,170.675 134.727,170.363 134.319 C 170.006 133.850,169.546 133.522,169.117 133.430 C 168.743 133.350,167.954 132.873,167.363 132.371 C 166.714 131.820,166.080 131.458,165.764 131.458 C 165.476 131.458,164.962 131.224,164.621 130.938 C 164.281 130.651,163.852 130.417,163.668 130.417 C 163.484 130.417,163.124 130.208,162.869 129.952 C 162.579 129.663,162.049 129.447,161.463 129.379 C 160.627 129.283,160.520 129.212,160.510 128.745 C 160.492 127.855,160.303 127.775,157.558 127.500 C 155.807 127.324,154.717 127.114,154.375 126.887 C 153.538 126.333,152.737 126.042,152.021 126.034 C 151.654 126.030,151.120 125.893,150.833 125.729 C 150.530 125.556,149.732 125.428,148.922 125.424 C 147.175 125.415,145.439 125.042,144.893 124.558 C 144.532 124.239,144.080 124.189,141.664 124.204 C 139.388 124.218,138.676 124.149,137.917 123.839 C 136.934 123.438,79.921 123.065,79.529 123.457 M164.790 130.106 C 164.580 130.359,164.593 130.417,164.858 130.417 C 165.247 130.417,165.501 130.077,165.235 129.913 C 165.132 129.849,164.931 129.936,164.790 130.106 M132.956 143.135 C 133.875 143.370,135.578 143.646,136.740 143.748 C 137.903 143.851,139.203 144.080,139.629 144.259 C 140.133 144.470,141.049 144.583,142.257 144.583 C 143.798 144.583,144.200 144.654,144.643 145.002 C 144.935 145.232,145.487 145.479,145.869 145.551 C 146.250 145.622,146.768 145.867,147.018 146.094 C 147.271 146.323,147.897 146.554,148.425 146.614 C 149.301 146.713,149.437 146.830,149.357 147.425 C 149.328 147.644,149.866 147.910,150.348 147.913 C 150.596 147.915,151.112 148.073,151.494 148.264 C 151.875 148.455,152.328 148.676,152.500 148.755 C 152.672 148.834,152.859 149.160,152.917 149.479 C 153.024 150.077,153.189 150.214,154.288 150.619 C 154.649 150.751,155.150 151.203,155.432 151.650 C 155.708 152.087,156.123 152.527,156.353 152.629 C 156.634 152.753,156.773 153.016,156.778 153.438 C 156.789 154.306,157.012 154.583,157.698 154.583 C 158.339 154.583,158.542 154.885,158.542 155.836 C 158.542 156.247,158.670 156.471,158.958 156.563 C 159.330 156.680,159.375 156.879,159.378 158.399 C 159.382 160.193,159.462 160.468,160.049 160.684 C 160.630 160.899,160.501 170.868,159.906 171.746 C 159.625 172.161,159.482 172.775,159.443 173.726 C 159.412 174.484,159.385 175.164,159.381 175.236 C 159.378 175.309,159.188 175.417,158.958 175.477 C 158.627 175.564,158.542 175.761,158.542 176.445 C 158.542 177.074,158.444 177.341,158.177 177.439 C 157.678 177.623,157.507 177.918,157.503 178.600 C 157.501 178.919,157.367 179.231,157.205 179.293 C 157.042 179.355,156.665 179.775,156.367 180.226 C 156.068 180.678,155.553 181.288,155.222 181.583 C 154.890 181.879,154.565 182.334,154.500 182.596 C 154.433 182.861,154.108 183.185,153.768 183.326 C 153.431 183.466,152.750 183.992,152.255 184.497 C 151.679 185.083,151.170 185.414,150.845 185.415 C 150.349 185.417,149.124 186.122,148.181 186.949 C 147.740 187.336,146.753 187.604,144.896 187.842 C 144.353 187.912,143.911 188.130,143.626 188.468 C 143.132 189.057,142.064 189.363,140.476 189.370 C 139.879 189.373,138.935 189.555,138.377 189.774 C 137.820 189.994,136.621 190.229,135.713 190.297 C 134.805 190.366,133.017 190.655,131.739 190.941 L 129.415 191.461 115.906 191.408 L 102.396 191.354 102.426 190.729 C 102.443 190.385,102.470 179.500,102.485 166.538 C 102.501 153.577,102.573 142.913,102.646 142.840 C 103.051 142.435,131.289 142.709,132.956 143.135 M263.333 143.183 C 273.364 143.244,279.567 143.574,280.933 144.120 C 281.516 144.353,282.643 144.477,284.638 144.530 C 287.411 144.603,287.516 144.622,287.839 145.115 C 288.088 145.495,288.359 145.625,288.900 145.625 C 289.372 145.625,289.845 145.808,290.246 146.146 C 290.598 146.441,291.129 146.667,291.474 146.667 C 291.809 146.667,292.271 146.854,292.500 147.083 C 292.729 147.313,293.050 147.500,293.213 147.500 C 293.376 147.500,293.788 147.734,294.129 148.021 C 294.469 148.307,294.996 148.542,295.299 148.542 C 295.695 148.542,296.123 148.837,296.811 149.583 C 297.339 150.156,297.921 150.625,298.105 150.625 C 298.551 150.625,300.674 153.034,300.938 153.839 C 301.094 154.317,301.302 154.502,301.771 154.582 C 302.298 154.673,302.406 154.796,302.462 155.372 C 302.500 155.768,302.697 156.161,302.930 156.307 C 303.237 156.498,303.333 156.795,303.333 157.546 C 303.333 158.630,303.841 160.169,304.329 160.565 C 304.500 160.703,304.667 161.162,304.701 161.585 C 304.735 162.007,304.886 162.429,305.037 162.523 C 305.583 162.860,305.424 177.019,304.869 177.460 C 304.541 177.721,304.396 178.129,304.309 179.032 C 304.237 179.780,304.047 180.412,303.815 180.668 C 303.562 180.948,303.433 181.431,303.423 182.143 C 303.410 183.006,303.328 183.236,302.973 183.394 C 302.723 183.506,302.482 183.867,302.406 184.242 C 302.134 185.595,300.417 186.878,300.417 185.728 C 300.417 185.467,300.334 185.446,300.000 185.625 C 299.771 185.748,299.583 185.974,299.583 186.129 C 299.583 186.283,299.771 186.459,300.000 186.519 C 300.229 186.579,300.417 186.786,300.417 186.979 C 300.417 187.172,300.229 187.380,300.000 187.440 C 299.771 187.500,299.583 187.611,299.583 187.688 C 299.583 187.869,298.395 189.693,297.632 190.683 C 297.129 191.334,296.909 191.458,296.251 191.458 C 295.811 191.458,295.355 191.594,295.210 191.769 C 295.050 191.962,294.769 192.033,294.467 191.958 C 293.809 191.792,293.445 192.028,293.763 192.412 C 294.118 192.839,293.840 193.333,293.246 193.333 C 292.962 193.333,292.477 193.568,292.168 193.854 C 291.859 194.141,291.449 194.375,291.257 194.375 C 291.065 194.375,290.705 194.609,290.456 194.896 C 290.098 195.307,289.805 195.417,289.069 195.417 C 288.302 195.417,288.073 195.510,287.793 195.938 C 287.492 196.397,287.305 196.458,286.207 196.458 C 285.277 196.458,284.827 196.564,284.432 196.875 C 284.008 197.208,283.585 197.292,282.316 197.293 C 281.438 197.294,279.615 197.527,278.234 197.814 L 275.738 198.333 260.395 198.333 C 248.028 198.333,245.007 198.281,244.825 198.061 C 244.665 197.869,244.612 189.969,244.644 170.944 L 244.688 144.098 245.356 143.725 C 246.313 143.190,248.675 142.928,251.563 143.035 C 252.938 143.086,258.234 143.152,263.333 143.183 M137.917 210.097 C 138.603 210.372,139.694 210.507,141.990 210.601 C 144.502 210.704,145.238 210.803,145.694 211.103 C 146.006 211.308,146.866 211.549,147.604 211.637 C 148.342 211.726,149.113 211.950,149.317 212.134 C 149.527 212.323,150.275 212.532,151.042 212.614 C 151.863 212.702,152.560 212.904,152.813 213.127 C 153.042 213.329,153.464 213.564,153.750 213.651 C 154.036 213.737,154.494 213.982,154.768 214.195 C 155.047 214.413,155.600 214.583,156.029 214.583 C 156.518 214.583,157.049 214.771,157.500 215.104 C 157.888 215.391,158.368 215.625,158.567 215.625 C 158.766 215.625,159.112 215.859,159.338 216.146 C 159.563 216.432,159.851 216.667,159.978 216.667 C 160.349 216.667,160.243 217.092,159.779 217.468 C 158.925 218.160,159.847 218.901,160.812 218.298 C 161.467 217.890,163.750 219.394,163.750 220.234 C 163.750 220.319,163.926 220.445,164.142 220.513 C 164.664 220.679,166.307 223.093,166.159 223.478 C 165.970 223.971,166.428 224.583,166.986 224.583 C 167.456 224.583,167.500 224.663,167.500 225.521 C 167.500 226.036,167.590 226.458,167.701 226.458 C 168.022 226.458,168.339 227.212,168.440 228.216 C 168.492 228.727,168.723 229.454,168.954 229.832 C 169.715 231.082,169.521 243.542,168.740 243.542 C 168.631 243.542,168.542 243.898,168.542 244.333 C 168.542 244.769,168.439 245.228,168.313 245.354 C 168.186 245.480,168.083 245.915,168.083 246.320 C 168.083 246.779,167.934 247.191,167.688 247.415 C 167.454 247.626,167.292 248.049,167.292 248.447 C 167.292 249.241,166.696 249.636,166.519 248.959 C 166.459 248.730,166.333 248.542,166.240 248.542 C 165.905 248.542,165.811 249.387,166.067 250.096 C 166.293 250.720,166.280 250.871,165.977 251.207 C 165.783 251.420,165.625 251.706,165.625 251.841 C 165.625 251.976,165.391 252.290,165.104 252.539 C 164.818 252.788,164.583 253.150,164.583 253.343 C 164.583 253.536,164.412 253.917,164.202 254.191 C 163.992 254.464,163.765 254.840,163.697 255.027 C 163.514 255.530,162.109 255.738,160.489 255.503 C 159.745 255.394,159.605 255.435,159.491 255.796 C 159.334 256.292,159.549 257.292,159.814 257.292 C 160.183 257.292,159.985 257.710,159.227 258.535 C 158.647 259.166,158.296 259.375,157.815 259.375 C 157.434 259.375,157.032 259.543,156.819 259.792 C 156.589 260.060,156.205 260.208,155.738 260.208 C 155.209 260.208,155.043 260.286,155.123 260.494 C 155.295 260.942,154.622 261.458,153.865 261.458 C 153.486 261.458,153.057 261.602,152.911 261.777 C 152.746 261.977,152.361 262.080,151.886 262.052 C 151.028 262.001,150.625 262.179,150.625 262.609 C 150.625 263.075,149.914 263.333,148.607 263.340 C 147.849 263.345,147.084 263.498,146.563 263.750 C 146.104 263.971,145.363 264.156,144.916 264.160 C 144.467 264.163,143.580 264.421,142.937 264.735 L 141.771 265.303 132.292 265.468 C 125.361 265.589,102.604 265.559,102.604 265.429 C 102.604 265.422,102.604 252.845,102.604 237.479 L 102.604 209.542 119.792 209.632 C 135.741 209.715,137.047 209.749,137.917 210.097 M320.677 306.805 C 320.287 306.962,320.354 308.056,320.764 308.214 C 321.273 308.409,321.481 308.084,321.331 307.331 C 321.196 306.658,321.144 306.616,320.677 306.805 M286.563 347.917 C 286.633 348.031,286.873 348.125,287.096 348.125 C 287.318 348.125,287.500 348.031,287.500 347.917 C 287.500 347.802,287.260 347.708,286.967 347.708 C 286.665 347.708,286.489 347.799,286.563 347.917 " stroke="none" fill="#74bc54" fill-rule="evenodd"></path><path id="path1" d="" stroke="none" fill="#78bc54" fill-rule="evenodd"></path><path id="path2" d="" stroke="none" fill="#78bc54" fill-rule="evenodd"></path><path id="path3" d="" stroke="none" fill="#78bc54" fill-rule="evenodd"></path><path id="path4" d="" stroke="none" fill="#78bc54" fill-rule="evenodd"></path></g></svg>