<?xml version="1.0" encoding="utf-8"?>
<!-- Generator: Adobe Illustrator 16.0.4, SVG Export Plug-In . SVG Version: 6.00 Build 0)  -->
<!DOCTYPE svg PUBLIC "-//W3C//DTD SVG 1.1//EN" "http://www.w3.org/Graphics/SVG/1.1/DTD/svg11.dtd">
<svg version="1.1" id="Camada_1" xmlns="http://www.w3.org/2000/svg" xmlns:xlink="http://www.w3.org/1999/xlink" x="0px" y="0px"
	 width="1473.37px" height="719.44px" viewBox="0 0 1473.37 719.44" enable-background="new 0 0 1473.37 719.44"
	 xml:space="preserve">
<rect x="925.74" y="294.623" fill="#660066" width="73.48" height="287.442"/>
<g>
	<defs>
		<rect id="SVGID_1_" width="1473.371" height="719.44"/>
	</defs>
	<clipPath id="SVGID_2_">
		<use xlink:href="#SVGID_1_"  overflow="visible"/>
	</clipPath>
	<path clip-path="url(#SVGID_2_)" fill="#660066" d="M1246.88,272.748c-66.931,0-123.953,41.822-146.75,100.699V272.525h39.402
		v-73.48h-39.402v-41.273h-73.48v424.293h73.48v-95.818c22.306,55.974,77.309,93.946,142.224,95.818h84.327
		c17.495-26.79,23.964-36.868,46.819-72.014h-131.31c-29.093,0-53.152-8.479-65.38-32.193h68.885h71.253h80.021
		c3.674-11.583,5.91-23.775,6.808-36.345h0.167v-3.357c0.135-2.646,0.402-5.259,0.402-7.938
		C1404.347,343.249,1333.844,272.748,1246.88,272.748 M1163.133,417.685c6.092-40.81,41.271-72.247,83.747-72.247
		c42.474,0,77.652,31.438,83.748,72.247H1163.133z"/>
	<rect x="925.74" y="157.773" clip-path="url(#SVGID_2_)" fill="#FF2995" width="73.48" height="115.191"/>
	<path clip-path="url(#SVGID_2_)" fill="#660066" d="M826.313,157.773v212.422c-22.79-56.759-78.236-96.887-143.141-96.887h-65.079
		V157.772h-71.999v115.536v308.605v0.203h71.999v-0.203h65.079c64.904,0,120.351-40.126,143.141-96.883v97.086h71.999V157.773
		H826.313z M683.173,508.845h-64.01V346.376h64.01c44.791,0,81.23,36.443,81.23,81.238
		C764.403,472.406,727.963,508.845,683.173,508.845"/>
	<polygon clip-path="url(#SVGID_2_)" fill="#FF2995" points="69.025,273.31 134.421,373.553 161.112,373.553 175.695,273.31 	"/>
	<path clip-path="url(#SVGID_2_)" fill="#660066" d="M242.62,481.873l15.871-109.104l14.581-100.244l25.172-173.039H198.001
		l-25.169,173.039l-14.584,100.244l-15.871,109.104l-8.386,57.65c-3.267,22.46,14.15,42.593,36.847,42.593h57.201h112.886
		l14.174-100.243H242.62z"/>
	<polygon clip-path="url(#SVGID_2_)" fill="#660066" points="478.716,481.873 454.592,481.873 440.417,582.116 478.716,582.116 	"/>
	<polygon clip-path="url(#SVGID_2_)" fill="#3A003D" points="340.925,582.117 355.099,481.874 336.316,481.873 316.392,582.117 	"/>
	<path clip-path="url(#SVGID_2_)" fill="#FF2995" d="M440.592,273.315l0.001-0.005h-0.044c-0.003,0-0.005-0.001-0.007-0.001H272.958
		l-14.581,100.243l111.347,0.002l-15.53,109.104L340.021,582.9l-5.122,37.054h101.014l34.494-247.185l7.998-55.865
		C481.659,293.901,463.816,273.345,440.592,273.315"/>
	<polygon clip-path="url(#SVGID_2_)" fill="#B52179" points="272.958,273.309 258.377,373.552 276.366,373.553 296.698,273.31 	"/>
</g>
</svg>
