<?xml version="1.0" encoding="utf-8"?>
<!-- Generator: Adobe Illustrator 16.0.4, SVG Export Plug-In . SVG Version: 6.00 Build 0)  -->
<!DOCTYPE svg PUBLIC "-//W3C//DTD SVG 1.1//EN" "http://www.w3.org/Graphics/SVG/1.1/DTD/svg11.dtd">
<svg version="1.1" id="Camada_1" xmlns="http://www.w3.org/2000/svg" xmlns:xlink="http://www.w3.org/1999/xlink" x="0px" y="0px"
	 width="1920px" height="592px" viewBox="0 0 1920 592" enable-background="new 0 0 1920 592" xml:space="preserve">
<g>
	<defs>
		<rect id="SVGID_1_" width="1920" height="592"/>
	</defs>
	<clipPath id="SVGID_2_">
		<use xlink:href="#SVGID_1_"  overflow="visible"/>
	</clipPath>
	<path clip-path="url(#SVGID_2_)" fill="#CA4786" d="M820.097,142.332c-31.741-19.752-70.431-34.574-114.583-34.574
		c-45.31,0-77.348,17.999-77.348,48.801c0,29.925,34.933,38.925,83.405,47.063l22.803,3.773
		c72.153,11.91,128.732,42.993,128.732,113.894c0,89.744-78.506,132.44-165.371,132.44c-61.196,0-126.993-17.999-170.286-53.151
		l41.852-65.359c29.142,23.523,76.753,43.87,128.715,43.87c44.732,0,79.369-17.732,79.369-49.098
		c0-28.188-29.441-38.643-85.723-47.643l-25.684-4.054c-71.291-11.331-123.237-43.009-123.237-116.507
		c0-84.814,75.047-128.982,161.051-128.982c56.564,0,103.596,12.787,154.399,43.307L820.097,142.332z"/>
	<path clip-path="url(#SVGID_2_)" fill="#CA4786" d="M969.626,305.583c0,42.994,28,77.568,72.169,77.568
		c42.994,0,72.137-33.118,72.137-77.568c0-44.449-29.143-77.551-72.137-77.551C997.626,228.032,969.626,262.59,969.626,305.583
		 M1111.631,196.072v-31.068h73.592v397.683h-75.032V417.13c-18.187,21.802-44.748,36.609-82.263,36.609
		c-77.052,0-135.352-63.623-135.352-148.156c0-84.532,58.3-148.154,135.352-148.154
		C1066.304,157.429,1093.162,173.127,1111.631,196.072"/>
	<path clip-path="url(#SVGID_2_)" fill="#CA4786" d="M1480.506,326.509c0,88.884-62.34,127.229-132.191,127.229
		c-70.132,0-132.472-38.346-132.472-127.229V165.004h75.329v154.822c0,45.013,24.541,63.325,57.143,63.325
		c32.336,0,57.159-18.312,57.159-63.325V165.004h75.032V326.509z"/>
	<path clip-path="url(#SVGID_2_)" fill="#CA4786" d="M1586.442,446.473h-75.329V165h75.329V446.473z M1596.554,72.909
		c0,27.295-21.066,48.206-48.206,48.206c-27.124,0-47.909-20.911-47.909-48.206c0-27.312,20.785-48.816,47.909-48.816
		C1575.487,24.093,1596.554,45.597,1596.554,72.909"/>
	<path clip-path="url(#SVGID_2_)" fill="#CA4786" d="M1696.42,305.577c0,42.994,27.985,77.567,72.137,77.567
		c43.01,0,72.152-33.118,72.152-77.567c0-44.434-29.143-77.552-72.152-77.552C1724.405,228.025,1696.42,262.583,1696.42,305.577
		 M1836.969,194.328V28.175H1912V446.47h-73.592v-31.084c-18.187,22.663-45.311,38.346-83.703,38.346
		c-77.051,0-135.352-63.606-135.352-148.154c0-84.532,58.301-148.139,135.352-148.139
		C1792.237,157.438,1818.781,172.26,1836.969,194.328"/>
	<path clip-path="url(#SVGID_2_)" fill="#CA4786" d="M483.153,352.187c-0.017-132.159-106.476-239.276-237.774-239.26
		C114.08,112.941,7.652,220.089,7.684,352.248L483.153,352.187z"/>
	<path clip-path="url(#SVGID_2_)" d="M407.083,577.665c-4.972,0-9.164-3.88-9.522-8.945L362.106,61.776
		c-1.372-19.122-8.057-27.039-11.345-27.039h-0.016c-3.445,0.032-10.332,8.291-11.47,28.099L313.625,530.46
		c-1.949,33.928-17.58,46.114-30.375,46.239c-12.467,0.016-28.083-11.517-30.576-44.618l-34.52-472.362
		c-1.418-18.95-8.072-26.789-11.33-26.789h-0.015c-3.429,0.031-10.316,8.29-11.455,28.083l-27.054,466.422
		c-1.948,33.834-17.532,46.038-30.312,46.208c-12.42,0.312-27.895-11.251-30.576-43.963L65.816,26.041
		c-0.436-5.283,3.46-9.927,8.728-10.379c5.251-0.343,9.865,3.491,10.316,8.79l41.595,503.64
		c1.527,18.639,8.073,26.321,11.267,26.321h0.031c3.43-0.046,10.333-8.321,11.471-28.099l27.054-466.423
		c1.932-33.912,17.563-46.099,30.374-46.193h0.171c12.514,0,27.912,11.657,30.39,44.587l34.519,472.362
		c1.418,18.966,8.073,26.805,11.33,26.805h0.016c3.444-0.031,10.333-8.306,11.454-28.1l25.668-467.591
		c1.948-33.99,17.594-46.146,30.405-46.239h0.14c12.576,0,28.036,11.735,30.421,44.898l35.455,506.944
		c0.374,5.314-3.601,9.911-8.868,10.27C407.536,577.649,407.301,577.665,407.083,577.665"/>
</g>
</svg>
