<?xml version="1.0" encoding="UTF-8"?>
<svg width="100px" height="29px" viewBox="0 0 100 29" version="1.1" xmlns="http://www.w3.org/2000/svg" xmlns:xlink="http://www.w3.org/1999/xlink">
    <!-- Generator: Sketch 55.1 (78136) - https://sketchapp.com -->
    <title>Group 12</title>
    <desc>Created with Sketch.</desc>
    <defs>
        <polygon id="path-1" points="0 0.107000014 24.6816687 0.107000014 24.6816687 24.6680498 0 24.6680498"></polygon>
    </defs>
    <g id="Welcome" stroke="none" stroke-width="1" fill="none" fill-rule="evenodd">
        <g id="Desktop-HD" transform="translate(-92.000000, -46.000000)">
            <g id="Group-12" transform="translate(92.000000, 46.000000)">
                <g id="Group-3" transform="translate(0.000000, 4.153618)">
                    <mask id="mask-2" fill="white">
                        <use xlink:href="#path-1"></use>
                    </mask>
                    <g id="Clip-2"></g>
                    <path d="M24.6816687,12.5205876 C24.6658283,9.06513527 24.1747763,5.77417676 23.0733253,2.5812888 C22.9288271,2.16265394 22.6839661,1.91452946 22.2589359,1.7659195 C19.6554293,0.862106224 16.9786457,0.335774274 14.2282225,0.168994191 C10.2073035,-0.075279668 6.2773156,0.395338589 2.4562757,1.70503154 C2.0079081,1.85941743 1.73995163,2.11789046 1.5843289,2.57370788 C0.671511487,5.23845892 0.180580411,7.98022241 0.0410399033,10.7915378 C-0.152551391,14.7065378 0.333663845,18.5229859 1.59823458,22.2385959 C1.7410399,22.6586747 1.98831923,22.9130564 2.41177751,23.0575751 C4.91177751,23.9153012 7.48033857,24.4131145 10.1156469,24.5918075 C14.2690931,24.8747079 18.3168561,24.3758116 22.255792,23.0108863 C22.6742926,22.865405 22.9278597,22.6224548 23.0762273,22.1997286 C24.1921886,19.0378863 24.6624426,15.7735212 24.6816687,12.5205876" id="Fill-1" fill="#000000" mask="url(#mask-2)"></path>
                </g>
                <polygon id="Fill-4" fill="#F3D01F" points="5.97334946 17.2761544 9.36972189 13.7351461 8.11954051 12.5422954 3.5729867 17.2797643 8.12123337 21.9712664 9.37153567 20.7792581"></polygon>
                <polygon id="Fill-6" fill="#F3D01F" points="15.3762152 9.2768473 13.6014873 9.2768473 9.30438936 23.8044033 11.0783918 23.8044033"></polygon>
                <polygon id="Fill-8" fill="#F3D01F" points="16.5600846 12.5422593 15.3101451 13.7352303 18.7070012 17.2761183 15.308815 20.7793423 16.5582709 21.9712303 21.1065175 17.2797282"></polygon>
                <path d="M99.9696131,8.38645104 L94.9299516,26.7791896 L94.4272914,26.7791896 L93.6125393,26.7791896 L93.1097582,26.7791896 L88.071185,8.38645104 L89.3885973,8.38645104 L93.9998428,25.2873141 L98.6120556,8.38645104 L99.9696131,8.38645104 Z M85.9121765,14.6167581 C85.4462757,14.9653598 84.9803748,15.2259988 84.5160459,15.4009614 C84.3089117,15.4746046 83.9674365,15.5998701 83.4895647,15.7729075 C83.0097582,15.9470278 82.4881137,16.134505 81.9197944,16.3343763 C81.3513543,16.5323224 80.7813422,16.737368 80.214474,16.9492726 C79.6451874,17.1602145 79.1673156,17.3392685 78.7811004,17.4884801 L78.7811004,13.1991274 C78.7811004,12.6772477 78.883156,12.1853307 79.0912576,11.7256627 C79.2979081,11.2651523 79.5754172,10.8664925 79.9230593,10.5300444 C80.2728779,10.1952809 80.686179,9.92778299 81.1650181,9.72851328 C81.6422854,9.53068755 82.1540145,9.43093237 82.6953688,9.43093237 C83.2372068,9.43093237 83.7478476,9.53068755 84.2262031,9.72851328 C84.7044377,9.92694066 85.1167715,10.1952809 85.4661064,10.5300444 C85.8142322,10.8664925 86.0927086,11.2586544 86.2993591,11.7064095 C86.505526,12.1540444 86.6106046,12.6393432 86.6106046,13.1620651 C86.6096372,13.7835797 86.3759008,14.2683971 85.9121765,14.6167581 L85.9121765,14.6167581 Z M86.3759008,9.65547178 C85.9121765,9.20615228 85.3624788,8.85237635 84.729468,8.58993237 C84.0954897,8.33025602 83.4178597,8.19921452 82.6947642,8.19921452 C81.9717896,8.19921452 81.2914994,8.33025602 80.6601814,8.58993237 C80.0251149,8.85189502 79.4774728,9.20615228 79.0131439,9.65547178 C78.547364,10.101783 78.1794075,10.6306419 77.9075816,11.2395216 C77.6364813,11.8497249 77.5005683,12.5024054 77.5005683,13.1985257 L77.5005683,21.9654303 C77.5005683,22.6627539 77.6364813,23.3163971 77.9075816,23.9239531 C78.1794075,24.5347581 78.5467594,25.0620527 79.0131439,25.5105299 C79.4774728,25.9575631 80.0251149,26.312422 80.6601814,26.5740237 C81.2919831,26.8350237 81.9717896,26.9655838 82.6947642,26.9655838 C83.4178597,26.9655838 84.0964571,26.8350237 84.729468,26.5740237 C85.3624788,26.312422 85.9121765,25.9575631 86.3759008,25.5105299 C86.8407134,25.0620527 87.2092745,24.5347581 87.4820677,23.9239531 C87.7526844,23.3168784 87.8879927,22.6627539 87.8879927,21.9654303 L86.6096372,21.9654303 C86.6096372,22.4881523 86.5044377,22.9807913 86.2982709,23.4402187 C86.0916203,23.8996461 85.8137485,24.2974635 85.4650181,24.633671 C85.1162878,24.9692768 84.7034704,25.2385797 84.2251149,25.4359241 C83.7462757,25.6349531 83.2366022,25.733866 82.6947642,25.733866 C82.1535308,25.733866 81.6418017,25.6349531 81.1634462,25.4359241 C80.684607,25.2385797 80.2717896,24.9692768 79.9220919,24.633671 C79.5743289,24.2979448 79.2964571,23.9001274 79.0902902,23.4402187 C78.8820677,22.9807913 78.7790447,22.487671 78.7790447,21.9654303 L78.7790447,18.7949241 C79.1151995,18.6949282 79.5800121,18.5338037 80.1749335,18.3085423 C80.7688875,18.0852062 81.3825514,17.8625921 82.0160459,17.6376917 C82.6474849,17.4149573 83.2356348,17.1983598 83.7790447,16.9839282 C84.3224547,16.7737083 84.7086699,16.6307539 84.9408343,16.5561481 C86.9048005,15.8605091 87.8869045,14.7400983 87.8869045,13.1985257 L87.8869045,13.1620651 C87.8869045,12.4894095 87.7511125,11.8497249 87.4803748,11.2395216 C87.2092745,10.6306419 86.8411971,10.101783 86.3759008,9.65547178 L86.3759008,9.65547178 Z M74.6663482,21.9369116 C74.6663482,22.4601149 74.562237,22.9532353 74.3555865,23.4112187 C74.1495405,23.87209 73.8715478,24.2695465 73.5218501,24.6057539 C73.1736034,24.9413598 72.760786,25.2106627 72.2830351,25.4084884 C71.804075,25.6073971 71.295006,25.7058286 70.7515961,25.7058286 C70.2103628,25.7058286 69.7002056,25.6073971 69.2212455,25.4084884 C68.7424063,25.2106627 68.3297098,24.9413598 67.9814631,24.6057539 C67.633821,24.2700278 67.35474,23.87209 67.1476058,23.4112187 C66.9393833,22.9532353 66.8374486,22.4601149 66.8374486,21.9369116 L66.8374486,13.1706087 C66.8374486,12.648729 66.9393833,12.156812 67.1476058,11.6966627 C67.35474,11.2367539 67.633821,10.8380942 67.9814631,10.5018867 C68.3297098,10.1665216 68.7424063,9.89926432 69.2212455,9.70011494 C69.7002056,9.50216888 70.2086699,9.40217303 70.7515961,9.40217303 C71.295006,9.40217303 71.8051632,9.50216888 72.2830351,9.70011494 C72.760786,9.89842199 73.1736034,10.1665216 73.5218501,10.5018867 C73.8715478,10.8380942 74.1495405,11.2367539 74.3555865,11.6966627 C74.562237,12.156812 74.6663482,12.6478867 74.6663482,13.1706087 L74.6663482,21.9369116 Z M74.6663482,9.88650913 C74.1766264,9.34056307 73.5936759,8.9173556 72.9222128,8.61845104 C72.2507497,8.32014813 71.5260822,8.17153817 70.7515961,8.17153817 C70.0291052,8.17153817 69.3494196,8.30173734 68.7179807,8.56225602 C68.0844861,8.82313568 67.5363603,9.17787427 67.0715478,9.62755477 C66.6062515,10.0739863 66.2378114,10.6030859 65.9670738,11.2120859 C65.6953688,11.8220485 65.5589722,12.4744884 65.5589722,13.1706087 L65.5589722,21.9369116 C65.5589722,22.6347166 65.6953688,23.2878784 65.9670738,23.8960361 C66.2378114,24.5067207 66.6046796,25.0340154 67.0715478,25.4832145 C67.5363603,25.9296461 68.0844861,26.2839033 68.7179807,26.546588 C69.3508706,26.8060237 70.0291052,26.9376668 70.7515961,26.9376668 C71.5260822,26.9376668 72.2507497,26.7806336 72.9222128,26.4710195 C73.5936759,26.1606834 74.1766264,25.7431315 74.6663482,25.2200485 L74.6663482,26.7500693 L75.9463966,26.7500693 L75.9463966,21.9364303 L75.9463966,13.1706087 L75.9463966,3.60995851e-05 L74.6663482,3.60995851e-05 L74.6663482,9.88650913 Z M63.0506288,11.1037871 C63.3405925,11.7559863 63.4873881,12.4622145 63.4873881,13.2037 L63.4873881,13.7471191 L61.1684039,13.7471191 L61.1684039,13.2037 C61.1684039,12.7753183 61.086179,12.3858037 60.9176179,12.0091647 C60.7478476,11.633368 60.5188271,11.3042602 60.2372068,11.03231 C59.9519589,10.7601191 59.6095163,10.537866 59.2129021,10.3721689 C58.8245103,10.2110444 58.4008102,10.1284967 57.9553446,10.1284967 C57.5086699,10.1284967 57.086058,10.2110444 56.6957316,10.3737332 C56.3021403,10.537144 55.9586094,10.7590361 55.6733615,11.03231 C55.3912576,11.3049822 55.1633253,11.633729 54.9925877,12.0102477 C54.8243894,12.3844801 54.7421644,12.7753183 54.7421644,13.2037 L54.7421644,21.6215216 C54.7421644,22.044729 54.8265659,22.4466378 54.9925877,22.8144925 C55.1617533,23.1925755 55.3907739,23.5204801 55.6733615,23.7939946 C55.9596977,24.0679905 56.3021403,24.2907249 56.6957316,24.4529324 C57.0855744,24.6161025 57.5066143,24.6988909 57.9553446,24.6988909 C58.4008102,24.6988909 58.8255985,24.6161025 59.2129021,24.4529324 C59.6079444,24.2907249 59.9508706,24.0679905 60.2372068,23.7939946 C60.5193108,23.5220444 60.7478476,23.1925755 60.9190689,22.8165382 C61.084607,22.4466378 61.1684039,22.0431647 61.1684039,21.6215216 L61.1684039,21.0791855 L63.4873881,21.0791855 L63.4873881,21.6215216 C63.4873881,22.3638494 63.3405925,23.0723639 63.0506288,23.7229988 C62.7627207,24.367978 62.3661064,24.9387124 61.8696131,25.4167913 C61.375659,25.8912602 60.7879927,26.2715091 60.117497,26.5481523 C59.4460339,26.8237124 58.7178597,26.9655838 57.9553446,26.9655838 C57.1922249,26.9655838 56.4645345,26.8237124 55.7919831,26.5481523 C55.1247521,26.2715091 54.5350302,25.8912602 54.0405925,25.4167913 C53.5449456,24.9387124 53.1478476,24.369422 52.8605441,23.7229988 C52.5700967,23.0723639 52.4233011,22.3638494 52.4233011,21.6215216 L52.4233011,13.2037 C52.4233011,12.4622145 52.5700967,11.7559863 52.8605441,11.1037871 C53.1478476,10.4551979 53.5465175,9.88650913 54.0405925,9.41047593 C54.5344256,8.93444274 55.1242684,8.55383278 55.7919831,8.27718963 C56.4635671,8.00030581 57.1911366,7.86035975 57.9553446,7.86035975 C58.7194317,7.86035975 59.4460339,8.00030581 60.117497,8.27718963 C60.7858162,8.55383278 61.3750544,8.93444274 61.8696131,9.41047593 C62.3650181,9.88759212 62.7617533,10.4566419 63.0506288,11.1037871 L63.0506288,11.1037871 Z M45.923422,24.6988909 C45.4773519,24.6988909 45.053289,24.6161025 44.663688,24.4529324 C44.2710641,24.2907249 43.9271705,24.0679905 43.6421644,23.7939946 C43.3580048,23.5204801 43.1298307,23.1925755 42.9606651,22.8144925 C42.795127,22.4466378 42.7107255,22.044729 42.7107255,21.6215216 L42.7107255,13.2037 C42.7107255,12.7745963 42.7929504,12.3844801 42.9609069,12.0091647 C43.1298307,11.633729 43.3595768,11.3049822 43.6421644,11.03231 C43.9262031,10.7590361 44.2702177,10.537144 44.663688,10.3737332 C45.0546191,10.2110444 45.4785611,10.1284967 45.9239057,10.1284967 C46.3686457,10.1284967 46.7925877,10.2110444 47.1827932,10.3721689 C47.5778356,10.537866 47.9211245,10.7601191 48.2061306,11.03231 C48.4879927,11.3042602 48.7166505,11.633368 48.8873881,12.0091647 C49.0551028,12.3858037 49.1370859,12.7753183 49.1370859,13.2037 L49.1370859,21.6215216 C49.1370859,22.0431647 49.0531681,22.4466378 48.8873881,22.8165382 C48.717497,23.1925755 48.4882346,23.5220444 48.2061306,23.7939946 C47.9200363,24.0679905 47.5757799,24.2907249 47.1827932,24.4529324 C46.7934341,24.6161025 46.3709432,24.6988909 45.923422,24.6988909 L45.923422,24.6988909 Z M49.8386578,9.41047593 C49.3438573,8.9350444 48.7544982,8.55479544 48.0853325,8.27718963 C47.4145949,8.00030581 46.6864208,7.86035975 45.9228174,7.86035975 C45.1052842,7.86035975 44.3291052,8.02004025 43.6172551,8.33627261 C43.2970617,8.47922697 42.9939178,8.64913568 42.7102418,8.84563776 L42.7102418,0.0153182573 L40.3902902,0.0153182573 L40.3902902,26.7873722 L42.7102418,26.7873722 L42.7102418,25.9570817 C42.992104,26.1492519 43.2913785,26.3207249 43.6093954,26.4672892 C44.3237848,26.7972394 45.102503,26.9655838 45.9228174,26.9655838 C46.6859371,26.9655838 47.4133857,26.8237124 48.0853325,26.5481523 C48.7544982,26.2715091 49.3438573,25.8912602 49.8386578,25.4167913 C50.3330955,24.9387124 50.7300726,24.367978 51.0183434,23.7229988 C51.3083071,23.0723639 51.4557074,22.3638494 51.4557074,21.6215216 L51.4557074,13.2037 C51.4557074,12.4622145 51.3083071,11.7559863 51.0183434,11.1037871 C50.7300726,10.4566419 50.3330955,9.88759212 49.8386578,9.41047593 L49.8386578,9.41047593 Z M33.1973035,24.6988909 C32.7507497,24.6988909 32.3270496,24.6161025 31.9379323,24.4529324 C31.5449456,24.2907249 31.2014148,24.0679905 30.9153204,23.7939946 C30.6322491,23.5204801 30.4037122,23.1925755 30.2343047,22.8144925 C30.0687666,22.4466378 29.983156,22.044729 29.983156,21.6215216 L29.983156,20.6202394 C29.983156,20.2156834 30.127896,19.9230361 30.435393,19.6909158 C30.8362394,19.3916502 31.2508706,19.1647041 31.6708222,19.0145299 C31.8713059,18.943534 32.1958525,18.8223598 32.6439782,18.654978 L34.1314027,18.100729 C34.6714268,17.8997747 35.2191898,17.7014676 35.7589722,17.5133888 C35.9901693,17.4320444 36.2084281,17.3527456 36.4101209,17.2812685 L36.4101209,21.6210402 C36.4101209,22.0426834 36.3255985,22.4456751 36.1595768,22.8160568 C35.9901693,23.1914925 35.7609069,23.5209614 35.4784401,23.7935133 C35.1940387,24.0673888 34.8496614,24.2897622 34.4551028,24.4523307 C34.0664692,24.6161025 33.6433736,24.6988909 33.1973035,24.6988909 L33.1973035,24.6988909 Z M37.2586094,9.42732241 C36.8014148,8.9463556 36.2474849,8.56045104 35.6122975,8.28284523 C34.9754172,8.0013888 34.2617533,7.86096141 33.4947642,7.86096141 C32.7304353,7.86096141 32.0029867,8.0010278 31.3320073,8.27791162 C30.663688,8.55383278 30.0744498,8.9350444 29.5800121,9.41107759 C29.0854534,9.88650913 28.6879927,10.4560402 28.3988755,11.1042685 C28.1087908,11.7564676 27.9624788,12.4629365 27.9624788,13.2041813 L27.9624788,13.7476004 L30.2821886,13.7476004 L30.2821886,13.2041813 C30.2821886,12.7759199 30.3635671,12.3849614 30.530919,12.0106087 C30.6988755,11.637339 30.9324909,11.3109988 31.2246312,11.0392892 C31.5233011,10.7616834 31.8713059,10.537144 32.2588513,10.3708452 C32.6351511,10.2092394 33.0508706,10.1284967 33.4942805,10.1284967 C34.3809794,10.1284967 35.0704595,10.4148867 35.5987545,11.0035506 C36.1447037,11.6106253 36.4093954,12.3309324 36.4093954,13.2041813 L36.4093954,14.8390112 C36.1543773,14.9358784 35.8395042,15.0509158 35.4688875,15.1824386 C34.8947642,15.3865216 34.3037122,15.6036004 33.6917412,15.8309075 C33.0866626,16.0573722 32.5181016,16.2650651 31.9873881,16.4561523 C31.4603023,16.6436295 31.0738452,16.7897124 30.8386578,16.8897083 C28.7310399,17.6408203 27.6632044,18.8963639 27.6632044,20.6202394 L27.6632044,21.6221232 C27.6632044,22.3649324 27.8110883,23.0714012 28.1006892,23.7245631 C28.3879927,24.369422 28.7856953,24.9393141 29.2812213,25.4167913 C29.7751753,25.8918618 30.3635671,26.2724718 31.033821,26.5491149 C31.7050423,26.8241938 32.43237,26.9666668 33.1959734,26.9666668 C34.0153204,26.9666668 34.7940387,26.7988037 35.5104837,26.4683722 C35.8274123,26.3207249 36.1270496,26.1486502 36.4093954,25.9561191 L36.4093954,26.7873722 L38.7277751,26.7873722 L38.7277751,13.2037 C38.7277751,12.4705174 38.595006,11.7686212 38.3352721,11.1208743 C38.0740871,10.4739697 37.7125393,9.90383693 37.2586094,9.42732241 L37.2586094,9.42732241 Z" id="Fill-10" fill="#FFFFFF"></path>
            </g>
        </g>
    </g>
</svg>