<?xml version="1.0" encoding="UTF-8"?>
<svg width="500px" height="432px" viewBox="0 0 500 432" version="1.1" xmlns="http://www.w3.org/2000/svg" xmlns:xlink="http://www.w3.org/1999/xlink">
    <!-- Generator: Sketch 55.1 (78136) - https://sketchapp.com -->
    <title>Group 19</title>
    <desc>Created with Sketch.</desc>
    <defs>
        <polygon id="path-1" points="0.000166389351 0.2456 499.747088 0.2456 499.747088 34.9996 0.000166389351 34.9996"></polygon>
        <polygon id="path-3" points="0.1905 0.2559 11.851 0.2559 11.851 13.8579 0.1905 13.8579"></polygon>
        <polygon id="path-5" points="0.1697 0.2041 7.0947 0.2041 7.0947 22 0.1697 22"></polygon>
    </defs>
    <g id="Welcome" stroke="none" stroke-width="1" fill="none" fill-rule="evenodd">
        <g id="Desktop-HD" transform="translate(-851.000000, -206.000000)">
            <g id="Group-19" transform="translate(851.000000, 205.000000)">
                <rect id="Rectangle" fill="#000000" x="0" y="18" width="500" height="415" rx="10"></rect>
                <g id="Group-15-Copy">
                    <g id="Group-14">
                        <g id="Group-3" transform="translate(0.000000, 0.754500)">
                            <mask id="mask-2" fill="white">
                                <use xlink:href="#path-1"></use>
                            </mask>
                            <g id="Clip-2"></g>
                            <path d="M493.154908,0.2456 L6.59168053,0.2456 C2.96605657,0.2456 0.000166389351,3.7366 0.000166389351,8.0056 L0.000166389351,34.9996 L499.747255,34.9996 L499.747255,8.0056 C499.747255,3.7366 496.780532,0.2456 493.154908,0.2456" id="Fill-1" fill="#243638" mask="url(#mask-2)"></path>
                        </g>
                        <g id="Group-4" transform="translate(13.873400, 14.695200)">
                            <path d="M7.723,3.862 C7.723,5.994 5.994,7.723 3.861,7.723 C1.729,7.723 -2.13162821e-14,5.994 -2.13162821e-14,3.862 C-2.13162821e-14,1.73 1.729,-2.13162821e-14 3.861,-2.13162821e-14 C5.994,-2.13162821e-14 7.723,1.73 7.723,3.862" id="Fill-4" fill="#EC412F"></path>
                            <path d="M23.6341,3.862 C23.6341,5.994 21.9051,7.723 19.7731,7.723 C17.6391,7.723 15.9111,5.994 15.9111,3.862 C15.9111,1.73 17.6391,-2.13162821e-14 19.7731,-2.13162821e-14 C21.9051,-2.13162821e-14 23.6341,1.73 23.6341,3.862" id="Fill-6" fill="#F9A11B"></path>
                            <path d="M39.5452,3.862 C39.5452,5.994 37.8162,7.723 35.6832,7.723 C33.5502,7.723 31.8222,5.994 31.8222,3.862 C31.8222,1.73 33.5502,-2.13162821e-14 35.6832,-2.13162821e-14 C37.8162,-2.13162821e-14 39.5452,1.73 39.5452,3.862" id="Fill-8" fill="#7FC142"></path>
                        </g>
                        <g id="Group-2" transform="translate(476.389200, 12.651900)" fill="#FAFBFB">
                            <polygon id="Fill-10" points="12.8722 2.39808173e-13 12.8722 5.963 10.5782 3.669 7.8252 6.422 6.4502 5.045 9.2022 2.293 6.9082 2.39808173e-13"></polygon>
                            <polygon id="Fill-12" points="6.421 7.8262 3.669 10.5782 5.962 12.8722 -3.41060513e-13 12.8722 -3.41060513e-13 6.9092 2.293 9.2022 5.045 6.4502"></polygon>
                        </g>
                    </g>
                </g>
                <g id="Group-130" transform="translate(49.000000, 155.000000)">
                    <polygon id="Fill-1" fill="#58595B" points="7.5861 1.0006 0.0001 19.2146 1.8281 19.2146 9.4501 1.0006"></polygon>
                    <polygon id="Fill-2" fill="#58595B" points="19.3959 1.0006 11.8109 19.2146 13.6389 19.2146 21.2609 1.0006"></polygon>
                    <g id="Group-129" transform="translate(0.000000, 0.357000)">
                        <path d="M36.5883,17.4276 C35.2123,18.3816 33.6163,18.8576 31.8003,18.8576 C29.5293,18.8576 27.8033,18.0786 26.6223,16.5206 C25.4403,14.9616 24.8513,12.7076 24.8513,9.7566 C24.8513,6.9046 25.4223,4.6736 26.5663,3.0606 C27.7103,1.4496 29.4543,0.6436 31.8003,0.6436 C32.6473,0.6436 33.4833,0.7516 34.3123,0.9666 C35.1403,1.1816 35.8083,1.4676 36.3143,1.8236 L35.6433,3.4276 C34.4733,2.7656 33.1923,2.4336 31.8003,2.4336 C30.1843,2.4336 28.9823,3.0186 28.1943,4.1926 C27.4073,5.3646 27.0143,7.2196 27.0143,9.7566 C27.0143,14.6316 28.6093,17.0676 31.8003,17.0676 C33.1503,17.0676 34.5363,16.6526 35.9543,15.8236 L36.5883,17.4276 Z" id="Fill-3" fill="#58595B"></path>
                        <path d="M46.1117,17.1669 C47.2877,17.1669 48.2157,16.6699 48.8977,15.6759 C49.5767,14.6799 49.9157,13.4739 49.9157,12.0579 C49.9157,10.5649 49.5807,9.3379 48.9097,8.3769 C48.2367,7.4159 47.3057,6.9349 46.1117,6.9349 C44.9087,6.9349 43.9777,7.4089 43.3137,8.3579 C42.6497,9.3069 42.3197,10.5409 42.3197,12.0579 C42.3197,13.4999 42.6547,14.7109 43.3257,15.6929 C43.9987,16.6769 44.9267,17.1669 46.1117,17.1669 M46.1117,5.2559 C47.8927,5.2559 49.3107,5.8779 50.3637,7.1209 C51.4157,8.3649 51.9427,10.0019 51.9427,12.0319 C51.9427,14.0789 51.4157,15.7299 50.3637,16.9809 C49.3107,18.2319 47.8927,18.8579 46.1117,18.8579 C44.3217,18.8579 42.9017,18.2339 41.8527,16.9859 C40.8037,15.7399 40.2797,14.0869 40.2797,12.0319 C40.2797,9.9929 40.8057,8.3539 41.8597,7.1149 C42.9127,5.8759 44.3287,5.2559 46.1117,5.2559" id="Fill-5" fill="#58595B"></path>
                        <path d="M68.4326,18.5223 L66.4936,18.5223 L66.4936,10.0173 C66.4936,7.9613 66.1106,6.9343 65.3496,6.9343 C64.9586,6.9343 64.5316,7.2893 64.0616,7.9983 C63.5946,8.7053 63.3596,9.0983 63.3596,9.1723 L63.3596,18.5223 L61.4326,18.5223 L61.4326,10.0173 C61.4326,7.9613 61.0466,6.9343 60.2766,6.9343 C59.8946,6.9343 59.4706,7.2893 59.0016,7.9983 C58.5336,8.7053 58.2996,9.0983 58.2996,9.1723 L58.2996,18.5223 L56.3596,18.5223 L56.3596,5.5663 L58.2246,5.5663 L58.2246,7.5183 C58.5896,6.8303 59.0216,6.2813 59.5246,5.8713 C60.0246,5.4603 60.5256,5.2553 61.0226,5.2553 C61.5436,5.2553 62.0126,5.4603 62.4266,5.8713 C62.8416,6.2813 63.1266,6.8303 63.2856,7.5183 C63.6496,6.8303 64.0846,6.2813 64.5906,5.8713 C65.0956,5.4603 65.5926,5.2553 66.0826,5.2553 C67.6486,5.2553 68.4326,6.6563 68.4326,9.4583 L68.4326,18.5223 Z" id="Fill-7" fill="#58595B"></path>
                        <path d="M75.5209,9.1727 L75.5209,14.5567 C75.8859,15.2847 76.3789,15.8947 77.0019,16.3827 C77.6219,16.8727 78.2649,17.1177 78.9289,17.1177 C79.9739,17.1177 80.8039,16.6277 81.4209,15.6497 C82.0379,14.6727 82.3469,13.4587 82.3469,12.0067 C82.3469,10.5147 82.0539,9.2967 81.4639,8.3527 C80.8769,7.4067 80.0549,6.9347 79.0039,6.9347 C77.6359,6.9347 76.4749,7.6797 75.5209,9.1727 L75.5209,9.1727 Z M75.5209,7.2457 C75.9519,6.6477 76.5339,6.1677 77.2699,5.8027 C78.0029,5.4377 78.7739,5.2557 79.5869,5.2557 C81.0789,5.2557 82.2499,5.8707 83.0999,7.1027 C83.9499,8.3337 84.3739,9.9357 84.3739,11.9077 C84.3739,13.8957 83.9289,15.5517 83.0369,16.8747 C82.1469,18.1967 80.9469,18.8577 79.4379,18.8577 C78.6339,18.8577 77.8809,18.6557 77.1809,18.2547 C76.4799,17.8537 75.9279,17.3197 75.5209,16.6577 L75.5209,23.6457 L73.5819,23.6457 L73.5819,5.5667 L75.5209,5.5667 L75.5209,7.2457 Z" id="Fill-9" fill="#58595B"></path>
                        <path d="M97.0458,14.68 L97.0458,12.33 C95.2978,12.489 94.0968,12.635 93.4468,12.772 C92.7968,12.909 92.2318,13.163 91.7558,13.536 C91.2798,13.91 91.0418,14.416 91.0418,15.054 C91.0418,15.634 91.2428,16.101 91.6498,16.458 C92.0568,16.814 92.5748,16.993 93.2038,16.993 C93.8918,16.993 94.5768,16.788 95.2558,16.378 C95.9358,15.968 96.5318,15.401 97.0458,14.68 M99.3088,18.522 L97.3808,18.522 C97.2248,18.001 97.1448,17.304 97.1448,16.433 C96.0428,18.05 94.5438,18.858 92.6458,18.858 C91.6828,18.858 90.8368,18.515 90.1018,17.832 C89.3678,17.148 89.0018,16.268 89.0018,15.191 C89.0018,14.551 89.1298,13.988 89.3868,13.5 C89.6448,13.01 90.0218,12.598 90.5188,12.263 C91.0158,11.925 91.6208,11.661 92.3348,11.467 C93.0468,11.272 93.8918,11.137 94.8698,11.062 L97.0458,10.888 L97.0458,10.266 C97.0458,8.045 96.0098,6.934 93.9388,6.934 C93.4488,6.934 92.8298,7.04 92.0788,7.251 C91.3288,7.463 90.6838,7.713 90.1448,8.003 L89.6358,6.611 C91.4008,5.707 93.0418,5.256 94.5588,5.256 C97.5098,5.256 98.9848,6.818 98.9848,9.943 L98.9848,15.514 C98.9848,16.64 99.0928,17.643 99.3088,18.522" id="Fill-11" fill="#58595B"></path>
                        <path d="M114.2036,5.9144 L113.4196,7.7794 C112.5666,7.4074 111.8286,7.2194 111.2076,7.2194 C110.6336,7.2194 110.0766,7.3844 109.5286,7.7114 C108.9816,8.0394 108.4776,8.5074 108.0166,9.1174 C107.5576,9.7254 107.3276,10.0674 107.3276,10.1424 L107.3276,18.5224 L105.3996,18.5224 L105.3996,5.5664 L107.3276,5.5664 L107.3276,8.1904 C108.3646,6.2334 109.7056,5.2554 111.3556,5.2554 C112.3336,5.2554 113.2826,5.4744 114.2036,5.9144" id="Fill-13" fill="#58595B"></path>
                        <path d="M129.2304,17.9383 C127.9284,18.5343 126.6474,18.8333 125.3884,18.8333 C123.0754,18.8333 121.9194,17.6093 121.9194,15.1653 L121.9194,7.2453 L119.4324,7.2453 L119.4324,5.5663 L121.9194,5.5663 L121.9194,2.0233 L123.8104,2.0233 L123.8104,5.5663 L128.2104,5.5663 L128.2104,7.2453 L123.8104,7.2453 L123.8104,14.6553 C123.8104,15.4423 123.9834,16.0543 124.3314,16.4893 C124.6794,16.9253 125.1514,17.1423 125.7494,17.1423 C126.8094,17.1423 127.8574,16.9063 128.8954,16.4333 L129.2304,17.9383 Z" id="Fill-15" fill="#58595B"></path>
                        <path d="M139.2109,0.6678 C139.5759,0.6678 139.8869,0.7978 140.1439,1.0588 C140.4009,1.3208 140.5299,1.6338 140.5299,1.9988 C140.5299,2.3788 140.4029,2.6988 140.1509,2.9548 C139.8979,3.2118 139.5849,3.3408 139.2109,3.3408 C138.8719,3.3408 138.5709,3.2068 138.3109,2.9378 C138.0479,2.6678 137.9179,2.3548 137.9179,1.9988 C137.9179,1.6428 138.0479,1.3318 138.3109,1.0658 C138.5709,0.7998 138.8719,0.6678 139.2109,0.6678 L139.2109,0.6678 Z M140.1559,18.5218 L138.2169,18.5218 L138.2169,7.2458 L134.4009,7.2458 L134.4009,5.5668 L140.1559,5.5668 L140.1559,18.5218 Z" id="Fill-17" fill="#58595B"></path>
                        <polygon id="Fill-19" fill="#58595B" points="156.1181 18.5223 150.8211 18.5223 150.8211 2.6573 147.4391 2.6573 147.4391 0.9793 152.7611 0.9793 152.7611 16.8433 156.1181 16.8433"></polygon>
                        <path d="M171.79,18.5223 L169.851,18.5223 L169.851,10.2173 C169.851,9.0643 169.666,8.2293 169.298,7.7113 C168.93,7.1933 168.351,6.9343 167.563,6.9343 C166.378,6.9343 165.106,7.6723 163.746,9.1473 L163.746,18.5223 L161.806,18.5223 L161.806,0.9793 L163.746,0.9793 L163.746,7.4693 C165.14,5.9943 166.606,5.2553 168.147,5.2553 C170.577,5.2553 171.79,6.7223 171.79,9.6573 L171.79,18.5223 Z" id="Fill-21" fill="#58595B"></path>
                        <path d="M185.0253,14.68 L185.0253,12.33 C183.2773,12.489 182.0743,12.635 181.4243,12.772 C180.7753,12.909 180.2123,13.163 179.7353,13.536 C179.2593,13.91 179.0213,14.416 179.0213,15.054 C179.0213,15.634 179.2223,16.101 179.6293,16.458 C180.0363,16.814 180.5523,16.993 181.1813,16.993 C181.8693,16.993 182.5543,16.788 183.2353,16.378 C183.9133,15.968 184.5113,15.401 185.0253,14.68 M187.2883,18.522 L185.3593,18.522 C185.2023,18.001 185.1223,17.304 185.1223,16.433 C184.0213,18.05 182.5233,18.858 180.6253,18.858 C179.6623,18.858 178.8163,18.515 178.0813,17.832 C177.3473,17.148 176.9813,16.268 176.9813,15.191 C176.9813,14.551 177.1093,13.988 177.3663,13.5 C177.6243,13.01 178.0013,12.598 178.4983,12.263 C178.9953,11.925 179.6003,11.661 180.3123,11.467 C181.0253,11.272 181.8693,11.137 182.8493,11.062 L185.0253,10.888 L185.0253,10.266 C185.0253,8.045 183.9893,6.934 181.9183,6.934 C181.4283,6.934 180.8093,7.04 180.0583,7.251 C179.3083,7.463 178.6633,7.713 178.1243,8.003 L177.6153,6.611 C179.3803,5.707 181.0213,5.256 182.5373,5.256 C185.4873,5.256 186.9643,6.818 186.9643,9.943 L186.9643,15.514 C186.9643,16.64 187.0723,17.643 187.2883,18.522" id="Fill-23" fill="#58595B"></path>
                        <path d="M202.1777,5.9144 L201.3957,7.7794 C200.5407,7.4074 199.8037,7.2194 199.1817,7.2194 C198.6087,7.2194 198.0487,7.3844 197.5027,7.7114 C196.9537,8.0394 196.4527,8.5074 195.9907,9.1174 C195.5317,9.7254 195.3027,10.0674 195.3027,10.1424 L195.3027,18.5224 L193.3737,18.5224 L193.3737,5.5664 L195.3027,5.5664 L195.3027,8.1904 C196.3387,6.2334 197.6807,5.2554 199.3307,5.2554 C200.3077,5.2554 201.2567,5.4744 202.1777,5.9144" id="Fill-25" fill="#58595B"></path>
                        <path d="M232.4853,18.0878 C231.3593,18.6008 230.1193,18.8578 228.7703,18.8578 C226.7303,18.8578 225.1033,18.2388 223.8903,16.9998 C222.6733,15.7608 222.0693,14.1128 222.0693,12.0578 C222.0693,10.0018 222.6773,8.3548 223.9003,7.1148 C225.1243,5.8758 226.7303,5.2558 228.7173,5.2558 C230.0213,5.2558 231.2583,5.4838 232.4373,5.9408 L231.9253,7.5428 C230.7513,7.1378 229.6873,6.9348 228.7463,6.9348 C227.3173,6.9348 226.1873,7.3948 225.3573,8.3148 C224.5233,9.2348 224.1053,10.4818 224.1053,12.0578 C224.1053,13.4998 224.5373,14.7118 225.3983,15.6928 C226.2603,16.6768 227.3833,17.1668 228.7703,17.1668 C229.8653,17.1668 230.9913,16.9568 232.1523,16.5328 L232.4853,18.0878 Z" id="Fill-27" fill="#58595B"></path>
                        <path d="M242.4404,17.1669 C243.6184,17.1669 244.5454,16.6699 245.2274,15.6759 C245.9054,14.6799 246.2464,13.4739 246.2464,12.0579 C246.2464,10.5649 245.9124,9.3379 245.2384,8.3769 C244.5674,7.4159 243.6354,6.9349 242.4404,6.9349 C241.2414,6.9349 240.3054,7.4089 239.6454,8.3579 C238.9814,9.3069 238.6484,10.5409 238.6484,12.0579 C238.6484,13.4999 238.9854,14.7109 239.6564,15.6929 C240.3274,16.6769 241.2544,17.1669 242.4404,17.1669 M242.4404,5.2559 C244.2224,5.2559 245.6404,5.8779 246.6944,7.1209 C247.7474,8.3649 248.2724,10.0019 248.2724,12.0319 C248.2724,14.0789 247.7474,15.7299 246.6944,16.9809 C245.6404,18.2319 244.2224,18.8579 242.4404,18.8579 C240.6504,18.8579 239.2324,18.2339 238.1824,16.9859 C237.1354,15.7399 236.6114,14.0869 236.6114,12.0319 C236.6114,9.9929 237.1354,8.3539 238.1894,7.1149 C239.2424,5.8759 240.6604,5.2559 242.4404,5.2559" id="Fill-29" fill="#58595B"></path>
                        <path d="M263.249,18.5223 L261.31,18.5223 L261.31,10.2173 C261.31,9.0643 261.125,8.2293 260.753,7.7113 C260.385,7.1933 259.808,6.9343 259.019,6.9343 C257.834,6.9343 256.562,7.6723 255.203,9.1473 L255.203,18.5223 L253.264,18.5223 L253.264,5.5663 L255.203,5.5663 L255.203,7.4693 C256.597,5.9943 258.063,5.2553 259.606,5.2553 C262.032,5.2553 263.249,6.7223 263.249,9.6573 L263.249,18.5223 Z" id="Fill-31" fill="#58595B"></path>
                        <path d="M278.9277,18.5223 L276.9887,18.5223 L276.9887,10.2173 C276.9887,9.0643 276.8037,8.2293 276.4317,7.7113 C276.0637,7.1933 275.4867,6.9343 274.6977,6.9343 C273.5127,6.9343 272.2407,7.6723 270.8817,9.1473 L270.8817,18.5223 L268.9427,18.5223 L268.9427,0.9793 L270.8817,0.9793 L270.8817,7.4693 C272.2757,5.9943 273.7417,5.2553 275.2847,5.2553 C277.7107,5.2553 278.9277,6.7223 278.9277,9.6573 L278.9277,18.5223 Z" id="Fill-33" fill="#58595B"></path>
                        <path d="M292.83,10.5282 C292.83,9.5172 292.518,8.6652 291.889,7.9722 C291.256,7.2802 290.554,6.9342 289.771,6.9342 C288.77,6.9342 287.94,7.2662 287.279,7.9282 C286.623,8.5922 286.254,9.4582 286.182,10.5282 L292.83,10.5282 Z M294.947,12.1062 L286.057,12.1062 C286.057,13.5722 286.48,14.7842 287.328,15.7362 C288.18,16.6902 289.223,17.1672 290.456,17.1672 C291.635,17.1672 292.848,16.9562 294.099,16.5322 L294.435,18.0882 C293.293,18.6002 291.958,18.8582 290.432,18.8582 C288.51,18.8582 286.96,18.2402 285.781,17.0052 C284.603,15.7692 284.016,14.1052 284.016,12.0072 C284.016,9.9512 284.544,8.3122 285.601,7.0892 C286.657,5.8672 288.023,5.2562 289.698,5.2562 C291.189,5.2562 292.437,5.8242 293.442,6.9592 C294.443,8.0952 294.947,9.6072 294.947,11.4982 L294.947,12.1062 Z" id="Fill-35" fill="#58595B"></path>
                        <path d="M310.08,18.0878 C308.954,18.6008 307.713,18.8578 306.364,18.8578 C304.324,18.8578 302.697,18.2388 301.484,16.9998 C300.268,15.7608 299.663,14.1128 299.663,12.0578 C299.663,10.0018 300.271,8.3548 301.495,7.1148 C302.719,5.8758 304.324,5.2558 306.312,5.2558 C307.616,5.2558 308.853,5.4838 310.031,5.9408 L309.52,7.5428 C308.346,7.1378 307.282,6.9348 306.34,6.9348 C304.912,6.9348 303.782,7.3948 302.951,8.3148 C302.117,9.2348 301.7,10.4818 301.7,12.0578 C301.7,13.4998 302.131,14.7118 302.993,15.6928 C303.855,16.6768 304.977,17.1668 306.364,17.1668 C307.459,17.1668 308.585,16.9568 309.746,16.5328 L310.08,18.0878 Z" id="Fill-37" fill="#58595B"></path>
                        <path d="M320.6113,0.6678 C320.9763,0.6678 321.2853,0.7978 321.5433,1.0588 C321.7993,1.3208 321.9283,1.6338 321.9283,1.9988 C321.9283,2.3788 321.8033,2.6988 321.5493,2.9548 C321.2963,3.2118 320.9833,3.3408 320.6113,3.3408 C320.2703,3.3408 319.9673,3.2068 319.7083,2.9378 C319.4473,2.6678 319.3183,2.3548 319.3183,1.9988 C319.3183,1.6428 319.4473,1.3318 319.7083,1.0658 C319.9673,0.7998 320.2703,0.6678 320.6113,0.6678 L320.6113,0.6678 Z M321.5563,18.5218 L319.6173,18.5218 L319.6173,7.2458 L315.7983,7.2458 L315.7983,5.5668 L321.5563,5.5668 L321.5563,18.5218 Z" id="Fill-39" fill="#58595B"></path>
                        <path d="M340.5195,18.5223 L338.5805,18.5223 L338.5805,10.0173 C338.5805,7.9613 338.1985,6.9343 337.4365,6.9343 C337.0475,6.9343 336.6165,7.2893 336.1515,7.9983 C335.6815,8.7053 335.4455,9.0983 335.4455,9.1723 L335.4455,18.5223 L333.5195,18.5223 L333.5195,10.0173 C333.5195,7.9613 333.1335,6.9343 332.3625,6.9343 C331.9835,6.9343 331.5555,7.2893 331.0905,7.9983 C330.6215,8.7053 330.3885,9.0983 330.3885,9.1723 L330.3885,18.5223 L328.4455,18.5223 L328.4455,5.5663 L330.3115,5.5663 L330.3115,7.5183 C330.6765,6.8303 331.1115,6.2813 331.6115,5.8713 C332.1125,5.4603 332.6125,5.2553 333.1095,5.2553 C333.6305,5.2553 334.1005,5.4603 334.5135,5.8713 C334.9275,6.2813 335.2155,6.8303 335.3725,7.5183 C335.7375,6.8303 336.1715,6.2813 336.6795,5.8713 C337.1835,5.4603 337.6805,5.2553 338.1695,5.2553 C339.7385,5.2553 340.5195,6.6563 340.5195,9.4583 L340.5195,18.5223 Z" id="Fill-41" fill="#58595B"></path>
                        <path d="M353.873,10.5282 C353.873,9.5172 353.561,8.6652 352.932,7.9722 C352.299,7.2802 351.597,6.9342 350.814,6.9342 C349.813,6.9342 348.983,7.2662 348.322,7.9282 C347.666,8.5922 347.298,9.4582 347.225,10.5282 L353.873,10.5282 Z M355.99,12.1062 L347.1,12.1062 C347.1,13.5722 347.523,14.7842 348.371,15.7362 C349.223,16.6902 350.266,17.1672 351.499,17.1672 C352.678,17.1672 353.891,16.9562 355.142,16.5322 L355.479,18.0882 C354.336,18.6002 353.001,18.8582 351.476,18.8582 C349.553,18.8582 348.003,18.2402 346.825,17.0052 C345.646,15.7692 345.06,14.1052 345.06,12.0072 C345.06,9.9512 345.587,8.3122 346.644,7.0892 C347.7,5.8672 349.066,5.2562 350.742,5.2562 C352.232,5.2562 353.48,5.8242 354.485,6.9592 C355.486,8.0952 355.99,9.6072 355.99,11.4982 L355.99,12.1062 Z" id="Fill-43" fill="#58595B"></path>
                        <path d="M371.0878,18.5223 L369.1498,18.5223 L369.1498,10.2173 C369.1498,9.0643 368.9648,8.2293 368.5928,7.7113 C368.2248,7.1933 367.6478,6.9343 366.8588,6.9343 C365.6728,6.9343 364.4008,7.6723 363.0418,9.1473 L363.0418,18.5223 L361.1028,18.5223 L361.1028,5.5663 L363.0418,5.5663 L363.0418,7.4693 C364.4358,5.9943 365.9018,5.2553 367.4458,5.2553 C369.8718,5.2553 371.0878,6.7223 371.0878,9.6573 L371.0878,18.5223 Z" id="Fill-45" fill="#58595B"></path>
                        <path d="M386.0995,17.9383 C384.7995,18.5343 383.5205,18.8333 382.2585,18.8333 C379.9485,18.8333 378.7895,17.6093 378.7895,15.1653 L378.7895,7.2453 L376.3055,7.2453 L376.3055,5.5663 L378.7895,5.5663 L378.7895,2.0233 L380.6815,2.0233 L380.6815,5.5663 L385.0805,5.5663 L385.0805,7.2453 L380.6815,7.2453 L380.6815,14.6553 C380.6815,15.4423 380.8555,16.0543 381.2025,16.4893 C381.5495,16.9253 382.0225,17.1423 382.6205,17.1423 C383.6805,17.1423 384.7305,16.9063 385.7655,16.4333 L386.0995,17.9383 Z" id="Fill-47" fill="#58595B"></path>
                        <g id="Group-51" transform="translate(390.000000, 5.000000)">
                            <mask id="mask-4" fill="white">
                                <use xlink:href="#path-3"></use>
                            </mask>
                            <g id="Clip-50"></g>
                            <path d="M6.0195,12.1669 C7.1975,12.1669 8.1255,11.6699 8.8065,10.6759 C9.4845,9.6799 9.8255,8.4739 9.8255,7.0579 C9.8255,5.5649 9.4915,4.3379 8.8175,3.3769 C8.1465,2.4159 7.2145,1.9349 6.0195,1.9349 C4.8205,1.9349 3.8855,2.4089 3.2245,3.3579 C2.5605,4.3069 2.2275,5.5409 2.2275,7.0579 C2.2275,8.4999 2.5645,9.7109 3.2355,10.6929 C3.9065,11.6769 4.8335,12.1669 6.0195,12.1669 M6.0195,0.2559 C7.8025,0.2559 9.2205,0.8779 10.2735,2.1209 C11.3275,3.3649 11.8515,5.0019 11.8515,7.0319 C11.8515,9.0789 11.3275,10.7299 10.2735,11.9809 C9.2205,13.2319 7.8025,13.8579 6.0195,13.8579 C4.2295,13.8579 2.8115,13.2339 1.7615,11.9859 C0.7155,10.7399 0.1905,9.0869 0.1905,7.0319 C0.1905,4.9929 0.7155,3.3539 1.7685,2.1149 C2.8215,0.8759 4.2405,0.2559 6.0195,0.2559" id="Fill-49" fill="#58595B" mask="url(#mask-4)"></path>
                        </g>
                        <path d="M5.8061,31.224 C6.1711,31.224 6.4821,31.354 6.7391,31.615 C6.9961,31.877 7.1251,32.19 7.1251,32.555 C7.1251,32.936 6.9981,33.256 6.7461,33.511 C6.4931,33.768 6.1801,33.897 5.8061,33.897 C5.4671,33.897 5.1661,33.763 4.9061,33.494 C4.6431,33.224 4.5131,32.911 4.5131,32.555 C4.5131,32.199 4.6431,31.888 4.9061,31.622 C5.1661,31.356 5.4671,31.224 5.8061,31.224 L5.8061,31.224 Z M6.7511,49.078 L4.8121,49.078 L4.8121,37.802 L0.9951,37.802 L0.9951,36.123 L6.7511,36.123 L6.7511,49.078 Z" id="Fill-52" fill="#EC1C24"></path>
                        <path d="M23.7494,31.7333 L23.2404,33.3133 C22.3184,33.0473 21.4934,32.9153 20.7654,32.9153 C20.0684,32.9153 19.5904,33.1113 19.3284,33.5053 C19.0674,33.8993 18.9374,34.6923 18.9374,35.8863 L18.9374,36.1233 L23.2884,36.1233 L23.2884,37.8013 L18.9374,37.8013 L18.9374,49.0783 L16.9984,49.0783 L16.9984,37.8013 L13.7394,37.8013 L13.7394,36.1233 L16.9984,36.1233 L16.9984,35.6883 C16.9984,34.0373 17.2794,32.8813 17.8424,32.2183 C18.4074,31.5563 19.3804,31.2243 20.7654,31.2243 C21.6604,31.2243 22.6544,31.3943 23.7494,31.7333" id="Fill-54" fill="#EC1C24"></path>
                        <path d="M53.4404,51.6766 L52.6824,52.7466 C50.8334,51.3446 49.4234,49.7166 48.4544,47.8606 C47.4844,46.0026 47.0004,44.0426 47.0004,41.9796 C47.0004,39.8996 47.4814,37.9356 48.4424,36.0916 C49.4034,34.2476 50.8154,32.6246 52.6824,31.2236 L53.4404,32.2926 C51.9224,33.6536 50.8314,35.0766 50.1644,36.5646 C49.4974,38.0516 49.1634,39.8486 49.1634,41.9536 C49.1634,44.1346 49.5094,45.9676 50.2004,47.4556 C50.8944,48.9446 51.9734,50.3506 53.4404,51.6766" id="Fill-56" fill="#FFFFFF"></path>
                        <path d="M62.7236,47.723 C63.9006,47.723 64.8286,47.226 65.5096,46.232 C66.1886,45.236 66.5276,44.03 66.5276,42.614 C66.5276,41.121 66.1926,39.894 65.5216,38.933 C64.8496,37.972 63.9176,37.491 62.7236,37.491 C61.5206,37.491 60.5896,37.965 59.9256,38.914 C59.2616,39.863 58.9316,41.097 58.9316,42.614 C58.9316,44.056 59.2666,45.267 59.9376,46.249 C60.6106,47.233 61.5386,47.723 62.7236,47.723 M62.7236,35.812 C64.5046,35.812 65.9226,36.434 66.9756,37.677 C68.0276,38.921 68.5546,40.558 68.5546,42.588 C68.5546,44.635 68.0276,46.286 66.9756,47.537 C65.9226,48.788 64.5046,49.414 62.7236,49.414 C60.9336,49.414 59.5146,48.79 58.4646,47.542 C57.4166,46.296 56.8916,44.643 56.8916,42.588 C56.8916,40.549 57.4176,38.91 58.4716,37.671 C59.5246,36.432 60.9406,35.812 62.7236,35.812" id="Fill-58" fill="#3ABFCE"></path>
                        <path d="M83.5327,49.0785 L81.5937,49.0785 L81.5937,40.7735 C81.5937,39.6215 81.4087,38.7855 81.0407,38.2675 C80.6717,37.7495 80.0937,37.4905 79.3057,37.4905 C78.1207,37.4905 76.8487,38.2295 75.4887,39.7035 L75.4887,49.0785 L73.5487,49.0785 L73.5487,36.1225 L75.4887,36.1225 L75.4887,38.0255 C76.8817,36.5505 78.3487,35.8115 79.8897,35.8115 C82.3197,35.8115 83.5327,37.2785 83.5327,40.2135 L83.5327,49.0785 Z" id="Fill-60" fill="#3ABFCE"></path>
                        <path d="M96.8027,41.159 L94.5017,33.897 L92.2147,41.159 L96.8027,41.159 Z M101.4657,49.078 L99.3257,49.078 L97.3867,42.937 L91.6307,42.937 L89.6657,49.078 L87.5527,49.078 L93.2837,31.535 L95.7337,31.535 L101.4657,49.078 Z" id="Fill-62" fill="#3ABFCE"></path>
                        <path d="M107.4208,39.7289 L107.4208,45.1129 C107.7858,45.8409 108.2788,46.4509 108.9008,46.9389 C109.5218,47.4299 110.1648,47.6739 110.8288,47.6739 C111.8728,47.6739 112.7038,47.1759 113.3208,46.1819 C113.9378,45.1869 114.2468,43.9639 114.2468,42.5129 C114.2468,41.0219 113.9528,39.8109 113.3638,38.8829 C112.7768,37.9549 111.9548,37.4909 110.9028,37.4909 C109.5358,37.4909 108.3748,38.2359 107.4208,39.7289 L107.4208,39.7289 Z M107.4208,37.8019 C107.8518,37.2039 108.4338,36.7249 109.1688,36.3589 C109.9018,35.9949 110.6738,35.8119 111.4868,35.8119 C112.9958,35.8119 114.1708,36.4169 115.0118,37.6279 C115.8528,38.8369 116.2738,40.4299 116.2738,42.4019 C116.2738,44.3999 115.8268,46.0669 114.9318,47.4069 C114.0368,48.7449 112.8378,49.4139 111.3378,49.4139 C110.5328,49.4139 109.7808,49.2119 109.0808,48.8109 C108.3798,48.4099 107.8278,47.8759 107.4208,47.2139 L107.4208,49.0789 L105.4818,49.0789 L105.4818,31.5349 L107.4208,31.5349 L107.4208,37.8019 Z" id="Fill-64" fill="#3ABFCE"></path>
                        <path d="M131.1752,48.6439 C130.0472,49.1569 128.8082,49.4139 127.4582,49.4139 C125.4182,49.4139 123.7912,48.7949 122.5762,47.5559 C121.3632,46.3169 120.7552,44.6699 120.7552,42.6139 C120.7552,40.5579 121.3662,38.9109 122.5902,37.6709 C123.8122,36.4329 125.4182,35.8119 127.4072,35.8119 C128.7092,35.8119 129.9482,36.0399 131.1252,36.4969 L130.6152,38.0989 C129.4372,37.6939 128.3772,37.4909 127.4322,37.4909 C126.0072,37.4909 124.8772,37.9509 124.0452,38.8709 C123.2112,39.7909 122.7952,41.0379 122.7952,42.6139 C122.7952,44.0559 123.2262,45.2679 124.0882,46.2489 C124.9502,47.2329 126.0722,47.7229 127.4582,47.7229 C128.5512,47.7229 129.6782,47.5129 130.8402,47.0889 L131.1752,48.6439 Z" id="Fill-66" fill="#3ABFCE"></path>
                        <path d="M144.2211,45.1127 L144.2211,39.7287 C143.2911,38.2367 142.1721,37.4907 140.8641,37.4907 C139.7951,37.4907 138.9491,37.9657 138.3261,38.9137 C137.7061,39.8627 137.3951,41.0637 137.3951,42.5127 C137.3951,44.0057 137.6871,45.2377 138.2711,46.2127 C138.8541,47.1857 139.6581,47.6747 140.6781,47.6747 C141.1661,47.6747 141.6591,47.5407 142.1571,47.2767 C142.6541,47.0107 143.1231,46.6127 143.5601,46.0827 C144.0001,45.5527 144.2211,45.2297 144.2211,45.1127 L144.2211,45.1127 Z M146.1601,49.0787 L144.2211,49.0787 L144.2211,47.2137 C143.8231,47.8517 143.2531,48.3787 142.5111,48.7917 C141.7691,49.2067 140.9871,49.4137 140.1671,49.4137 C138.6821,49.4137 137.5111,48.7537 136.6471,47.4307 C135.7851,46.1087 135.3541,44.4337 135.3541,42.4017 C135.3541,40.5047 135.8041,38.9317 136.7051,37.6837 C137.6031,36.4357 138.7951,35.8117 140.2801,35.8117 C141.9111,35.8117 143.2251,36.4757 144.2211,37.8017 L144.2211,31.5347 L146.1601,31.5347 L146.1601,49.0787 Z" id="Fill-68" fill="#3ABFCE"></path>
                        <path d="M160.1293,41.0843 C160.1293,40.0733 159.8153,39.2213 159.1843,38.5283 C158.5543,37.8363 157.8493,37.4903 157.0703,37.4903 C156.0673,37.4903 155.2373,37.8223 154.5763,38.4843 C153.9183,39.1483 153.5513,40.0143 153.4773,41.0843 L160.1293,41.0843 Z M162.2423,42.6623 L153.3533,42.6623 C153.3533,44.1293 153.7773,45.3403 154.6273,46.2923 C155.4773,47.2473 156.5203,47.7233 157.7533,47.7233 C158.9323,47.7233 160.1453,47.5123 161.3983,47.0883 L161.7333,48.6443 C160.5893,49.1563 159.2553,49.4143 157.7293,49.4143 C155.8053,49.4143 154.2553,48.7973 153.0793,47.5613 C151.9023,46.3263 151.3133,44.6613 151.3133,42.5633 C151.3133,40.5073 151.8413,38.8693 152.8983,37.6453 C153.9563,36.4233 155.3203,35.8123 156.9963,35.8123 C158.4863,35.8123 159.7343,36.3803 160.7373,37.5153 C161.7423,38.6513 162.2423,40.1633 162.2423,42.0543 L162.2423,42.6623 Z" id="Fill-70" fill="#3ABFCE"></path>
                        <polygon id="Fill-72" fill="#3ABFCE" points="177.5805 36.1229 172.6695 49.0789 170.9035 49.0789 166.0175 36.1229 168.1305 36.1229 171.7985 46.4299 175.4655 36.1229"></polygon>
                        <path d="M189.766,51.6766 L189.009,52.7466 C187.16,51.3446 185.752,49.7166 184.782,47.8606 C183.812,46.0026 183.326,44.0426 183.326,41.9796 C183.326,39.8996 183.809,37.9356 184.768,36.0916 C185.731,34.2476 187.142,32.6246 189.009,31.2236 L189.766,32.2926 C188.251,33.6536 187.16,35.0766 186.492,36.5646 C185.825,38.0516 185.491,39.8486 185.491,41.9536 C185.491,44.1346 185.835,45.9676 186.527,47.4556 C187.222,48.9446 188.299,50.3506 189.766,51.6766" id="Fill-74" fill="#FFFFFF"></path>
                        <path d="M196.2695,31.224 C198.1245,32.625 199.5335,34.248 200.4965,36.092 C201.4575,37.935 201.9385,39.899 201.9385,41.979 C201.9385,44.042 201.4555,46.003 200.4885,47.86 C199.5225,49.716 198.1155,51.345 196.2695,52.747 L195.4985,51.677 C197.0125,50.335 198.1045,48.907 198.7715,47.394 C199.4395,45.881 199.7725,44.068 199.7725,41.953 C199.7725,39.774 199.4285,37.951 198.7445,36.483 C198.0555,35.016 196.9715,33.619 195.4985,32.293 L196.2695,31.224 Z" id="Fill-76" fill="#FFFFFF"></path>
                        <path d="M208.1318,31.224 C209.9868,32.625 211.3958,34.248 212.3588,36.092 C213.3208,37.935 213.8008,39.899 213.8008,41.979 C213.8008,44.042 213.3178,46.003 212.3518,47.86 C211.3848,49.716 209.9778,51.345 208.1318,52.747 L207.3608,51.677 C208.8758,50.335 209.9668,48.907 210.6338,47.394 C211.3018,45.881 211.6348,44.068 211.6348,41.953 C211.6348,39.774 211.2908,37.951 210.6068,36.483 C209.9178,35.016 208.8338,33.619 207.3608,32.293 L208.1318,31.224 Z" id="Fill-78" fill="#FFFFFF"></path>
                        <path d="M245.9364,53.3309 L244.9564,53.3309 C243.7604,53.3309 242.9024,53.0099 242.3734,52.3669 C241.8494,51.7259 241.5844,50.5329 241.5844,48.7919 L241.5844,47.5999 C241.5844,46.0499 241.3834,44.9689 240.9764,44.3599 C240.5704,43.7499 239.9164,43.4459 239.0124,43.4459 L239.0124,41.4199 C239.9164,41.4199 240.5704,41.1139 240.9764,40.5059 C241.3834,39.8959 241.5844,38.8169 241.5844,37.2669 L241.5844,36.0599 C241.5844,34.3279 241.8494,33.1409 242.3734,32.4979 C242.9024,31.8569 243.7604,31.5349 244.9564,31.5349 L245.9364,31.5349 L245.9364,33.1639 L245.5644,33.1639 C244.7924,33.1639 244.2574,33.3309 243.9554,33.6609 C243.6534,33.9929 243.4994,34.7849 243.4994,36.0359 L243.4994,36.8319 C243.4994,38.5469 243.3014,39.8109 242.9024,40.6239 C242.5054,41.4349 241.8284,42.0369 240.8754,42.4259 C241.8284,42.8239 242.5054,43.4289 242.9024,44.2419 C243.3014,45.0539 243.4994,46.3189 243.4994,48.0339 L243.4994,48.8299 C243.4994,50.0809 243.6534,50.8739 243.9554,51.2039 C244.2574,51.5359 244.7924,51.7029 245.5644,51.7029 L245.9364,51.7029 L245.9364,53.3309 Z" id="Fill-80" fill="#FFFFFF"></path>
                        <path d="M26.9643,68.5316 C25.8783,68.1756 24.8543,67.9966 23.8913,67.9966 C22.8403,67.9966 22.0063,68.1736 21.3923,68.5246 C20.7793,68.8776 20.4733,69.3486 20.4733,69.9356 C20.4733,70.3096 20.6143,70.6346 20.8963,70.9126 C21.1773,71.1906 21.7423,71.4496 22.5873,71.6896 L24.4393,72.2246 C25.2923,72.4646 25.9893,72.7536 26.5283,73.0886 C27.0673,73.4236 27.4713,73.8306 27.7413,74.3066 C28.0103,74.7846 28.1443,75.3376 28.1443,75.9666 C28.1443,77.2016 27.6263,78.1786 26.5903,78.8946 C25.5543,79.6126 24.2353,79.9696 22.6373,79.9696 C21.0453,79.9696 19.7313,79.7306 18.6953,79.2486 L19.0673,77.5706 C20.1533,78.0846 21.3183,78.3426 22.5623,78.3426 C23.6393,78.3426 24.5153,78.1406 25.1923,77.7396 C25.8673,77.3376 26.2053,76.8036 26.2053,76.1416 C26.2053,75.6936 26.0383,75.2936 25.7003,74.9406 C25.3653,74.5886 24.5763,74.2216 23.3323,73.8406 C22.3293,73.5346 21.5923,73.3036 21.1203,73.1516 C20.6473,72.9976 20.2073,72.7726 19.8003,72.4726 C19.3963,72.1746 19.0873,71.8186 18.8743,71.4046 C18.6643,70.9896 18.5583,70.5256 18.5583,70.0106 C18.5583,68.8916 19.0473,68.0056 20.0253,67.3496 C21.0033,66.6966 22.3013,66.3676 23.9183,66.3676 C24.9623,66.3676 26.1213,66.5476 27.3993,66.9036 L26.9643,68.5316 Z" id="Fill-82" fill="#3ABFCE"></path>
                        <path d="M43.4579,79.6346 L41.5189,79.6346 L41.5189,71.3296 C41.5189,70.1776 41.3339,69.3416 40.9659,68.8236 C40.5979,68.3056 40.0189,68.0476 39.2309,68.0476 C38.0459,68.0476 36.7739,68.7856 35.4139,70.2596 L35.4139,79.6346 L33.4739,79.6346 L33.4739,62.0916 L35.4139,62.0916 L35.4139,68.5826 C36.8079,67.1066 38.2739,66.3676 39.8149,66.3676 C42.2449,66.3676 43.4579,67.8346 43.4579,70.7706 L43.4579,79.6346 Z" id="Fill-84" fill="#3ABFCE"></path>
                        <path d="M56.6933,75.7923 L56.6933,73.4423 C54.9453,73.6013 53.7443,73.7473 53.0943,73.8843 C52.4443,74.0213 51.8793,74.2753 51.4033,74.6483 C50.9273,75.0223 50.6893,75.5283 50.6893,76.1663 C50.6893,76.7463 50.8903,77.2143 51.2973,77.5703 C51.7043,77.9263 52.2223,78.1053 52.8513,78.1053 C53.5393,78.1053 54.2243,77.9003 54.9033,77.4903 C55.5833,77.0803 56.1793,76.5133 56.6933,75.7923 M58.9563,79.6343 L57.0283,79.6343 C56.8723,79.1133 56.7923,78.4173 56.7923,77.5453 C55.6913,79.1623 54.1913,79.9703 52.2933,79.9703 C51.3303,79.9703 50.4843,79.6273 49.7493,78.9453 C49.0153,78.2603 48.6493,77.3803 48.6493,76.3033 C48.6493,75.6643 48.7773,75.1013 49.0343,74.6123 C49.2923,74.1223 49.6693,73.7103 50.1663,73.3753 C50.6633,73.0383 51.2683,72.7733 51.9823,72.5793 C52.6943,72.3843 53.5393,72.2493 54.5173,72.1743 L56.6933,72.0003 L56.6933,71.3783 C56.6933,69.1573 55.6573,68.0473 53.5863,68.0473 C53.0963,68.0473 52.4773,68.1533 51.7263,68.3633 C50.9763,68.5753 50.3313,68.8253 49.7923,69.1153 L49.2833,67.7243 C51.0483,66.8203 52.6893,66.3683 54.2063,66.3683 C57.1573,66.3683 58.6323,67.9303 58.6323,71.0553 L58.6323,76.6263 C58.6323,77.7523 58.7403,78.7553 58.9563,79.6343" id="Fill-86" fill="#3ABFCE"></path>
                        <path d="M73.851,67.0267 L73.067,68.8917 C72.214,68.5197 71.476,68.3317 70.855,68.3317 C70.282,68.3317 69.724,68.4967 69.176,68.8237 C68.629,69.1517 68.125,69.6197 67.664,70.2297 C67.205,70.8377 66.975,71.1807 66.975,71.2557 L66.975,79.6347 L65.047,79.6347 L65.047,66.6797 L66.975,66.6797 L66.975,69.3037 C68.012,67.3467 69.353,66.3677 71.003,66.3677 C71.981,66.3677 72.93,66.5877 73.851,67.0267" id="Fill-88" fill="#3ABFCE"></path>
                        <path d="M84.2607,61.7801 C84.6257,61.7801 84.9367,61.9101 85.1937,62.1711 C85.4507,62.4341 85.5797,62.7461 85.5797,63.1121 C85.5797,63.4921 85.4527,63.8121 85.2007,64.0671 C84.9477,64.3241 84.6347,64.4531 84.2607,64.4531 C83.9217,64.4531 83.6207,64.3191 83.3607,64.0501 C83.0977,63.7801 82.9677,63.4671 82.9677,63.1121 C82.9677,62.7551 83.0977,62.4441 83.3607,62.1781 C83.6207,61.9121 83.9217,61.7801 84.2607,61.7801 L84.2607,61.7801 Z M85.2057,79.6341 L83.2667,79.6341 L83.2667,68.3581 L79.4497,68.3581 L79.4497,66.6791 L85.2057,66.6791 L85.2057,79.6341 Z" id="Fill-90" fill="#3ABFCE"></path>
                        <path d="M102.6606,79.6346 L100.7216,79.6346 L100.7216,71.3296 C100.7216,70.1776 100.5366,69.3416 100.1686,68.8236 C99.8006,68.3056 99.2216,68.0476 98.4346,68.0476 C97.2486,68.0476 95.9766,68.7856 94.6166,70.2596 L94.6166,79.6346 L92.6766,79.6346 L92.6766,66.6796 L94.6166,66.6796 L94.6166,68.5826 C96.0106,67.1066 97.4766,66.3676 99.0186,66.3676 C101.4476,66.3676 102.6606,67.8346 102.6606,70.7706 L102.6606,79.6346 Z" id="Fill-92" fill="#3ABFCE"></path>
                        <path d="M112.5092,73.2694 C113.2232,73.2694 113.8052,73.0224 114.2572,72.5284 C114.7072,72.0354 114.9332,71.3924 114.9332,70.5964 C114.9332,69.7584 114.7142,69.1034 114.2752,68.6304 C113.8352,68.1584 113.2472,67.9214 112.5092,67.9214 C111.8212,67.9214 111.2442,68.1684 110.7752,68.6624 C110.3072,69.1554 110.0722,69.8004 110.0722,70.5964 C110.0722,71.3744 110.3072,72.0144 110.7752,72.5164 C111.2442,73.0194 111.8212,73.2694 112.5092,73.2694 M112.5842,83.2524 C113.8612,83.2524 114.9492,82.9694 115.8472,82.4014 C116.7472,81.8334 117.1972,81.1314 117.1972,80.2934 C117.1972,79.4314 116.5582,79.0004 115.2822,79.0004 C114.8602,79.0004 114.1302,79.0244 113.0942,79.0754 C112.4392,79.1084 111.9252,79.1254 111.5512,79.1254 C111.3692,79.1254 111.0862,79.2754 110.7002,79.5724 C110.3162,79.8714 110.0202,80.1714 109.8172,80.4744 C109.6132,80.7764 109.5132,81.0894 109.5132,81.4124 C109.5132,81.9184 109.7942,82.3514 110.3592,82.7124 C110.9222,83.0724 111.6642,83.2524 112.5842,83.2524 M111.7512,74.7484 C110.5402,75.3374 109.9352,75.8544 109.9352,76.3034 C109.9352,76.5434 110.0742,76.7464 110.3522,76.9114 C110.6302,77.0784 111.0092,77.1604 111.4902,77.1604 L115.8542,77.0374 C116.8902,77.0374 117.6962,77.2894 118.2722,77.7944 C118.8482,78.3004 119.1372,79.0184 119.1372,79.9464 C119.1372,81.4124 118.4822,82.5824 117.1722,83.4514 C115.8632,84.3214 114.3342,84.7584 112.5842,84.7584 C111.1502,84.7584 109.9772,84.4574 109.0662,83.8554 C108.1542,83.2544 107.6982,82.4774 107.6982,81.5234 C107.6982,80.4884 108.4032,79.6144 109.8122,78.9014 C108.6422,78.3534 108.0582,77.6834 108.0582,76.8874 C108.0582,75.9754 108.8132,75.1254 110.3212,74.3374 C109.6242,73.9154 109.0912,73.3684 108.7172,72.6974 C108.3452,72.0244 108.1572,71.3174 108.1572,70.5704 C108.1572,69.3524 108.5722,68.3514 109.4022,67.5674 C110.2312,66.7854 111.2662,66.3924 112.5092,66.3924 C113.4042,66.3924 114.2142,66.5804 114.9332,66.9524 L118.7762,66.3684 L118.7762,68.2594 L116.3012,68.2594 C116.6752,68.9124 116.8612,69.6844 116.8612,70.5704 C116.8612,71.7484 116.4502,72.7424 115.6302,73.5544 C114.8102,74.3674 113.7692,74.7744 112.5092,74.7744 C112.2452,74.7744 111.9912,74.7654 111.7512,74.7484" id="Fill-94" fill="#3ABFCE"></path>
                        <path d="M131.1718,82.2328 L130.4138,83.3038 C128.5648,81.9008 127.1558,80.2728 126.1858,78.4168 C125.2158,76.5588 124.7318,74.5988 124.7318,72.5358 C124.7318,70.4558 125.2128,68.4918 126.1738,66.6478 C127.1348,64.8038 128.5478,63.1808 130.4138,61.7798 L131.1718,62.8488 C129.6548,64.2098 128.5638,65.6328 127.8958,67.1208 C127.2288,68.6078 126.8948,70.4048 126.8948,72.5098 C126.8948,74.6908 127.2408,76.5248 127.9328,78.0118 C128.6258,79.5008 129.7048,80.9068 131.1718,82.2328" id="Fill-96" fill="#FFFFFF"></path>
                        <path d="M137.6747,61.7801 C139.5317,63.1811 140.9417,64.8041 141.9027,66.6481 C142.8637,68.4921 143.3447,70.4551 143.3447,72.5361 C143.3447,74.5981 142.8617,76.5591 141.8957,78.4171 C140.9317,80.2731 139.5237,81.9011 137.6747,83.3031 L136.9047,82.2331 C138.4217,80.8911 139.5127,79.4631 140.1807,77.9511 C140.8477,76.4371 141.1817,74.6251 141.1817,72.5091 C141.1817,70.3301 140.8377,68.5081 140.1497,67.0391 C139.4617,65.5721 138.3807,64.1751 136.9047,62.8491 L137.6747,61.7801 Z" id="Fill-98" fill="#FFFFFF"></path>
                        <path d="M152.9413,66.4935 C153.3633,66.4935 153.7203,66.6365 154.0103,66.9205 C154.3003,67.2075 154.4463,67.5585 154.4463,67.9725 C154.4463,68.3945 154.3003,68.7475 154.0103,69.0285 C153.7203,69.3105 153.3633,69.4515 152.9413,69.4515 C152.5263,69.4515 152.1783,69.3085 151.8973,69.0235 C151.6153,68.7365 151.4753,68.3875 151.4753,67.9725 C151.4753,67.5585 151.6153,67.2075 151.8973,66.9205 C152.1783,66.6365 152.5263,66.4935 152.9413,66.4935 M152.9653,79.9705 C152.5353,79.9215 152.1783,79.7425 151.8973,79.4365 C151.6153,79.1295 151.4753,78.7815 151.4753,78.3925 C151.4753,77.9685 151.6103,77.6125 151.8843,77.3215 C152.1573,77.0315 152.5023,76.8875 152.9173,76.8875 C153.3813,76.8875 153.7823,77.0755 154.1233,77.4515 C154.4623,77.8295 154.6323,78.2845 154.6323,78.8145 C154.6323,80.4395 153.7293,81.7065 151.9213,82.6185 L151.4483,81.7235 C152.4603,81.2265 152.9653,80.6425 152.9653,79.9705" id="Fill-100" fill="#FFFFFF"></path>
                        <path d="M20.2734,100.8417 L20.2734,106.2257 C20.6384,106.9537 21.1324,107.5637 21.7544,108.0517 C22.3744,108.5417 23.0174,108.7867 23.6814,108.7867 C24.7264,108.7867 25.5564,108.2887 26.1734,107.2947 C26.7904,106.2997 27.0994,105.0767 27.0994,103.6257 C27.0994,102.1347 26.8064,100.9237 26.2164,99.9957 C25.6294,99.0677 24.8074,98.6037 23.7564,98.6037 C22.3884,98.6037 21.2274,99.3487 20.2734,100.8417 L20.2734,100.8417 Z M20.2734,98.9147 C20.7044,98.3167 21.2864,97.8367 22.0224,97.4717 C22.7554,97.1077 23.5264,96.9247 24.3404,96.9247 C25.8484,96.9247 27.0234,97.5287 27.8644,98.7407 C28.7054,99.9497 29.1264,101.5417 29.1264,103.5147 C29.1264,105.5127 28.6794,107.1797 27.7844,108.5197 C26.8894,109.8577 25.6904,110.5267 24.1904,110.5267 C23.3864,110.5267 22.6334,110.3247 21.9334,109.9237 C21.2324,109.5227 20.6804,108.9887 20.2734,108.3267 L20.2734,110.1917 L18.3344,110.1917 L18.3344,92.6477 L20.2734,92.6477 L20.2734,98.9147 Z" id="Fill-102" fill="#3ABFCE"></path>
                        <path d="M42.3735,102.1971 C42.3735,101.1861 42.0595,100.3341 41.4285,99.6411 C40.7995,98.9491 40.0935,98.6031 39.3145,98.6031 C38.3125,98.6031 37.4815,98.9351 36.8215,99.5971 C36.1625,100.2611 35.7955,101.1271 35.7215,102.1971 L42.3735,102.1971 Z M44.4865,103.7751 L35.5975,103.7751 C35.5975,105.2421 36.0215,106.4531 36.8715,107.4051 C37.7215,108.3601 38.7645,108.8361 39.9985,108.8361 C41.1765,108.8361 42.3895,108.6251 43.6425,108.2011 L43.9775,109.7571 C42.8335,110.2691 41.4995,110.5271 39.9735,110.5271 C38.0495,110.5271 36.4995,109.9091 35.3235,108.6741 C34.1465,107.4381 33.5575,105.7741 33.5575,103.6761 C33.5575,101.6201 34.0855,99.9811 35.1425,98.7581 C36.2005,97.5361 37.5645,96.9251 39.2405,96.9251 C40.7315,96.9251 41.9785,97.4931 42.9815,98.6281 C43.9865,99.7641 44.4865,101.2761 44.4865,103.1671 L44.4865,103.7751 Z" id="Fill-104" fill="#3ABFCE"></path>
                        <path d="M57.3105,102.2718 L55.0095,95.0098 L52.7225,102.2718 L57.3105,102.2718 Z M61.9735,110.1908 L59.8335,110.1908 L57.8935,104.0498 L52.1385,104.0498 L50.1725,110.1908 L48.0605,110.1908 L53.7905,92.6478 L56.2415,92.6478 L61.9735,110.1908 Z" id="Fill-106" fill="#3ABFCE"></path>
                        <path d="M77.3041,97.2357 L75.4391,110.1917 L73.9601,110.1917 L70.9141,102.8557 L67.8551,110.1917 L66.3761,110.1917 L64.5481,97.2357 L66.4751,97.2357 C67.1641,103.2867 67.5201,106.4617 67.5441,106.7587 L69.9201,101.1267 L71.9081,101.1267 L74.2711,106.7227 L75.3161,97.2357 L77.3041,97.2357 Z" id="Fill-108" fill="#3ABFCE"></path>
                        <path d="M89.9521,102.1971 C89.9521,101.1861 89.6381,100.3341 89.0071,99.6411 C88.3771,98.9491 87.6721,98.6031 86.8931,98.6031 C85.8901,98.6031 85.0601,98.9351 84.4001,99.5971 C83.7411,100.2611 83.3741,101.1271 83.3001,102.1971 L89.9521,102.1971 Z M92.0651,103.7751 L83.1761,103.7751 C83.1761,105.2421 83.6001,106.4531 84.4501,107.4051 C85.3001,108.3601 86.3431,108.8361 87.5771,108.8361 C88.7551,108.8361 89.9681,108.6251 91.2211,108.2011 L91.5561,109.7571 C90.4121,110.2691 89.0781,110.5271 87.5521,110.5271 C85.6281,110.5271 84.0781,109.9091 82.9021,108.6741 C81.7251,107.4381 81.1361,105.7741 81.1361,103.6761 C81.1361,101.6201 81.6641,99.9811 82.7211,98.7581 C83.7791,97.5361 85.1431,96.9251 86.8191,96.9251 C88.3101,96.9251 89.5571,97.4931 90.5601,98.6281 C91.5651,99.7641 92.0651,101.2761 92.0651,103.1671 L92.0651,103.7751 Z" id="Fill-110" fill="#3ABFCE"></path>
                        <path d="M105.4863,99.0882 C104.4003,98.7322 103.3773,98.5532 102.4143,98.5532 C101.3623,98.5532 100.5283,98.7302 99.9153,99.0812 C99.3013,99.4342 98.9953,99.9052 98.9953,100.4922 C98.9953,100.8662 99.1363,101.1912 99.4183,101.4692 C99.6993,101.7472 100.2643,102.0062 101.1093,102.2462 L102.9613,102.7812 C103.8153,103.0212 104.5113,103.3092 105.0503,103.6452 C105.5893,103.9802 105.9943,104.3872 106.2633,104.8632 C106.5323,105.3402 106.6663,105.8932 106.6663,106.5232 C106.6663,107.7582 106.1493,108.7342 105.1123,109.4512 C104.0773,110.1692 102.7583,110.5262 101.1593,110.5262 C99.5673,110.5262 98.2543,110.2872 97.2173,109.8052 L97.5903,108.1272 C98.6753,108.6412 99.8403,108.8982 101.0843,108.8982 C102.1623,108.8982 103.0383,108.6962 103.7143,108.2952 C104.3903,107.8942 104.7273,107.3602 104.7273,106.6982 C104.7273,106.2502 104.5603,105.8502 104.2233,105.4972 C103.8873,105.1442 103.0983,104.7772 101.8543,104.3972 C100.8513,104.0912 100.1143,103.8602 99.6423,103.7072 C99.1693,103.5542 98.7303,103.3282 98.3233,103.0292 C97.9183,102.7312 97.6093,102.3742 97.3973,101.9612 C97.1863,101.5452 97.0803,101.0812 97.0803,100.5672 C97.0803,99.4482 97.5693,98.5612 98.5473,97.9062 C99.5263,97.2532 100.8233,96.9242 102.4403,96.9242 C103.4843,96.9242 104.6433,97.1032 105.9213,97.4602 L105.4863,99.0882 Z" id="Fill-112" fill="#3ABFCE"></path>
                        <path d="M117.2255,108.8358 C118.4025,108.8358 119.3295,108.3388 120.0115,107.3448 C120.6905,106.3488 121.0295,105.1428 121.0295,103.7268 C121.0295,102.2338 120.6945,101.0068 120.0235,100.0458 C119.3505,99.0848 118.4195,98.6038 117.2255,98.6038 C116.0225,98.6038 115.0915,99.0778 114.4275,100.0268 C113.7635,100.9758 113.4335,102.2098 113.4335,103.7268 C113.4335,105.1688 113.7685,106.3798 114.4395,107.3618 C115.1125,108.3458 116.0405,108.8358 117.2255,108.8358 M117.2255,96.9248 C119.0065,96.9248 120.4245,97.5468 121.4775,98.7898 C122.5295,100.0338 123.0565,101.6708 123.0565,103.7008 C123.0565,105.7478 122.5295,107.3988 121.4775,108.6498 C120.4245,109.9008 119.0065,110.5268 117.2255,110.5268 C115.4355,110.5268 114.0155,109.9028 112.9665,108.6548 C111.9185,107.4088 111.3935,105.7558 111.3935,103.7008 C111.3935,101.6618 111.9195,100.0228 112.9735,98.7838 C114.0265,97.5448 115.4425,96.9248 117.2255,96.9248" id="Fill-114" fill="#3ABFCE"></path>
                        <path d="M139.5483,110.1913 L137.6093,110.1913 L137.6093,101.6863 C137.6093,99.6303 137.2263,98.6033 136.4653,98.6033 C136.0743,98.6033 135.6463,98.9583 135.1773,99.6673 C134.7103,100.3743 134.4753,100.7673 134.4753,100.8413 L134.4753,110.1913 L132.5483,110.1913 L132.5483,101.6863 C132.5483,99.6303 132.1623,98.6033 131.3923,98.6033 C131.0103,98.6033 130.5863,98.9583 130.1163,99.6673 C129.6493,100.3743 129.4153,100.7673 129.4153,100.8413 L129.4153,110.1913 L127.4753,110.1913 L127.4753,97.2353 L129.3403,97.2353 L129.3403,99.1873 C129.7053,98.4993 130.1373,97.9503 130.6403,97.5403 C131.1403,97.1293 131.6413,96.9243 132.1383,96.9243 C132.6593,96.9243 133.1283,97.1293 133.5423,97.5403 C133.9573,97.9503 134.2423,98.4993 134.4013,99.1873 C134.7653,98.4993 135.2003,97.9503 135.7053,97.5403 C136.2113,97.1293 136.7083,96.9243 137.1983,96.9243 C138.7643,96.9243 139.5483,98.3253 139.5483,101.1273 L139.5483,110.1913 Z" id="Fill-116" fill="#3ABFCE"></path>
                        <path d="M152.9032,102.1971 C152.9032,101.1861 152.5892,100.3341 151.9582,99.6411 C151.3292,98.9491 150.6232,98.6031 149.8442,98.6031 C148.8412,98.6031 148.0112,98.9351 147.3512,99.5971 C146.6922,100.2611 146.3252,101.1271 146.2512,102.1971 L152.9032,102.1971 Z M155.0162,103.7751 L146.1272,103.7751 C146.1272,105.2421 146.5512,106.4531 147.4012,107.4051 C148.2512,108.3601 149.2942,108.8361 150.5282,108.8361 C151.7062,108.8361 152.9192,108.6251 154.1722,108.2011 L154.5072,109.7571 C153.3632,110.2691 152.0292,110.5271 150.5032,110.5271 C148.5792,110.5271 147.0292,109.9091 145.8532,108.6741 C144.6762,107.4381 144.0872,105.7741 144.0872,103.6761 C144.0872,101.6201 144.6152,99.9811 145.6722,98.7581 C146.7302,97.5361 148.0942,96.9251 149.7702,96.9251 C151.2612,96.9251 152.5082,97.4931 153.5112,98.6281 C154.5162,99.7641 155.0162,101.2761 155.0162,103.1671 L155.0162,103.7751 Z" id="Fill-118" fill="#3ABFCE"></path>
                        <path d="M167.8363,112.7894 L167.0793,113.8594 C165.2303,112.4574 163.8203,110.8294 162.8503,108.9734 C161.8803,107.1154 161.3963,105.1554 161.3963,103.0924 C161.3963,101.0124 161.8773,99.0484 162.8383,97.2044 C163.7993,95.3604 165.2123,93.7374 167.0793,92.3364 L167.8363,93.4054 C166.3193,94.7664 165.2283,96.1894 164.5603,97.6774 C163.8933,99.1644 163.5593,100.9614 163.5593,103.0664 C163.5593,105.2474 163.9053,107.0804 164.5973,108.5684 C165.2903,110.0574 166.3693,111.4634 167.8363,112.7894" id="Fill-120" fill="#FFFFFF"></path>
                        <path d="M174.3412,92.3368 C176.1992,93.7368 177.6082,95.3608 178.5692,97.2048 C179.5302,99.0478 180.0112,101.0118 180.0112,103.0918 C180.0112,105.1548 179.5282,107.1148 178.5622,108.9728 C177.5982,110.8288 176.1902,112.4578 174.3412,113.8598 L173.5712,112.7898 C175.0882,111.4478 176.1792,110.0188 176.8472,108.5068 C177.5142,106.9938 177.8482,105.1808 177.8482,103.0658 C177.8482,100.8868 177.5042,99.0638 176.8162,97.5958 C176.1282,96.1288 175.0472,94.7318 173.5712,93.4058 L174.3412,92.3368 Z" id="Fill-122" fill="#FFFFFF"></path>
                        <path d="M189.603,97.0497 C190.027,97.0497 190.381,97.1927 190.674,97.4777 C190.966,97.7637 191.104,98.1147 191.104,98.5287 C191.104,98.9507 190.966,99.3037 190.674,99.5857 C190.381,99.8667 190.027,100.0077 189.603,100.0077 C189.186,100.0077 188.842,99.8647 188.56,99.5797 C188.279,99.2937 188.136,98.9437 188.136,98.5287 C188.136,98.1147 188.279,97.7637 188.56,97.4777 C188.842,97.1927 189.186,97.0497 189.603,97.0497 M189.631,110.5267 C189.2,110.4777 188.842,110.2997 188.56,109.9927 C188.279,109.6857 188.136,109.3377 188.136,108.9487 C188.136,108.5247 188.272,108.1687 188.546,107.8787 C188.821,107.5877 189.165,107.4437 189.575,107.4437 C190.041,107.4437 190.444,107.6317 190.784,108.0087 C191.125,108.3857 191.292,108.8407 191.292,109.3707 C191.292,110.9957 190.388,112.2627 188.584,113.1747 L188.112,112.2797 C189.123,111.7827 189.631,111.1987 189.631,110.5267" id="Fill-124" fill="#FFFFFF"></path>
                        <g id="Group-128" transform="translate(1.000000, 123.000000)">
                            <mask id="mask-6" fill="white">
                                <use xlink:href="#path-5"></use>
                            </mask>
                            <g id="Clip-127"></g>
                            <path d="M7.0947,12.1151 C6.1997,12.1151 5.5467,12.4191 5.1367,13.0291 C4.7257,13.6371 4.5207,14.7191 4.5207,16.2681 L4.5207,17.4611 C4.5207,19.2021 4.2607,20.3941 3.7377,21.0351 C3.2157,21.6781 2.3577,22.0001 1.1637,22.0001 L0.1697,22.0001 L0.1697,20.3711 L0.5557,20.3711 C1.3247,20.3711 1.8627,20.2051 2.1647,19.8731 C2.4677,19.5431 2.6177,18.7501 2.6177,17.4991 L2.6177,16.7031 C2.6177,14.9881 2.8177,13.7221 3.2157,12.9111 C3.6147,12.0981 4.2877,11.4931 5.2417,11.0951 C4.2877,10.7061 3.6147,10.1041 3.2157,9.2931 C2.8177,8.4801 2.6177,7.2161 2.6177,5.5011 L2.6177,4.7051 C2.6177,3.4541 2.4677,2.6611 2.1647,2.3291 C1.8627,1.9991 1.3247,1.8321 0.5557,1.8321 L0.1697,1.8321 L0.1697,0.2041 L1.1637,0.2041 C2.3577,0.2041 3.2157,0.5261 3.7377,1.1671 C4.2607,1.8101 4.5207,2.9971 4.5207,4.7291 L4.5207,5.9351 C4.5207,7.3361 4.7037,8.3791 5.0687,9.0631 C5.4337,9.7461 6.1077,10.0891 7.0947,10.0891 L7.0947,12.1151 Z" id="Fill-126" fill="#FFFFFF" mask="url(#mask-6)"></path>
                        </g>
                    </g>
                </g>
            </g>
        </g>
    </g>
</svg>